<svg width="1445" height="163" viewBox="0 0 1445 163" fill="none" xmlns="http://www.w3.org/2000/svg">
<path d="M662.277 145.768C655.095 145.768 651.605 151.059 650.262 158.693C649.992 160.224 648.704 161.401 647.149 161.401C645.268 161.401 643.83 159.709 644.215 157.868C646.628 146.353 650.991 139.695 662.277 139.695C670.799 139.695 672.459 142.616 676.738 147.706C681.353 142.478 686.163 139.695 692.231 139.695C698.3 139.695 702.731 142.854 706.821 147.706C710.112 143.433 712.127 141.166 719.087 139.695V130.91C717.706 112.074 702.179 99.219 668.595 96.8505C666.94 96.7337 665.634 95.3694 665.634 93.7103C665.634 91.9416 667.113 90.5259 668.88 90.6134C693.557 91.8357 706.787 95.6793 719.087 111.53V41.3709C719.087 39.7309 720.416 38.4014 722.056 38.4014C723.696 38.4014 725.026 39.7309 725.026 41.3709V110.238C741.025 93.4631 754.665 88.9858 778.178 88.1098C779.896 88.0458 781.318 89.4306 781.318 91.1499C781.318 92.7915 780.016 94.1372 778.378 94.2422C742.532 96.5391 725.026 112.919 725.026 130.91V139.695C731.148 140.879 733.679 142.766 737.033 147.706C741.173 141.775 744.231 139.733 751.752 139.695C760.125 139.836 762.656 142.638 767.116 147.706C771.615 141.446 774.605 139.695 782.351 139.695C789.456 139.695 797.938 146.295 800.124 158.082C800.453 159.856 799.015 161.401 797.211 161.401C795.71 161.401 794.436 160.32 794.112 158.855C792.199 150.201 788.962 145.768 782.351 145.768C775.772 145.768 771.744 150.751 770.112 158.895C769.827 160.32 768.612 161.401 767.158 161.401C765.724 161.401 764.513 160.346 764.253 158.935C762.527 149.593 759.62 145.901 752.527 145.768C744.841 145.749 742.056 149.834 740.341 158.711C740.043 160.253 738.716 161.401 737.145 161.401C735.533 161.401 734.186 160.196 733.926 158.605C732.603 150.524 730.001 145.768 722.443 145.768C715.056 145.768 711.926 151.181 710.529 158.376C710.195 160.095 708.737 161.401 706.986 161.401C705.26 161.401 703.812 160.131 703.463 158.44C701.978 151.25 698.952 145.768 692.231 145.768C685.355 145.768 681.917 151.505 679.919 158.942C679.535 160.37 678.268 161.401 676.79 161.401C675.154 161.401 673.805 160.145 673.578 158.525C672.437 150.375 669.475 145.768 662.277 145.768Z" fill="#589564" stroke="#589564" stroke-width="2"/>
<path fill-rule="evenodd" clip-rule="evenodd" d="M750.677 89.1748C758.335 78.3945 771.199 72.4753 782.697 72.4753C794.165 72.4753 804.172 76.612 813.338 87.3736C817.106 91.7977 817.212 98.345 813.365 102.7C805.566 111.53 796.157 115.253 782.697 115.253C769.255 115.253 759.54 110.525 752.002 102.843C748.372 99.1445 747.676 93.3996 750.677 89.1748ZM760.188 88.792C765.954 81.923 774.71 78.179 782.601 78.179C790.414 78.179 797.312 80.7577 803.653 87.3393C807.697 91.5365 807.825 98.2961 803.622 102.334C798.175 107.567 791.612 109.809 782.601 109.809C773.545 109.809 766.77 106.926 761.412 102.144C757.535 98.6826 756.846 92.7727 760.188 88.792Z" fill="#589564"/>
<path d="M750.677 89.1748L751.492 89.754L751.492 89.754L750.677 89.1748ZM813.338 87.3736L812.577 88.0221L812.577 88.0221L813.338 87.3736ZM813.365 102.7L812.615 102.038L812.615 102.038L813.365 102.7ZM752.002 102.843L752.716 102.143L752.716 102.143L752.002 102.843ZM760.188 88.792L759.422 88.149L759.422 88.149L760.188 88.792ZM803.653 87.3393L804.373 86.6455L804.373 86.6455L803.653 87.3393ZM803.622 102.334L802.929 101.613L803.622 102.334ZM761.412 102.144L762.078 101.398L762.078 101.398L761.412 102.144ZM782.697 71.4753C770.89 71.4753 757.716 77.5395 749.862 88.5957L751.492 89.754C758.955 79.2495 771.508 73.4753 782.697 73.4753V71.4753ZM814.099 86.7252C804.748 75.7465 794.466 71.4753 782.697 71.4753V73.4753C793.865 73.4753 803.595 77.4775 812.577 88.0221L814.099 86.7252ZM814.114 103.363C818.309 98.6142 818.173 91.5077 814.099 86.7252L812.577 88.0221C816.04 92.0876 816.116 98.0757 812.615 102.038L814.114 103.363ZM782.697 116.253C796.386 116.253 806.09 112.446 814.114 103.363L812.615 102.038C805.041 110.613 795.928 114.253 782.697 114.253V116.253ZM751.288 103.544C759.011 111.413 768.981 116.253 782.697 116.253V114.253C769.529 114.253 760.07 109.637 752.716 102.143L751.288 103.544ZM749.862 88.5957C746.556 93.2496 747.349 99.5302 751.288 103.544L752.716 102.143C749.395 98.7588 748.796 93.5496 751.492 89.754L749.862 88.5957ZM782.601 77.179C774.422 77.179 765.382 81.0486 759.422 88.149L760.953 89.4349C766.525 82.7974 774.999 79.179 782.601 79.179V77.179ZM804.373 86.6455C797.839 79.8637 790.679 77.179 782.601 77.179V79.179C790.148 79.179 796.784 81.6517 802.933 88.0331L804.373 86.6455ZM804.315 103.055C808.949 98.6035 808.769 91.2081 804.373 86.6455L802.933 88.0331C806.624 91.8649 806.702 97.9888 802.929 101.613L804.315 103.055ZM782.601 110.809C791.803 110.809 798.638 108.509 804.315 103.055L802.929 101.613C797.712 106.626 791.42 108.809 782.601 108.809V110.809ZM760.746 102.89C766.291 107.839 773.305 110.809 782.601 110.809V108.809C773.786 108.809 767.248 106.013 762.078 101.398L760.746 102.89ZM759.422 88.149C755.7 92.5819 756.504 99.1028 760.746 102.89L762.078 101.398C758.566 98.2624 757.991 92.9636 760.953 89.4349L759.422 88.149Z" fill="#589564"/>
<path fill-rule="evenodd" clip-rule="evenodd" d="M629.233 86.2946C637.835 76.2511 651.18 71.5197 662.632 72.5597C674.053 73.597 683.644 78.6217 691.8 90.1683C695.153 94.9151 694.666 101.445 690.44 105.435C681.874 113.522 672.168 116.38 658.763 115.162C645.376 113.946 636.128 108.359 629.316 100.027C626.035 96.015 625.862 90.2306 629.233 86.2946ZM638.739 86.7736C645.103 80.4543 654.162 77.5177 662.02 78.2314C669.801 78.938 676.438 82.13 682.157 89.2582C685.805 93.8039 685.321 100.547 680.771 104.189C674.872 108.908 668.133 110.546 659.16 109.731C650.141 108.912 643.654 105.429 638.751 100.182C635.203 96.3838 635.051 90.4357 638.739 86.7736Z" fill="#589564"/>
<path d="M629.233 86.2946L629.992 86.9451L629.992 86.9451L629.233 86.2946ZM691.8 90.1683L690.983 90.7452L690.983 90.7452L691.8 90.1683ZM690.44 105.435L689.754 104.708L689.754 104.708L690.44 105.435ZM629.316 100.027L630.09 99.3939L630.09 99.3939L629.316 100.027ZM638.739 86.7736L638.034 86.064L638.739 86.7736ZM682.157 89.2582L682.937 88.6323L682.937 88.6323L682.157 89.2582ZM680.771 104.189L680.146 103.408L680.146 103.408L680.771 104.189ZM638.751 100.182L639.482 99.4988L639.482 99.4988L638.751 100.182ZM662.722 71.5638C650.963 70.4959 637.295 75.3437 628.473 85.6441L629.992 86.9451C638.374 77.1586 651.398 72.5436 662.542 73.5556L662.722 71.5638ZM692.617 89.5914C684.296 77.8119 674.443 72.6283 662.722 71.5638L662.542 73.5556C673.663 74.5657 682.992 79.4315 690.983 90.7452L692.617 89.5914ZM691.127 106.162C695.733 101.812 696.241 94.7228 692.617 89.5914L690.983 90.7452C694.064 95.1074 693.598 101.078 689.754 104.708L691.127 106.162ZM658.672 116.158C672.305 117.396 682.314 114.483 691.127 106.162L689.754 104.708C681.435 112.562 672.03 115.363 658.853 114.166L658.672 116.158ZM628.542 100.66C635.521 109.196 645.013 114.917 658.672 116.158L658.853 114.166C645.739 112.975 636.736 107.522 630.09 99.3939L628.542 100.66ZM628.473 85.6441C624.76 89.9799 624.982 96.3066 628.542 100.66L630.09 99.3939C627.089 95.7234 626.964 90.4813 629.992 86.9451L628.473 85.6441ZM662.111 77.2355C653.965 76.4957 644.613 79.5317 638.034 86.064L639.443 87.4832C645.593 81.3768 654.359 78.5397 661.93 79.2273L662.111 77.2355ZM682.937 88.6323C677.044 81.2873 670.156 77.9661 662.111 77.2355L661.93 79.2273C669.446 79.9099 675.832 82.9727 681.377 89.884L682.937 88.6323ZM681.395 104.969C686.413 100.955 686.902 93.5738 682.937 88.6323L681.377 89.884C684.707 94.034 684.23 100.14 680.146 103.408L681.395 104.969ZM659.069 110.727C668.233 111.56 675.249 109.887 681.395 104.969L680.146 103.408C674.496 107.928 668.033 109.533 659.25 108.735L659.069 110.727ZM638.02 100.864C643.094 106.295 649.811 109.886 659.069 110.727L659.25 108.735C650.471 107.938 644.213 104.563 639.482 99.4988L638.02 100.864ZM638.034 86.064C633.927 90.1421 634.138 96.709 638.02 100.864L639.482 99.4988C636.267 96.0585 636.174 90.7294 639.443 87.4832L638.034 86.064Z" fill="#589564"/>
<path fill-rule="evenodd" clip-rule="evenodd" d="M727.778 3.98764C738.607 11.5774 744.607 24.4027 744.68 35.9011C744.753 47.3691 740.68 57.4013 729.977 66.636C725.577 70.4323 719.03 70.5797 714.65 66.76C705.772 59.017 701.989 49.6322 701.903 36.1725C701.818 22.7305 706.485 12.986 714.118 5.39898C717.794 1.74578 723.534 1.01323 727.778 3.98764ZM728.221 13.4954C735.127 19.218 738.926 27.9507 738.976 35.8411C739.026 43.6536 736.491 50.5679 729.95 56.9506C725.778 61.021 719.02 61.1923 714.955 57.0151C709.687 51.6012 707.404 45.0521 707.347 36.0418C707.29 26.9861 710.129 20.1923 714.877 14.805C718.314 10.9058 724.219 10.179 728.221 13.4954Z" fill="#589564"/>
<path d="M727.778 3.98764L727.204 4.80653L727.204 4.80653L727.778 3.98764ZM729.977 66.636L729.324 65.8788L729.324 65.8788L729.977 66.636ZM714.65 66.76L715.308 66.0063L715.308 66.0063L714.65 66.76ZM714.118 5.39898L714.823 6.10825L714.823 6.10825L714.118 5.39898ZM728.221 13.4954L728.859 12.7254L728.859 12.7254L728.221 13.4954ZM729.95 56.9506L730.648 57.6663L730.648 57.6663L729.95 56.9506ZM714.955 57.0151L715.672 56.3177L715.672 56.3177L714.955 57.0151ZM714.877 14.805L715.628 15.4662L715.628 15.4662L714.877 14.805ZM745.68 35.8948C745.605 24.0873 739.458 10.9528 728.352 3.16875L727.204 4.80653C737.756 12.2021 743.609 24.7181 743.68 35.9075L745.68 35.8948ZM730.63 67.3931C741.549 57.9722 745.755 47.6635 745.68 35.8948L743.68 35.9075C743.751 47.0747 739.811 56.8304 729.324 65.8788L730.63 67.3931ZM713.993 67.5136C718.768 71.6778 725.873 71.4971 730.63 67.3931L729.324 65.8788C725.28 69.3676 719.293 69.4816 715.308 66.0063L713.993 67.5136ZM700.904 36.1789C700.99 49.8676 704.859 59.5474 713.993 67.5136L715.308 66.0063C706.685 58.4867 702.987 49.3968 702.903 36.1662L700.904 36.1789ZM713.413 4.6897C705.593 12.4622 700.816 22.4631 700.904 36.1789L702.903 36.1662C702.82 22.998 707.376 13.5098 714.823 6.10825L713.413 4.6897ZM728.352 3.16875C723.677 -0.107774 717.402 0.725638 713.413 4.6897L714.823 6.10825C718.186 2.76592 723.391 2.13424 727.204 4.80653L728.352 3.16875ZM739.976 35.8348C739.924 27.6556 735.998 18.6409 728.859 12.7254L727.583 14.2653C734.256 19.7951 737.928 28.2457 737.976 35.8474L739.976 35.8348ZM730.648 57.6663C737.388 51.0895 740.027 43.9125 739.976 35.8348L737.976 35.8474C738.024 43.3946 735.594 50.0463 729.251 56.2349L730.648 57.6663ZM714.238 57.7125C718.719 62.3177 726.113 62.091 730.648 57.6663L729.251 56.2349C725.443 59.9509 719.32 60.0669 715.672 56.3177L714.238 57.7125ZM706.347 36.0481C706.406 45.25 708.749 52.0706 714.238 57.7125L715.672 56.3177C710.626 51.1318 708.403 44.8542 708.347 36.0354L706.347 36.0481ZM714.127 14.1437C709.213 19.7194 706.288 26.7522 706.347 36.0481L708.347 36.0354C708.291 27.2201 711.045 20.6653 715.628 15.4662L714.127 14.1437ZM728.859 12.7254C724.403 9.03235 717.887 9.87765 714.127 14.1437L715.628 15.4662C718.741 11.934 724.036 11.3256 727.583 14.2653L728.859 12.7254Z" fill="#589564"/>
<path d="M634.5 153.5H4.5" stroke="#589564" stroke-width="8" stroke-linecap="round"/>
<path d="M1441 153.5H811" stroke="#589564" stroke-width="8" stroke-linecap="round"/>
</svg>
