<svg width="1440" height="1482" viewBox="0 0 1440 1482" fill="none" xmlns="http://www.w3.org/2000/svg">
<rect width="1440" height="1482" fill="#BDD684" fill-opacity="0.3"/>
<path d="M1287.31 56.3036C1287.31 56.3036 1289.04 80.6858 1275.86 92.7351C1265.83 101.238 1255.93 103.404 1241.98 101.933C1241.04 101.834 1240.3 101.073 1240.27 100.127C1239.87 85.3992 1250.35 69.5 1251.13 68.3311C1251.17 68.2809 1251.2 68.2381 1251.24 68.1917C1264.91 51.7336 1287.31 56.3036 1287.31 56.3036ZM1287.31 56.3036C1275.63 71.8765 1269.6 77.428 1257.27 85.8643" stroke="#589564" stroke-opacity="0.9" stroke-width="5"/>
<path d="M1397.44 87.1302C1404.07 70.5521 1391.92 49.3446 1391.92 49.3446C1391.92 49.3446 1369.76 54.962 1364.6 75.7251C1364.59 75.7837 1364.58 75.8365 1364.57 75.8963C1364.37 77.2902 1361.84 96.1649 1368.61 109.252C1369.04 110.093 1370.04 110.457 1370.93 110.137C1384.13 105.401 1392.1 99.1485 1397.44 87.1302Z" fill="#21652F" fill-opacity="0.6"/>
<path d="M1391.92 49.3446C1391.92 49.3446 1404.07 70.5521 1397.44 87.1302C1392.1 99.1485 1384.13 105.401 1370.93 110.137C1370.04 110.457 1369.04 110.093 1368.61 109.252C1361.84 96.1649 1364.37 77.2902 1364.57 75.8963C1364.58 75.8365 1364.59 75.7837 1364.6 75.7251C1369.76 54.962 1391.92 49.3446 1391.92 49.3446ZM1391.92 49.3446C1388.17 68.4447 1385.16 76.0631 1377.72 89.0191" stroke="#589564" stroke-opacity="0.9" stroke-width="5"/>
<path d="M1285.32 225.815C1285.32 225.815 1285.84 247.738 1273.52 257.979C1264.21 265.143 1255.29 266.683 1242.94 264.814C1242 264.673 1241.3 263.878 1241.32 262.931C1241.66 249.792 1251.61 236.126 1252.39 235.069C1252.43 235.021 1252.46 234.981 1252.5 234.936C1265.45 220.774 1285.32 225.815 1285.32 225.815ZM1285.32 225.815C1274.2 239.277 1268.56 243.997 1257.16 251.036" stroke="#589564" stroke-opacity="0.9" stroke-width="5"/>
<path d="M1198.27 177.008C1198.27 177.008 1198.06 162.875 1206.06 156.348C1211.96 151.895 1217.59 150.893 1225.25 152.034C1226.18 152.174 1226.88 152.978 1226.82 153.923C1226.26 162.118 1220.18 170.4 1219.57 171.214C1219.53 171.263 1219.49 171.303 1219.45 171.347C1211.03 180.369 1198.27 177.008 1198.27 177.008ZM1198.27 177.008C1205.52 168.397 1209.18 165.389 1216.57 160.919" stroke="#589564" stroke-opacity="0.9" stroke-width="5"/>
<path d="M1143.64 198.829C1139.72 209.282 1148.21 220.648 1148.21 220.648C1148.21 220.648 1162.53 215.182 1165.41 202.424C1165.42 202.361 1165.43 202.307 1165.44 202.243C1165.55 201.18 1166.59 190.506 1162.3 183.487C1161.82 182.691 1160.8 182.448 1159.96 182.858C1151.71 186.884 1146.78 191.335 1143.64 198.829Z" fill="#032C0B" fill-opacity="0.5"/>
<path d="M1148.21 220.648C1148.21 220.648 1139.72 209.282 1143.64 198.829C1146.78 191.335 1151.71 186.884 1159.96 182.858C1160.8 182.448 1161.82 182.691 1162.3 183.487C1166.59 190.506 1165.55 201.18 1165.44 202.243C1165.43 202.307 1165.42 202.361 1165.41 202.424C1162.53 215.182 1148.21 220.648 1148.21 220.648ZM1148.21 220.648C1150.18 208.983 1151.96 204.182 1156.5 195.794" stroke="#589564" stroke-opacity="0.5" stroke-width="5"/>
<path d="M1069.07 386.351C1058.04 397.276 1060.39 418.4 1060.39 418.4C1060.39 418.4 1080 421.592 1091.31 406.83C1091.35 406.783 1091.38 406.74 1091.41 406.688C1092.08 405.589 1100.5 391.6 1099.75 378.907C1099.69 377.962 1098.92 377.231 1097.98 377.172C1085.92 376.417 1077.45 378.661 1069.07 386.351Z" fill="#328743" fill-opacity="0.5"/>
<path d="M1060.39 418.4C1060.39 418.4 1058.04 397.276 1069.07 386.351C1077.45 378.661 1085.92 376.417 1097.98 377.172C1098.92 377.231 1099.69 377.962 1099.75 378.907C1100.5 391.6 1092.08 405.589 1091.41 406.688C1091.38 406.74 1091.35 406.783 1091.31 406.83C1080 421.592 1060.39 418.4 1060.39 418.4ZM1060.39 418.4C1070 404.465 1075.04 399.433 1085.46 391.676" stroke="#589564" stroke-opacity="0.5" stroke-width="5"/>
<path d="M1004.08 383.595C1004.08 383.595 993.234 348.032 1008.68 325.69C1020.82 309.462 1034.97 302.927 1056.62 300.441C1057.56 300.333 1058.45 300.908 1058.71 301.82C1064.83 323.791 1054.27 351.811 1053.62 353.508C1053.59 353.565 1053.57 353.617 1053.54 353.671C1038.88 382.76 1004.08 383.595 1004.08 383.595ZM1004.08 383.595C1016.11 356.538 1023.15 346.259 1038.57 329.562" stroke="#589564" stroke-opacity="0.9" stroke-width="5"/>
<path d="M1132.7 108.037C1114.15 123.172 1114.63 155.942 1114.63 155.942C1114.63 155.942 1144.29 163.755 1163.83 142.727C1163.87 142.683 1163.91 142.637 1163.94 142.589C1164.97 141.227 1180.61 120.272 1180.9 100.273C1180.92 99.3266 1180.22 98.5267 1179.29 98.3704C1160.45 95.2177 1146.91 97.3068 1132.7 108.037Z" fill="#328743" fill-opacity="0.5"/>
<path d="M1114.63 155.942C1114.63 155.942 1114.15 123.172 1132.7 108.037C1146.91 97.3068 1160.45 95.2177 1179.29 98.3704C1180.22 98.5267 1180.92 99.3266 1180.9 100.273C1180.61 120.272 1164.97 141.227 1163.94 142.589C1163.91 142.637 1163.87 142.683 1163.83 142.727C1144.29 163.755 1114.63 155.942 1114.63 155.942ZM1114.63 155.942C1131.43 135.976 1139.92 129 1157.06 118.637" stroke="#589564" stroke-opacity="0.9" stroke-width="5"/>
<path d="M1156.31 268.098C1144.02 283.498 1150.1 309.774 1150.1 309.774C1150.1 309.774 1175.31 310.901 1187.37 290.603C1187.4 290.551 1187.43 290.502 1187.45 290.447C1188.08 289.087 1196.86 269.793 1193.79 253.753C1193.61 252.824 1192.76 252.187 1191.82 252.235C1176.27 253.011 1165.81 257.064 1156.31 268.098Z" fill="#328743" fill-opacity="0.5"/>
<path d="M1150.1 309.774C1150.1 309.774 1144.02 283.498 1156.31 268.098C1165.81 257.064 1176.27 253.011 1191.82 252.235C1192.76 252.187 1193.61 252.824 1193.79 253.753C1196.86 269.793 1188.08 289.087 1187.45 290.447C1187.43 290.502 1187.4 290.551 1187.37 290.603C1175.31 310.901 1150.1 309.774 1150.1 309.774ZM1150.1 309.774C1160.15 290.792 1165.76 283.705 1177.75 272.388" stroke="#589564" stroke-opacity="0.9" stroke-width="5"/>
<path d="M1094.18 280.64C1085.29 291.775 1089.69 310.775 1089.69 310.775C1089.69 310.775 1107.9 311.588 1116.62 296.934C1116.65 296.882 1116.68 296.836 1116.7 296.782C1117.22 295.67 1123.33 282.15 1121.36 270.71C1121.2 269.777 1120.35 269.14 1119.4 269.194C1108.41 269.81 1100.96 272.769 1094.18 280.64Z" fill="#328743" fill-opacity="0.5"/>
<path d="M1089.69 310.775C1089.69 310.775 1085.29 291.775 1094.18 280.64C1100.96 272.769 1108.41 269.81 1119.4 269.194C1120.35 269.14 1121.2 269.777 1121.36 270.71C1123.33 282.15 1117.22 295.67 1116.7 296.782C1116.68 296.836 1116.65 296.882 1116.62 296.934C1107.9 311.588 1089.69 310.775 1089.69 310.775ZM1089.69 310.775C1096.95 297.049 1101.01 291.925 1109.68 283.742" stroke="#589564" stroke-opacity="0.9" stroke-width="5"/>
<path d="M1059.49 252.945C1059.49 252.945 1049.34 227.957 1059.04 210.812C1066.69 198.417 1076.38 192.765 1091.61 189.548C1092.53 189.352 1093.47 189.847 1093.79 190.737C1099.36 206.091 1093.73 226.528 1093.32 227.971C1093.3 228.029 1093.29 228.081 1093.26 228.137C1084.55 250.084 1059.49 252.945 1059.49 252.945ZM1059.49 252.945C1066.41 232.616 1070.84 224.733 1080.89 211.668" stroke="#589564" stroke-opacity="0.9" stroke-width="5"/>
<path d="M1292.34 161.524C1301.25 155.031 1301.86 139.943 1301.86 139.943C1301.86 139.943 1288.45 135.609 1278.93 144.743C1278.89 144.785 1278.85 144.823 1278.81 144.869C1278.13 145.677 1271.07 154.239 1270.05 163.003C1269.94 163.944 1270.59 164.784 1271.52 164.977C1279.67 166.673 1285.76 165.947 1292.34 161.524Z" fill="#21652F" fill-opacity="0.5"/>
<path d="M1301.86 139.943C1301.86 139.943 1301.25 155.031 1292.34 161.524C1285.76 165.947 1279.67 166.673 1271.52 164.977C1270.59 164.784 1269.94 163.944 1270.05 163.003C1271.07 154.239 1278.13 145.677 1278.81 144.869C1278.85 144.823 1278.89 144.785 1278.93 144.743C1288.45 135.609 1301.86 139.943 1301.86 139.943ZM1301.86 139.943C1293.63 148.703 1289.55 151.698 1281.4 156.031" stroke="#589564" stroke-opacity="0.5" stroke-width="5"/>
<path d="M432.444 1080.13C439.075 1063.55 426.92 1042.34 426.92 1042.34C426.92 1042.34 404.762 1047.96 399.603 1068.73C399.589 1068.78 399.578 1068.84 399.569 1068.9C399.37 1070.29 396.839 1089.16 403.607 1102.25C404.042 1103.09 405.038 1103.46 405.929 1103.14C419.128 1098.4 427.103 1092.15 432.444 1080.13Z" fill="#21652F" fill-opacity="0.6"/>
<path d="M426.92 1042.34C426.92 1042.34 439.075 1063.55 432.444 1080.13C427.103 1092.15 419.128 1098.4 405.929 1103.14C405.038 1103.46 404.042 1103.09 403.607 1102.25C396.839 1089.16 399.37 1070.29 399.569 1068.9C399.578 1068.84 399.589 1068.78 399.603 1068.73C404.762 1047.96 426.92 1042.34 426.92 1042.34ZM426.92 1042.34C423.171 1061.44 420.157 1069.06 412.719 1082.02" stroke="#589564" stroke-opacity="0.9" stroke-width="5"/>
<path d="M322.306 1049.3C322.306 1049.3 324.036 1073.69 310.86 1085.74C300.827 1094.24 290.927 1096.4 276.981 1094.93C276.04 1094.83 275.301 1094.07 275.275 1093.13C274.867 1078.4 285.349 1062.5 286.134 1061.33C286.167 1061.28 286.2 1061.24 286.239 1061.19C299.908 1044.73 322.306 1049.3 322.306 1049.3ZM322.306 1049.3C310.628 1064.88 304.603 1070.43 292.274 1078.86" stroke="#589564" stroke-opacity="0.9" stroke-width="5"/>
<path d="M320.319 1218.81C320.319 1218.81 320.839 1240.74 308.521 1250.98C299.212 1258.14 290.286 1259.68 277.938 1257.81C277.002 1257.67 276.298 1256.88 276.322 1255.93C276.66 1242.79 286.607 1229.13 287.39 1228.07C287.426 1228.02 287.46 1227.98 287.501 1227.94C300.447 1213.77 320.319 1218.81 320.319 1218.81ZM320.319 1218.81C309.196 1232.28 303.562 1237 292.156 1244.04" stroke="#589564" stroke-opacity="0.9" stroke-width="5"/>
<path d="M233.27 1170.01C233.27 1170.01 233.064 1155.88 241.064 1149.35C246.961 1144.9 252.59 1143.89 260.246 1145.03C261.182 1145.17 261.88 1145.98 261.816 1146.92C261.265 1155.12 255.178 1163.4 254.565 1164.21C254.529 1164.26 254.494 1164.3 254.453 1164.35C246.025 1173.37 233.27 1170.01 233.27 1170.01ZM233.27 1170.01C240.519 1161.4 244.178 1158.39 251.571 1153.92" stroke="#589564" stroke-opacity="0.9" stroke-width="5"/>
<path d="M178.642 1191.83C174.722 1202.28 183.208 1213.65 183.208 1213.65C183.208 1213.65 197.533 1208.18 200.406 1195.42C200.42 1195.36 200.43 1195.31 200.437 1195.24C200.553 1194.18 201.593 1183.51 197.303 1176.49C196.816 1175.69 195.796 1175.45 194.957 1175.86C186.714 1179.88 181.776 1184.33 178.642 1191.83Z" fill="#032C0B" fill-opacity="0.5"/>
<path d="M183.208 1213.65C183.208 1213.65 174.722 1202.28 178.642 1191.83C181.776 1184.33 186.714 1179.88 194.957 1175.86C195.796 1175.45 196.816 1175.69 197.303 1176.49C201.593 1183.51 200.553 1194.18 200.437 1195.24C200.43 1195.31 200.42 1195.36 200.406 1195.42C197.533 1208.18 183.208 1213.65 183.208 1213.65ZM183.208 1213.65C185.179 1201.98 186.959 1197.18 191.499 1188.79" stroke="#589564" stroke-opacity="0.5" stroke-width="5"/>
<path d="M133.256 1404.79C131.265 1420.19 146.096 1435.41 146.096 1435.41C146.096 1435.41 163.529 1425.88 163.381 1407.29C163.381 1407.23 163.378 1407.18 163.371 1407.12C163.229 1405.83 161.279 1389.62 152.884 1380.07C152.259 1379.36 151.202 1379.26 150.42 1379.79C140.446 1386.6 135.137 1393.58 133.256 1404.79Z" fill="#328743" fill-opacity="0.5"/>
<path d="M146.096 1435.41C146.096 1435.41 131.265 1420.19 133.256 1404.79C135.137 1393.58 140.446 1386.6 150.42 1379.79C151.202 1379.26 152.259 1379.36 152.884 1380.07C161.279 1389.62 163.229 1405.83 163.371 1407.12C163.378 1407.18 163.381 1407.23 163.381 1407.29C163.529 1425.88 146.096 1435.41 146.096 1435.41ZM146.096 1435.41C145.114 1418.51 146.001 1411.45 149.456 1398.92" stroke="#589564" stroke-opacity="0.5" stroke-width="5"/>
<path d="M73.1057 1380.42C73.1057 1380.42 49.0497 1352.06 54.3733 1325.43C59.0919 1305.72 69.496 1294.11 88.3874 1283.25C89.2081 1282.78 90.2529 1282.95 90.8478 1283.69C105.179 1301.43 106.585 1331.34 106.658 1333.16C106.66 1333.22 106.659 1333.28 106.655 1333.34C104.721 1365.86 73.1057 1380.42 73.1057 1380.42ZM73.1057 1380.42C73.4205 1350.81 75.8175 1338.58 83.3522 1317.14" stroke="#589564" stroke-opacity="0.9" stroke-width="5"/>
<path d="M167.698 1101.04C149.15 1116.17 149.627 1148.94 149.627 1148.94C149.627 1148.94 179.286 1156.76 198.826 1135.73C198.867 1135.68 198.906 1135.64 198.942 1135.59C199.975 1134.23 215.611 1113.27 215.904 1093.27C215.918 1092.33 215.224 1091.53 214.29 1091.37C195.449 1088.22 181.908 1090.31 167.698 1101.04Z" fill="#328743" fill-opacity="0.5"/>
<path d="M149.627 1148.94C149.627 1148.94 149.15 1116.17 167.698 1101.04C181.908 1090.31 195.449 1088.22 214.29 1091.37C215.224 1091.53 215.918 1092.33 215.904 1093.27C215.611 1113.27 199.975 1134.23 198.942 1135.59C198.906 1135.64 198.867 1135.68 198.826 1135.73C179.286 1156.76 149.627 1148.94 149.627 1148.94ZM149.627 1148.94C166.433 1128.98 174.918 1122 192.06 1111.64" stroke="#589564" stroke-opacity="0.9" stroke-width="5"/>
<path d="M191.307 1261.1C179.02 1276.5 185.102 1302.77 185.102 1302.77C185.102 1302.77 210.306 1303.9 222.37 1283.6C222.4 1283.55 222.427 1283.5 222.452 1283.45C223.084 1282.09 231.862 1262.79 228.787 1246.75C228.609 1245.82 227.762 1245.19 226.816 1245.23C211.272 1246.01 200.813 1250.06 191.307 1261.1Z" fill="#328743" fill-opacity="0.5"/>
<path d="M185.102 1302.77C185.102 1302.77 179.02 1276.5 191.307 1261.1C200.813 1250.06 211.272 1246.01 226.817 1245.23C227.762 1245.19 228.609 1245.82 228.787 1246.75C231.862 1262.79 223.084 1282.09 222.452 1283.45C222.427 1283.5 222.4 1283.55 222.37 1283.6C210.306 1303.9 185.102 1302.77 185.102 1302.77ZM185.102 1302.77C195.149 1283.79 200.76 1276.7 212.746 1265.39" stroke="#589564" stroke-opacity="0.9" stroke-width="5"/>
<path d="M129.176 1273.64C120.291 1284.78 124.689 1303.77 124.689 1303.77C124.689 1303.77 142.895 1304.59 151.623 1289.93C151.654 1289.88 151.679 1289.84 151.704 1289.78C152.219 1288.67 158.328 1275.15 156.357 1263.71C156.196 1262.78 155.345 1262.14 154.4 1262.19C143.408 1262.81 135.957 1265.77 129.176 1273.64Z" fill="#328743" fill-opacity="0.5"/>
<path d="M124.689 1303.77C124.689 1303.77 120.291 1284.78 129.176 1273.64C135.957 1265.77 143.408 1262.81 154.4 1262.19C155.345 1262.14 156.196 1262.78 156.357 1263.71C158.328 1275.15 152.219 1288.67 151.704 1289.78C151.679 1289.84 151.654 1289.88 151.623 1289.93C142.895 1304.59 124.689 1303.77 124.689 1303.77ZM124.689 1303.77C131.954 1290.05 136.011 1284.92 144.678 1276.74" stroke="#589564" stroke-opacity="0.9" stroke-width="5"/>
<path d="M94.4855 1245.95C94.4855 1245.95 84.3365 1220.96 94.0418 1203.81C101.689 1191.42 111.378 1185.77 126.606 1182.55C127.532 1182.35 128.469 1182.85 128.792 1183.74C134.357 1199.09 128.731 1219.53 128.321 1220.97C128.305 1221.03 128.287 1221.08 128.264 1221.14C119.552 1243.08 94.4855 1245.95 94.4855 1245.95ZM94.4855 1245.95C101.414 1225.62 105.837 1217.73 115.889 1204.67" stroke="#589564" stroke-opacity="0.9" stroke-width="5"/>
<path d="M327.338 1154.52C336.254 1148.03 336.864 1132.94 336.864 1132.94C336.864 1132.94 323.451 1128.61 313.932 1137.74C313.888 1137.78 313.851 1137.82 313.813 1137.87C313.132 1138.68 306.072 1147.24 305.046 1156C304.936 1156.94 305.588 1157.78 306.515 1157.98C314.669 1159.67 320.758 1158.95 327.338 1154.52Z" fill="#21652F" fill-opacity="0.5"/>
<path d="M336.864 1132.94C336.864 1132.94 336.254 1148.03 327.338 1154.52C320.758 1158.95 314.669 1159.67 306.515 1157.98C305.588 1157.78 304.936 1156.94 305.046 1156C306.072 1147.24 313.132 1138.68 313.813 1137.87C313.851 1137.82 313.888 1137.78 313.932 1137.74C323.451 1128.61 336.864 1132.94 336.864 1132.94ZM336.864 1132.94C328.627 1141.7 324.547 1144.7 316.399 1149.03" stroke="#589564" stroke-opacity="0.5" stroke-width="5"/>
</svg>
