<svg width="1743" height="472" viewBox="0 0 1743 472" fill="none" xmlns="http://www.w3.org/2000/svg">
<rect width="1743" height="470" fill="#589564"/>
<path d="M62.6205 282.404C54.5291 217.772 99.9114 149.495 0 61V191.588V470H172.734H230.781H254C254 470 229.374 396.751 207.562 371.23C185.751 345.709 172.03 334.663 137.554 331.457C103.078 328.251 67.1434 318.531 62.6205 282.404Z" fill="#BDD684" fill-opacity="0.4"/>
<path d="M1743 31C1676.02 285.484 1473.1 245.12 1445 471.756H1743V31Z" fill="#BDD684" fill-opacity="0.4"/>
<path d="M185.483 460.29C185.483 460.29 181.752 438.095 195.036 426.216C205.239 417.755 215.786 415.143 231.021 415.607C231.953 415.635 232.742 416.315 232.846 417.241C234.35 430.642 224.348 445.77 223.563 446.933C223.528 446.985 223.494 447.029 223.452 447.078C209.973 463.016 185.483 460.29 185.483 460.29ZM185.483 460.29C196.881 445.284 202.952 439.814 215.599 431.296" stroke="#E2F0D6" stroke-opacity="0.5" stroke-width="5"/>
<path d="M41.7137 425.736C41.7137 425.736 36.1959 392.702 55.845 375.022C71.1052 362.288 86.8862 358.455 109.831 359.257C110.763 359.289 111.554 359.97 111.678 360.894C114.397 381.146 99.0358 404.378 98.0222 405.885C97.9866 405.938 97.9488 405.988 97.9078 406.037C77.9762 429.799 41.7137 425.736 41.7137 425.736ZM41.7137 425.736C58.5735 403.403 67.5539 395.261 86.2611 382.583" stroke="#E2F0D6" stroke-opacity="0.5" stroke-width="5"/>
<path d="M1457.75 395.431C1457.75 395.431 1451.93 360.333 1472.68 341.547C1488.82 328.001 1505.51 323.935 1529.8 324.8C1530.73 324.833 1531.52 325.514 1531.65 326.439C1534.58 347.995 1518.28 372.771 1517.23 374.343C1517.2 374.395 1517.16 374.447 1517.12 374.495C1496.06 399.748 1457.75 395.431 1457.75 395.431ZM1457.75 395.431C1475.56 371.702 1485.05 363.051 1504.81 349.581" stroke="#E2F0D6" stroke-opacity="0.5" stroke-width="5"/>
<path d="M1541.46 460.294C1541.46 460.294 1537.89 438.615 1550.62 427.013C1560.38 418.762 1570.47 416.205 1585.03 416.648C1585.97 416.677 1586.76 417.36 1586.86 418.288C1588.27 431.361 1578.72 446.099 1577.96 447.246C1577.92 447.299 1577.89 447.342 1577.85 447.391C1564.93 462.957 1541.46 460.294 1541.46 460.294ZM1541.46 460.294C1552.39 445.637 1558.2 440.295 1570.32 431.974" stroke="#E2F0D6" stroke-opacity="0.5" stroke-width="5"/>
<path d="M1433.41 225.31C1433.41 225.31 1430.23 205.696 1441.57 195.199C1450.23 187.768 1459.18 185.442 1472.07 185.816C1473 185.843 1473.8 186.529 1473.89 187.46C1475.06 199.226 1466.65 212.419 1465.94 213.498C1465.91 213.551 1465.88 213.595 1465.84 213.644C1454.32 227.719 1433.41 225.31 1433.41 225.31ZM1433.41 225.31C1443.15 212.05 1448.33 207.216 1459.14 199.688" stroke="#E2F0D6" stroke-opacity="0.5" stroke-width="5"/>
<path d="M1624.73 272.38C1624.73 272.38 1626.83 261.541 1619.35 255.74C1613.76 251.715 1607.99 250.4 1599.78 250.544C1598.86 250.56 1598.07 251.216 1598.02 252.131C1597.68 258.349 1602.68 265.047 1603.28 265.818C1603.32 265.87 1603.36 265.916 1603.4 265.963C1610.99 273.708 1624.73 272.38 1624.73 272.38ZM1624.73 272.38C1618.32 265.052 1614.9 262.381 1607.79 258.221" stroke="#E2F0D6" stroke-opacity="0.5" stroke-width="5"/>
<path d="M1648.63 401.743C1648.63 401.743 1643.74 372.322 1661.17 356.576C1674.67 345.268 1688.63 341.841 1708.9 342.528C1709.83 342.56 1710.62 343.241 1710.74 344.167C1713.04 362.136 1699.53 382.664 1698.6 384.057C1698.57 384.11 1698.53 384.157 1698.49 384.206C1680.8 405.36 1648.63 401.743 1648.63 401.743ZM1648.63 401.743C1663.59 381.852 1671.56 374.601 1688.16 363.309" stroke="#E2F0D6" stroke-opacity="0.5" stroke-width="5"/>
<path d="M1400.33 454.08C1400.33 454.08 1397.77 439.112 1406.9 431.101C1413.8 425.485 1420.94 423.69 1431.14 423.932C1432.07 423.955 1432.87 424.632 1432.94 425.559C1433.67 434.386 1427.16 444.125 1426.53 445.049C1426.49 445.102 1426.46 445.146 1426.42 445.194C1417.14 455.917 1400.33 454.08 1400.33 454.08ZM1400.33 454.08C1408.17 443.961 1412.34 440.272 1421.04 434.527" stroke="#E2F0D6" stroke-opacity="0.5" stroke-width="5"/>
<path d="M1538.84 110.467C1538.84 110.467 1560.47 115.905 1573.89 108.109C1583.38 102.134 1587.28 95.2048 1588.7 84.7582C1588.83 83.8102 1588.24 82.9393 1587.31 82.745C1574.15 80.0109 1557.93 85.0933 1556.71 85.485C1556.66 85.5022 1556.61 85.5203 1556.56 85.5423C1539.08 92.9587 1538.84 110.467 1538.84 110.467ZM1538.84 110.467C1555.14 104.39 1561.31 100.832 1571.31 93.054" stroke="#E2F0D6" stroke-opacity="0.5" stroke-width="5"/>
<path d="M1500.69 70.79C1500.69 70.79 1503.1 58.4023 1494.52 51.7723C1488.05 47.1351 1481.36 45.6456 1471.81 45.8386C1470.89 45.8571 1470.1 46.5115 1470.03 47.4248C1469.51 54.6276 1475.43 62.4767 1476.07 63.3034C1476.11 63.3553 1476.15 63.3989 1476.2 63.4457C1484.91 72.3086 1500.69 70.79 1500.69 70.79ZM1500.69 70.79C1493.33 62.415 1489.41 59.362 1481.24 54.6075" stroke="#E2F0D6" stroke-opacity="0.5" stroke-width="5"/>
<path d="M69.9882 296.493C69.9882 296.493 44.04 296.591 32.231 283.74C23.9808 274.032 22.3839 264.831 24.9094 252.175C25.0967 251.236 25.9431 250.543 26.9018 250.573C42.5743 251.071 58.7271 261.742 59.8691 262.509C59.9154 262.54 59.9562 262.571 59.9991 262.606C76.4483 276.18 69.9882 296.493 69.9882 296.493ZM69.9882 296.493C54.3389 284.805 48.8947 278.926 40.851 267.076" stroke="#E2F0D6" stroke-opacity="0.5" stroke-width="5"/>
<g style="mix-blend-mode:lighten">
<path d="M85.5474 221.382C85.5474 221.382 70.0245 221.44 62.9599 213.752C58.1667 208.112 57.1275 202.758 58.4555 195.518C58.6281 194.578 59.4775 193.883 60.4337 193.942C69.5014 194.5 78.6338 200.476 79.4702 201.035C79.5165 201.066 79.5551 201.096 79.598 201.131C89.4052 209.252 85.5474 221.382 85.5474 221.382ZM85.5474 221.382C76.1856 214.39 72.9287 210.873 68.1167 203.783" stroke="#E2F0D6" stroke-opacity="0.5" stroke-width="5"/>
</g>
<g style="mix-blend-mode:lighten">
<path d="M238.144 183.742C238.144 183.742 206.662 183.86 192.334 168.268C182.249 156.402 180.359 145.159 183.521 129.624C183.712 128.686 184.557 127.995 185.516 128.018C204.691 128.472 224.578 141.642 225.878 142.516C225.924 142.547 225.968 142.581 226.011 142.616C245.986 159.085 238.144 183.742 238.144 183.742ZM238.144 183.742C219.157 169.561 212.552 162.428 202.793 148.05" stroke="#E2F0D6" stroke-opacity="0.5" stroke-width="5"/>
</g>
<path d="M25.7041 154.861C25.7041 154.861 22.6235 142.094 29.7475 134.785C35.1037 129.692 40.8821 127.809 49.278 127.525C50.2112 127.493 51.0547 128.133 51.1815 129.059C52.2055 136.535 47.5227 145.007 47.0203 145.889C46.9891 145.944 46.958 145.991 46.9207 146.041C39.8484 155.679 25.7041 154.861 25.7041 154.861ZM25.7041 154.861C31.6132 145.796 34.8674 142.432 41.768 137.093" stroke="#E2F0D6" stroke-opacity="0.5" stroke-width="5"/>
<path d="M211.216 100.447C211.216 100.447 208.135 87.6803 215.259 80.3711C220.615 75.2782 226.394 73.3954 234.79 73.111C235.723 73.0794 236.566 73.719 236.693 74.6448C237.717 82.1212 233.034 90.5928 232.532 91.475C232.501 91.5298 232.47 91.5766 232.432 91.6274C225.36 101.265 211.216 100.447 211.216 100.447ZM211.216 100.447C217.125 91.382 220.379 88.0176 227.28 82.6789" stroke="#E2F0D6" stroke-opacity="0.5" stroke-width="5"/>
<path d="M185.021 316.579C185.021 316.579 171.523 305.845 172.584 294.275C173.719 285.912 177.946 280.506 186.136 275.06C186.925 274.535 188.056 274.589 188.762 275.231C196.209 282.005 198.56 293.683 198.759 294.73C198.769 294.786 198.775 294.835 198.778 294.892C199.694 308.746 185.021 316.579 185.021 316.579ZM185.021 316.579C183.443 304.016 183.906 298.706 186.359 289.219" stroke="#E2F0D6" stroke-opacity="0.5" stroke-width="5"/>
<path d="M321.517 278.56C321.517 278.56 325.248 256.882 311.964 245.279C301.76 237.014 291.212 234.463 275.974 234.917C275.045 234.945 274.255 235.62 274.15 236.544C272.666 249.62 282.644 264.367 283.436 265.512C283.472 265.565 283.507 265.609 283.549 265.657C297.028 281.224 321.517 278.56 321.517 278.56ZM321.517 278.56C310.119 263.904 304.048 258.561 291.401 250.241" stroke="#E2F0D6" stroke-opacity="0.5" stroke-width="5"/>
<path d="M610.175 220.867V318.199H598V101H610.175V208.649H700.815V101H712.99V318.199H700.815V220.867H610.175Z" fill="white"/>
<path d="M778.873 293.221C790.327 303.719 803.946 308.968 819.729 308.968C836.684 308.968 851.159 302.95 863.154 290.913C864.688 289.375 866.131 287.791 867.483 286.162L880.335 290.778C877.99 294.036 875.33 297.158 872.354 300.144C857.833 314.715 840.292 322 819.729 322C799.256 322 781.759 314.715 767.239 300.144C752.719 285.574 745.458 267.972 745.458 247.338C745.458 226.794 752.719 209.238 767.239 194.667C781.759 180.097 799.256 172.811 819.729 172.811C837.315 172.811 852.693 178.106 865.86 188.694C868.025 190.504 870.189 192.495 872.354 194.667C873.165 195.482 873.932 196.296 874.653 197.111L865.454 206.342L778.873 293.221ZM856.526 198.061C845.974 189.916 833.708 185.843 819.729 185.843C802.863 185.843 788.433 191.862 776.438 203.898C764.443 215.844 758.445 230.324 758.445 247.338C758.445 261.365 762.504 273.673 770.621 284.262L856.526 198.061Z" fill="white"/>
<path d="M912.939 184.893H925.114V209.192C927.639 205.572 930.57 202.088 933.907 198.74C944.64 187.97 955.643 182.314 966.916 181.771V195.074C959.25 195.436 951.314 199.735 943.107 207.971C931.562 219.464 925.565 233.265 925.114 249.374V318.199H912.939V184.893Z" fill="white"/>
<path d="M1137.51 318.199H1125.33V291.049C1122.99 294.217 1120.42 297.248 1117.62 300.144C1103.1 314.715 1085.56 322 1065 322C1044.52 322 1027.03 314.715 1012.51 300.144C997.986 285.574 990.726 268.017 990.726 247.474C990.726 226.84 997.986 209.238 1012.51 194.667C1027.03 180.097 1044.52 172.811 1065 172.811C1085.56 172.811 1103.1 180.097 1117.62 194.667C1120.42 197.563 1122.99 200.595 1125.33 203.762V184.893H1137.51V318.199ZM1125.33 259.555V235.392C1123.08 223.446 1117.44 212.948 1108.42 203.898C1096.43 191.862 1081.95 185.843 1065 185.843C1048.04 185.843 1033.57 191.862 1021.57 203.898C1009.58 215.934 1003.58 230.46 1003.58 247.474C1003.58 264.488 1009.58 279.013 1021.57 291.049C1033.57 302.995 1048.04 308.968 1065 308.968C1081.95 308.968 1096.43 302.95 1108.42 290.913C1117.44 281.863 1123.08 271.411 1125.33 259.555Z" fill="white"/>
<path d="M745.897 137.395C743.412 136.534 741.45 135.356 740.011 133.861C738.572 132.367 737.853 130.555 737.853 128.426C737.853 126.342 738.572 124.553 740.011 123.058C741.45 121.548 743.194 120.793 745.243 120.793C747.278 120.793 749.022 121.541 750.475 123.036C751.275 123.836 751.827 124.734 752.132 125.731L750.366 126.456C750.105 125.716 749.676 125.036 749.08 124.417C748.019 123.33 746.74 122.786 745.243 122.786C743.746 122.786 742.467 123.338 741.406 124.44C740.345 125.527 739.815 126.856 739.815 128.426C739.815 129.981 740.345 131.31 741.406 132.412C742.395 133.424 743.761 134.352 745.505 135.198C748.295 136.134 750.642 137.591 752.546 139.569C754.566 141.652 755.577 144.174 755.577 147.133C755.577 150.108 754.566 152.644 752.546 154.743C750.526 156.842 748.092 157.891 745.243 157.891C742.395 157.891 739.96 156.834 737.94 154.72C736.327 153.044 735.36 151.097 735.041 148.877L736.894 148.175C737.097 150.138 737.904 151.852 739.313 153.316C740.956 155.022 742.932 155.875 745.243 155.875C747.569 155.875 749.552 155.022 751.195 153.316C752.837 151.61 753.658 149.549 753.658 147.133C753.658 144.733 752.837 142.679 751.195 140.973C749.756 139.478 747.99 138.285 745.897 137.395Z" fill="white"/>
<path d="M783.045 157.461H781.083V152.931C780.705 153.46 780.291 153.966 779.84 154.449C777.501 156.88 774.674 158.095 771.36 158.095C768.061 158.095 765.241 156.88 762.902 154.449C760.562 152.018 759.392 149.089 759.392 145.661C759.392 142.219 760.562 139.282 762.902 136.851C765.241 134.42 768.061 133.205 771.36 133.205C774.674 133.205 777.501 134.42 779.84 136.851C780.291 137.334 780.705 137.84 781.083 138.368V135.22H783.045V157.461ZM781.083 147.677V143.645C780.72 141.652 779.811 139.901 778.358 138.391C776.425 136.383 774.092 135.379 771.36 135.379C768.628 135.379 766.295 136.383 764.362 138.391C762.429 140.399 761.463 142.823 761.463 145.661C761.463 148.5 762.429 150.923 764.362 152.931C766.295 154.924 768.628 155.921 771.36 155.921C774.092 155.921 776.425 154.917 778.358 152.909C779.811 151.399 780.72 149.655 781.083 147.677Z" fill="white"/>
<path d="M789.716 121.224H791.678V138.346C792.041 137.832 792.456 137.334 792.921 136.851C795.261 134.42 798.08 133.205 801.379 133.205C804.693 133.205 807.512 134.42 809.838 136.851C812.178 139.282 813.348 142.219 813.348 145.661C813.348 149.089 812.178 152.018 809.838 154.449C807.512 156.88 804.693 158.095 801.379 158.095C798.08 158.095 795.261 156.88 792.921 154.449C792.456 153.966 792.041 153.467 791.678 152.954V157.461H789.716V121.224ZM791.678 143.532V147.79C792.056 149.723 792.957 151.429 794.381 152.909C796.314 154.917 798.647 155.921 801.379 155.921C804.112 155.921 806.444 154.924 808.377 152.931C810.31 150.923 811.277 148.5 811.277 145.661C811.277 142.823 810.31 140.399 808.377 138.391C806.444 136.383 804.112 135.379 801.379 135.379C798.647 135.379 796.314 136.383 794.381 138.391C792.957 139.871 792.056 141.584 791.678 143.532Z" fill="white"/>
<path d="M830.025 133.205C833.339 133.205 836.158 134.42 838.484 136.851C840.824 139.282 841.994 142.219 841.994 145.661C841.994 149.089 840.824 152.018 838.484 154.449C836.158 156.88 833.339 158.095 830.025 158.095C826.726 158.095 823.906 156.88 821.567 154.449C819.227 152.018 818.057 149.089 818.057 145.661C818.057 142.219 819.227 139.282 821.567 136.851C823.906 134.42 826.726 133.205 830.025 133.205ZM830.025 135.379C827.293 135.379 824.96 136.383 823.027 138.391C821.094 140.399 820.128 142.823 820.128 145.661C820.128 148.5 821.094 150.923 823.027 152.931C824.96 154.924 827.293 155.921 830.025 155.921C832.757 155.921 835.09 154.924 837.023 152.931C838.956 150.923 839.922 148.5 839.922 145.661C839.922 142.823 838.956 140.399 837.023 138.391C835.09 136.383 832.757 135.379 830.025 135.379Z" fill="white"/>
<path d="M849.188 140.18V157.461H847.226V135.22H849.188V136.647C850.975 134.805 853.054 133.884 855.423 133.884C857.951 133.884 860.008 134.707 861.592 136.353C863.176 137.999 863.99 140.075 864.034 142.581V157.461H862.072V142.762C862.072 140.875 861.41 139.267 860.088 137.938C858.78 136.594 857.225 135.922 855.423 135.922C853.62 135.922 852.065 136.579 850.757 137.893C850.045 138.633 849.522 139.395 849.188 140.18Z" fill="white"/>
<path d="M874.672 153.294C876.518 155.045 878.713 155.921 881.256 155.921C883.988 155.921 886.321 154.917 888.254 152.909C888.501 152.652 888.734 152.388 888.952 152.116L891.023 152.886C890.645 153.429 890.216 153.95 889.737 154.449C887.397 156.88 884.57 158.095 881.256 158.095C877.957 158.095 875.137 156.88 872.798 154.449C870.458 152.018 869.288 149.081 869.288 145.639C869.288 142.211 870.458 139.282 872.798 136.851C875.137 134.42 877.957 133.205 881.256 133.205C884.09 133.205 886.568 134.088 888.69 135.855C889.039 136.156 889.388 136.489 889.737 136.851C889.867 136.987 889.991 137.123 890.107 137.259L888.625 138.799L874.672 153.294ZM887.186 137.417C885.485 136.058 883.509 135.379 881.256 135.379C878.538 135.379 876.213 136.383 874.28 138.391C872.347 140.384 871.381 142.8 871.381 145.639C871.381 147.979 872.035 150.032 873.343 151.799L887.186 137.417Z" fill="white"/>
<path d="M899.329 135.22V125.753H901.291V135.22H905.651V137.259H901.291V157.461H899.329V137.259H894.969V135.22H899.329Z" fill="white"/>
<path d="M914.96 153.294C916.805 155.045 919 155.921 921.543 155.921C924.276 155.921 926.608 154.917 928.541 152.909C928.788 152.652 929.021 152.388 929.239 152.116L931.31 152.886C930.932 153.429 930.503 153.95 930.024 154.449C927.684 156.88 924.857 158.095 921.543 158.095C918.244 158.095 915.425 156.88 913.085 154.449C910.745 152.018 909.575 149.081 909.575 145.639C909.575 142.211 910.745 139.282 913.085 136.851C915.425 134.42 918.244 133.205 921.543 133.205C924.377 133.205 926.855 134.088 928.977 135.855C929.326 136.156 929.675 136.489 930.024 136.851C930.155 136.987 930.278 137.123 930.394 137.259L928.912 138.799L914.96 153.294ZM927.473 137.417C925.773 136.058 923.796 135.379 921.543 135.379C918.826 135.379 916.5 136.383 914.567 138.391C912.634 140.384 911.668 142.8 911.668 145.639C911.668 147.979 912.322 150.032 913.63 151.799L927.473 137.417Z" fill="white"/>
<path d="M975.107 157.461H973.145V152.931C972.767 153.46 972.353 153.966 971.902 154.449C969.563 156.88 966.736 158.095 963.422 158.095C960.123 158.095 957.303 156.88 954.963 154.449C952.624 152.018 951.454 149.089 951.454 145.661C951.454 142.219 952.624 139.282 954.963 136.851C957.303 134.42 960.123 133.205 963.422 133.205C966.736 133.205 969.563 134.42 971.902 136.851C972.353 137.334 972.767 137.84 973.145 138.368V135.22H975.107V157.461ZM973.145 147.677V143.645C972.782 141.652 971.873 139.901 970.42 138.391C968.487 136.383 966.154 135.379 963.422 135.379C960.69 135.379 958.357 136.383 956.424 138.391C954.491 140.399 953.525 142.823 953.525 145.661C953.525 148.5 954.491 150.923 956.424 152.931C958.357 154.924 960.69 155.921 963.422 155.921C966.154 155.921 968.487 154.917 970.42 152.909C971.873 151.399 972.782 149.655 973.145 147.677Z" fill="white"/>
<path d="M981.647 135.22H983.609V139.274C984.016 138.67 984.489 138.089 985.026 137.53C986.756 135.734 988.529 134.79 990.346 134.699V136.919C989.11 136.979 987.831 137.697 986.509 139.071C984.648 140.988 983.682 143.291 983.609 145.978V157.461H981.647V135.22Z" fill="white"/>
<path d="M998.652 135.22V125.753H1000.61V135.22H1004.97V137.259H1000.61V157.461H998.652V137.259H994.291V135.22H998.652Z" fill="white"/>
<path d="M1014.28 153.294C1016.13 155.045 1018.32 155.921 1020.87 155.921C1023.6 155.921 1025.93 154.917 1027.86 152.909C1028.11 152.652 1028.34 152.388 1028.56 152.116L1030.63 152.886C1030.25 153.429 1029.83 153.95 1029.35 154.449C1027.01 156.88 1024.18 158.095 1020.87 158.095C1017.57 158.095 1014.75 156.88 1012.41 154.449C1010.07 152.018 1008.9 149.081 1008.9 145.639C1008.9 142.211 1010.07 139.282 1012.41 136.851C1014.75 134.42 1017.57 133.205 1020.87 133.205C1023.7 133.205 1026.18 134.088 1028.3 135.855C1028.65 136.156 1029 136.489 1029.35 136.851C1029.48 136.987 1029.6 137.123 1029.72 137.259L1028.23 138.799L1014.28 153.294ZM1026.8 137.417C1025.1 136.058 1023.12 135.379 1020.87 135.379C1018.15 135.379 1015.82 136.383 1013.89 138.391C1011.96 140.384 1010.99 142.8 1010.99 145.639C1010.99 147.979 1011.64 150.032 1012.95 151.799L1026.8 137.417Z" fill="white"/>
<path d="M1041.77 146.024C1040.1 145.087 1038.95 144.287 1038.31 143.623C1037.3 142.581 1036.8 141.328 1036.8 139.863C1036.8 138.384 1037.3 137.123 1038.31 136.081C1039.31 135.024 1040.52 134.496 1041.93 134.496C1043.35 134.496 1044.53 134.979 1045.46 135.945C1046.36 136.896 1046.81 137.976 1046.81 139.184V139.297L1045.11 139.999C1044.96 138.852 1044.61 137.991 1044.06 137.417C1043.52 136.843 1042.81 136.557 1041.93 136.557C1041.05 136.557 1040.3 136.881 1039.68 137.53C1039.06 138.165 1038.74 138.942 1038.74 139.863C1038.74 140.769 1039.06 141.547 1039.68 142.196C1040.04 142.573 1040.81 143.147 1041.99 143.917C1043.85 144.974 1045.17 145.91 1045.96 146.726C1047.19 148.024 1047.81 149.572 1047.81 151.369C1047.81 153.211 1047.19 154.781 1045.96 156.079C1044.72 157.363 1043.23 158.004 1041.47 158.004C1039.71 158.004 1038.21 157.363 1036.98 156.079C1035.74 154.781 1035.12 153.362 1035.12 151.821L1037.06 151.301C1037.06 152.629 1037.49 153.739 1038.35 154.63C1039.22 155.521 1040.26 155.966 1041.47 155.966C1042.67 155.966 1043.71 155.521 1044.56 154.63C1045.44 153.739 1045.87 152.652 1045.87 151.369C1045.87 150.115 1045.44 149.043 1044.59 148.152C1044.12 147.669 1043.18 146.96 1041.77 146.024Z" fill="white"/>
<path d="M1076.48 157.461H1074.52V152.931C1074.14 153.46 1073.73 153.966 1073.27 154.449C1070.93 156.88 1068.11 158.095 1064.79 158.095C1061.49 158.095 1058.68 156.88 1056.34 154.449C1054 152.018 1052.83 149.089 1052.83 145.661C1052.83 142.219 1054 139.282 1056.34 136.851C1058.68 134.42 1061.49 133.205 1064.79 133.205C1068.11 133.205 1070.93 134.42 1073.27 136.851C1073.73 137.334 1074.14 137.84 1074.52 138.368V135.22H1076.48V157.461ZM1074.52 147.677V143.645C1074.15 141.652 1073.25 139.901 1071.79 138.391C1069.86 136.383 1067.53 135.379 1064.79 135.379C1062.06 135.379 1059.73 136.383 1057.8 138.391C1055.86 140.399 1054.9 142.823 1054.9 145.661C1054.9 148.5 1055.86 150.923 1057.8 152.931C1059.73 154.924 1062.06 155.921 1064.79 155.921C1067.53 155.921 1069.86 154.917 1071.79 152.909C1073.25 151.399 1074.15 149.655 1074.52 147.677Z" fill="white"/>
<path d="M1084.98 140.18V157.461H1083.02V135.22H1084.98V136.647C1086.77 134.805 1088.85 133.884 1091.22 133.884C1093.75 133.884 1095.8 134.707 1097.39 136.353C1098.97 137.999 1099.78 140.075 1099.83 142.581V157.461H1097.87V142.762C1097.87 140.875 1097.2 139.267 1095.88 137.938C1094.57 136.594 1093.02 135.922 1091.22 135.922C1089.41 135.922 1087.86 136.579 1086.55 137.893C1085.84 138.633 1085.32 139.395 1084.98 140.18Z" fill="white"/>
<path d="M1129.5 157.461H1127.54V152.931C1127.16 153.46 1126.74 153.966 1126.29 154.449C1123.95 156.88 1121.13 158.095 1117.81 158.095C1114.51 158.095 1111.69 156.88 1109.35 154.449C1107.01 152.018 1105.84 149.089 1105.84 145.661C1105.84 142.219 1107.01 139.282 1109.35 136.851C1111.69 134.42 1114.51 133.205 1117.81 133.205C1121.13 133.205 1123.95 134.42 1126.29 136.851C1126.74 137.334 1127.16 137.84 1127.54 138.368V135.22H1129.5V157.461ZM1127.54 147.677V143.645C1127.17 141.652 1126.26 139.901 1124.81 138.391C1122.88 136.383 1120.55 135.379 1117.81 135.379C1115.08 135.379 1112.75 136.383 1110.81 138.391C1108.88 140.399 1107.92 142.823 1107.92 145.661C1107.92 148.5 1108.88 150.923 1110.81 152.931C1112.75 154.924 1115.08 155.921 1117.81 155.921C1120.55 155.921 1122.88 154.917 1124.81 152.909C1126.26 151.399 1127.17 149.655 1127.54 147.677Z" fill="white"/>
<path d="M1138 121.224V157.461H1136.04V121.224H1138Z" fill="white"/>
<path d="M606.656 367.978C605.273 367.514 604.15 366.855 603.287 366C602.433 365.138 602.005 364.072 602.005 362.802C602.005 361.557 602.449 360.487 603.336 359.592C604.231 358.697 605.313 358.249 606.583 358.249C607.836 358.249 608.91 358.693 609.806 359.58C610.31 360.068 610.733 360.845 611.075 361.911L608.78 362.814C608.504 362.066 608.251 361.577 608.023 361.35C607.625 360.959 607.145 360.764 606.583 360.764C606.013 360.764 605.529 360.963 605.13 361.362C604.732 361.752 604.532 362.233 604.532 362.802C604.532 363.372 604.732 363.856 605.13 364.255C605.578 364.694 606.196 365.097 606.986 365.463C608.516 365.96 609.814 366.741 610.88 367.807C612.076 368.987 612.674 370.419 612.674 372.104C612.674 373.789 612.076 375.229 610.88 376.425C609.692 377.613 608.259 378.208 606.583 378.208C604.898 378.208 603.462 377.609 602.274 376.413C601.322 375.461 600.72 374.147 600.467 372.47L602.921 371.579C603.076 373.02 603.454 374.041 604.056 374.643C604.756 375.343 605.598 375.693 606.583 375.693C607.568 375.693 608.41 375.343 609.11 374.643C609.81 373.943 610.16 373.097 610.16 372.104C610.16 371.119 609.81 370.277 609.11 369.577C608.443 368.91 607.625 368.377 606.656 367.978ZM626.029 372.312V370.456C625.882 369.667 625.492 368.951 624.857 368.308C624.002 367.461 622.977 367.038 621.781 367.038C620.576 367.038 619.547 367.461 618.692 368.308C617.846 369.154 617.423 370.179 617.423 371.384C617.423 372.58 617.846 373.605 618.692 374.46C619.547 375.306 620.576 375.729 621.781 375.729C622.977 375.729 624.002 375.306 624.857 374.46C625.492 373.817 625.882 373.101 626.029 372.312ZM626.029 366.318V365.439H628.568V378.012H626.029V376.438C624.808 377.699 623.392 378.33 621.781 378.33C619.86 378.33 618.22 377.654 616.861 376.303C615.51 374.944 614.835 373.304 614.835 371.384C614.835 369.463 615.51 367.827 616.861 366.477C618.22 365.118 619.86 364.438 621.781 364.438C623.392 364.438 624.808 365.065 626.029 366.318ZM634.854 370.395V372.36C635.009 373.125 635.4 373.821 636.026 374.448C636.881 375.294 637.91 375.717 639.115 375.717C640.319 375.717 641.345 375.294 642.191 374.448C643.045 373.601 643.473 372.576 643.473 371.372C643.473 370.175 643.045 369.15 642.191 368.295C641.345 367.441 640.319 367.014 639.115 367.014C637.91 367.014 636.881 367.441 636.026 368.295C635.4 368.922 635.009 369.622 634.854 370.395ZM634.854 376.438V378H632.328V358.469H634.854V366.306C636.075 365.044 637.495 364.414 639.115 364.414C641.035 364.414 642.671 365.093 644.022 366.452C645.381 367.811 646.061 369.451 646.061 371.372C646.061 373.292 645.381 374.932 644.022 376.291C642.671 377.65 641.035 378.33 639.115 378.33C637.495 378.33 636.075 377.699 634.854 376.438ZM655.631 364.414C657.551 364.414 659.187 365.093 660.538 366.452C661.897 367.811 662.577 369.451 662.577 371.372C662.577 373.292 661.897 374.932 660.538 376.291C659.187 377.65 657.551 378.33 655.631 378.33C653.718 378.33 652.083 377.65 650.724 376.291C649.365 374.932 648.685 373.292 648.685 371.372C648.685 369.451 649.365 367.811 650.724 366.452C652.083 365.093 653.718 364.414 655.631 364.414ZM655.631 367.014C654.426 367.014 653.397 367.441 652.542 368.295C651.696 369.15 651.273 370.175 651.273 371.372C651.273 372.576 651.696 373.601 652.542 374.448C653.397 375.294 654.426 375.717 655.631 375.717C656.835 375.717 657.861 375.294 658.707 374.448C659.562 373.601 659.989 372.576 659.989 371.372C659.989 370.175 659.562 369.15 658.707 368.295C657.861 367.441 656.835 367.014 655.631 367.014ZM668.045 368.808V378H665.506V365.439H668.045V366.904C668.574 365.472 669.636 364.755 671.231 364.755C672.59 364.755 673.669 365.24 674.466 366.208C675.272 367.168 675.687 368.377 675.711 369.833V378H673.185V369.931C673.185 369.207 672.92 368.588 672.391 368.076C671.862 367.555 671.231 367.294 670.499 367.294C669.775 367.294 669.148 367.547 668.619 368.051C668.326 368.352 668.135 368.605 668.045 368.808ZM683.329 375.156C683.752 375.53 684.521 375.717 685.636 375.717C686.84 375.717 687.87 375.294 688.724 374.448C688.83 374.334 689.046 374.082 689.371 373.691L691.898 374.594C691.279 375.449 690.832 376.014 690.555 376.291C689.196 377.65 687.556 378.33 685.636 378.33C683.723 378.33 682.088 377.65 680.729 376.291C679.369 374.932 678.69 373.292 678.69 371.372C678.69 369.451 679.369 367.811 680.729 366.452C682.088 365.093 683.723 364.414 685.636 364.414C687.28 364.414 688.72 364.91 689.957 365.903C690.16 366.074 690.36 366.257 690.555 366.452C690.637 366.534 690.868 366.79 691.251 367.221L689.981 368.503L683.329 375.156ZM687.552 367.343C687.267 367.124 686.629 367.014 685.636 367.014C684.439 367.014 683.414 367.441 682.56 368.295C681.713 369.142 681.29 370.167 681.29 371.372C681.29 372.356 681.4 372.995 681.62 373.288L687.552 367.343ZM696.354 365.439V360.727H698.88V365.439H701.139V367.966H698.88V378H696.354V367.966H694.095V365.439H696.354ZM707.987 375.156C708.41 375.53 709.179 375.717 710.294 375.717C711.498 375.717 712.528 375.294 713.382 374.448C713.488 374.334 713.704 374.082 714.029 373.691L716.556 374.594C715.938 375.449 715.49 376.014 715.213 376.291C713.854 377.65 712.215 378.33 710.294 378.33C708.382 378.33 706.746 377.65 705.387 376.291C704.028 374.932 703.348 373.292 703.348 371.372C703.348 369.451 704.028 367.811 705.387 366.452C706.746 365.093 708.382 364.414 710.294 364.414C711.938 364.414 713.378 364.91 714.615 365.903C714.819 366.074 715.018 366.257 715.213 366.452C715.295 366.534 715.527 366.79 715.909 367.221L714.64 368.503L707.987 375.156ZM712.21 367.343C711.926 367.124 711.287 367.014 710.294 367.014C709.098 367.014 708.072 367.441 707.218 368.295C706.371 369.142 705.948 370.167 705.948 371.372C705.948 372.356 706.058 372.995 706.278 373.288L712.21 367.343ZM721.683 374.509C721.756 374.883 721.87 375.148 722.025 375.302C722.326 375.595 722.684 375.742 723.099 375.742C723.514 375.742 723.868 375.595 724.161 375.302C724.462 375.009 724.613 374.647 724.613 374.216C724.613 373.801 724.466 373.447 724.173 373.154C723.97 372.95 723.535 372.637 722.867 372.214C721.956 371.717 721.309 371.278 720.926 370.896C720.259 370.228 719.925 369.427 719.925 368.491C719.925 367.547 720.259 366.741 720.926 366.074C721.594 365.398 722.399 365.061 723.343 365.061C724.287 365.061 725.073 365.378 725.699 366.013C726.147 366.46 726.432 366.961 726.554 367.514L724.1 368.222C724.043 368.019 723.986 367.884 723.929 367.819C723.783 367.673 723.587 367.6 723.343 367.6C723.099 367.6 722.888 367.689 722.708 367.868C722.538 368.039 722.452 368.247 722.452 368.491C722.452 368.735 722.538 368.942 722.708 369.113C722.863 369.26 723.213 369.508 723.758 369.858C724.767 370.411 725.5 370.916 725.956 371.372C726.745 372.169 727.14 373.117 727.14 374.216C727.14 375.339 726.745 376.299 725.956 377.097C725.174 377.886 724.222 378.281 723.099 378.281C721.984 378.281 721.032 377.882 720.243 377.084C719.697 376.539 719.339 375.86 719.168 375.046L721.683 374.509ZM732.865 374.606L730.045 380.466H727.64L729.203 374.606H732.865ZM748.673 367.978C747.289 367.514 746.166 366.855 745.304 366C744.449 365.138 744.022 364.072 744.022 362.802C744.022 361.557 744.465 360.487 745.353 359.592C746.248 358.697 747.33 358.249 748.6 358.249C749.853 358.249 750.927 358.693 751.822 359.58C752.327 360.068 752.75 360.845 753.092 361.911L750.797 362.814C750.52 362.066 750.268 361.577 750.04 361.35C749.641 360.959 749.161 360.764 748.6 360.764C748.03 360.764 747.546 360.963 747.147 361.362C746.748 361.752 746.549 362.233 746.549 362.802C746.549 363.372 746.748 363.856 747.147 364.255C747.595 364.694 748.213 365.097 749.002 365.463C750.532 365.96 751.83 366.741 752.896 367.807C754.093 368.987 754.691 370.419 754.691 372.104C754.691 373.789 754.093 375.229 752.896 376.425C751.708 377.613 750.276 378.208 748.6 378.208C746.915 378.208 745.479 377.609 744.291 376.413C743.338 375.461 742.736 374.147 742.484 372.47L744.938 371.579C745.092 373.02 745.471 374.041 746.073 374.643C746.773 375.343 747.615 375.693 748.6 375.693C749.584 375.693 750.427 375.343 751.126 374.643C751.826 373.943 752.176 373.097 752.176 372.104C752.176 371.119 751.826 370.277 751.126 369.577C750.459 368.91 749.641 368.377 748.673 367.978ZM757.157 358.469H759.696V366.794C760.404 365.435 761.429 364.755 762.772 364.755C764.115 364.755 765.185 365.24 765.982 366.208C766.788 367.168 767.203 368.377 767.228 369.833V378H764.701V369.931C764.701 369.207 764.493 368.588 764.078 368.076C763.671 367.555 763.024 367.294 762.137 367.294C761.087 367.294 760.274 367.856 759.696 368.979V378H757.157V358.469ZM781.791 372.312V370.456C781.644 369.667 781.253 368.951 780.619 368.308C779.764 367.461 778.739 367.038 777.542 367.038C776.338 367.038 775.309 367.461 774.454 368.308C773.608 369.154 773.185 370.179 773.185 371.384C773.185 372.58 773.608 373.605 774.454 374.46C775.309 375.306 776.338 375.729 777.542 375.729C778.739 375.729 779.764 375.306 780.619 374.46C781.253 373.817 781.644 373.101 781.791 372.312ZM781.791 366.318V365.439H784.33V378.012H781.791V376.438C780.57 377.699 779.154 378.33 777.542 378.33C775.622 378.33 773.982 377.654 772.623 376.303C771.272 374.944 770.597 373.304 770.597 371.384C770.597 369.463 771.272 367.827 772.623 366.477C773.982 365.118 775.622 364.438 777.542 364.438C779.154 364.438 780.57 365.065 781.791 366.318ZM788.016 365.439H790.543V366.611C791.031 365.382 791.971 364.768 793.363 364.768C794.746 364.768 795.523 365.467 795.694 366.867C796.093 365.467 797.192 364.768 798.99 364.768C800.764 364.768 801.651 365.846 801.651 368.002V378H799.112V369.162C799.112 367.925 798.612 367.307 797.611 367.307C797.196 367.307 796.838 367.453 796.537 367.746C796.236 368.039 796.085 369.024 796.085 370.7V378H793.558L793.57 369.162C793.57 367.925 793.066 367.307 792.057 367.307C791.642 367.307 791.284 367.453 790.982 367.746C790.722 367.998 790.576 368.666 790.543 369.748V378H788.016V365.439ZM807.853 370.395V372.36C808.007 373.133 808.402 373.833 809.037 374.46C809.883 375.306 810.908 375.729 812.113 375.729C813.317 375.729 814.343 375.306 815.189 374.46C816.043 373.605 816.471 372.576 816.471 371.372C816.471 370.175 816.043 369.15 815.189 368.295C814.343 367.441 813.317 367.014 812.113 367.014C810.908 367.014 809.883 367.441 809.037 368.295C808.402 368.922 808.007 369.622 807.853 370.395ZM807.853 376.438V382.224H805.326V365.439H807.853V366.574C809.073 365.142 810.493 364.426 812.113 364.426C814.033 364.426 815.669 365.105 817.02 366.464C818.379 367.815 819.059 369.451 819.059 371.372C819.059 373.292 818.379 374.932 817.02 376.291C815.669 377.65 814.033 378.33 812.113 378.33C810.493 378.33 809.073 377.699 807.853 376.438ZM828.336 364.414C830.257 364.414 831.892 365.093 833.243 366.452C834.602 367.811 835.282 369.451 835.282 371.372C835.282 373.292 834.602 374.932 833.243 376.291C831.892 377.65 830.257 378.33 828.336 378.33C826.424 378.33 824.788 377.65 823.429 376.291C822.07 374.932 821.39 373.292 821.39 371.372C821.39 369.451 822.07 367.811 823.429 366.452C824.788 365.093 826.424 364.414 828.336 364.414ZM828.336 367.014C827.132 367.014 826.102 367.441 825.248 368.295C824.401 369.15 823.978 370.175 823.978 371.372C823.978 372.576 824.401 373.601 825.248 374.448C826.102 375.294 827.132 375.717 828.336 375.717C829.54 375.717 830.566 375.294 831.412 374.448C832.267 373.601 832.694 372.576 832.694 371.372C832.694 370.175 832.267 369.15 831.412 368.295C830.566 367.441 829.54 367.014 828.336 367.014ZM844.425 364.414C846.345 364.414 847.981 365.093 849.332 366.452C850.691 367.811 851.371 369.451 851.371 371.372C851.371 373.292 850.691 374.932 849.332 376.291C847.981 377.65 846.345 378.33 844.425 378.33C842.512 378.33 840.877 377.65 839.518 376.291C838.159 374.932 837.479 373.292 837.479 371.372C837.479 369.451 838.159 367.811 839.518 366.452C840.877 365.093 842.512 364.414 844.425 364.414ZM844.425 367.014C843.22 367.014 842.191 367.441 841.336 368.295C840.49 369.15 840.067 370.175 840.067 371.372C840.067 372.576 840.49 373.601 841.336 374.448C842.191 375.294 843.22 375.717 844.425 375.717C845.629 375.717 846.655 375.294 847.501 374.448C848.355 373.601 848.783 372.576 848.783 371.372C848.783 370.175 848.355 369.15 847.501 368.295C846.655 367.441 845.629 367.014 844.425 367.014ZM856.498 374.509C856.571 374.883 856.685 375.148 856.839 375.302C857.14 375.595 857.499 375.742 857.914 375.742C858.329 375.742 858.683 375.595 858.976 375.302C859.277 375.009 859.427 374.647 859.427 374.216C859.427 373.801 859.281 373.447 858.988 373.154C858.784 372.95 858.349 372.637 857.682 372.214C856.77 371.717 856.123 371.278 855.741 370.896C855.073 370.228 854.74 369.427 854.74 368.491C854.74 367.547 855.073 366.741 855.741 366.074C856.408 365.398 857.214 365.061 858.158 365.061C859.102 365.061 859.887 365.378 860.514 366.013C860.961 366.46 861.246 366.961 861.368 367.514L858.915 368.222C858.858 368.019 858.801 367.884 858.744 367.819C858.597 367.673 858.402 367.6 858.158 367.6C857.914 367.6 857.702 367.689 857.523 367.868C857.352 368.039 857.267 368.247 857.267 368.491C857.267 368.735 857.352 368.942 857.523 369.113C857.678 369.26 858.028 369.508 858.573 369.858C859.582 370.411 860.314 370.916 860.77 371.372C861.559 372.169 861.954 373.117 861.954 374.216C861.954 375.339 861.559 376.299 860.77 377.097C859.989 377.886 859.037 378.281 857.914 378.281C856.799 378.281 855.847 377.882 855.057 377.084C854.512 376.539 854.154 375.86 853.983 375.046L856.498 374.509ZM867.679 374.606L864.859 380.466H862.455L864.017 374.606H867.679ZM893.631 373.349L895.523 375.046C893.212 377.154 890.767 378.208 888.187 378.208C885.428 378.208 883.076 377.235 881.131 375.29C879.186 373.345 878.214 370.993 878.214 368.234C878.214 365.484 879.186 363.132 881.131 361.179C883.076 359.226 885.428 358.249 888.187 358.249C890.767 358.249 893.212 359.303 895.523 361.411L893.631 363.132C891.89 361.586 890.075 360.812 888.187 360.812C886.144 360.812 884.395 361.537 882.938 362.985C881.489 364.434 880.765 366.184 880.765 368.234C880.765 370.293 881.489 372.047 882.938 373.496C884.395 374.944 886.144 375.668 888.187 375.668C890.075 375.668 891.89 374.895 893.631 373.349ZM901.09 367.136C902.034 365.858 903.194 365.187 904.569 365.122V367.746C903.649 367.795 902.917 368.092 902.372 368.637C901.55 369.451 901.122 370.419 901.09 371.542V378H898.563V365.439H901.09V367.136ZM910.892 375.156C911.315 375.53 912.084 375.717 913.199 375.717C914.404 375.717 915.433 375.294 916.288 374.448C916.393 374.334 916.609 374.082 916.935 373.691L919.461 374.594C918.843 375.449 918.395 376.014 918.119 376.291C916.76 377.65 915.12 378.33 913.199 378.33C911.287 378.33 909.651 377.65 908.292 376.291C906.933 374.932 906.253 373.292 906.253 371.372C906.253 369.451 906.933 367.811 908.292 366.452C909.651 365.093 911.287 364.414 913.199 364.414C914.843 364.414 916.284 364.91 917.521 365.903C917.724 366.074 917.923 366.257 918.119 366.452C918.2 366.534 918.432 366.79 918.814 367.221L917.545 368.503L910.892 375.156ZM915.116 367.343C914.831 367.124 914.192 367.014 913.199 367.014C912.003 367.014 910.978 367.441 910.123 368.295C909.277 369.142 908.854 370.167 908.854 371.372C908.854 372.356 908.963 372.995 909.183 373.288L915.116 367.343ZM922.391 365.439H924.918V366.611C925.406 365.382 926.346 364.768 927.738 364.768C929.121 364.768 929.898 365.467 930.069 366.867C930.468 365.467 931.567 364.768 933.365 364.768C935.139 364.768 936.026 365.846 936.026 368.002V378H933.487V369.162C933.487 367.925 932.987 367.307 931.986 367.307C931.571 367.307 931.213 367.453 930.912 367.746C930.611 368.039 930.46 369.024 930.46 370.7V378H927.933L927.945 369.162C927.945 367.925 927.441 367.307 926.432 367.307C926.017 367.307 925.659 367.453 925.357 367.746C925.097 367.998 924.951 368.666 924.918 369.748V378H922.391V365.439ZM943.607 375.156C944.03 375.53 944.799 375.717 945.914 375.717C947.118 375.717 948.148 375.294 949.002 374.448C949.108 374.334 949.324 374.082 949.649 373.691L952.176 374.594C951.558 375.449 951.11 376.014 950.833 376.291C949.474 377.65 947.835 378.33 945.914 378.33C944.002 378.33 942.366 377.65 941.007 376.291C939.648 374.932 938.968 373.292 938.968 371.372C938.968 369.451 939.648 367.811 941.007 366.452C942.366 365.093 944.002 364.414 945.914 364.414C947.558 364.414 948.998 364.91 950.235 365.903C950.439 366.074 950.638 366.257 950.833 366.452C950.915 366.534 951.147 366.79 951.529 367.221L950.26 368.503L943.607 375.156ZM947.831 367.343C947.546 367.124 946.907 367.014 945.914 367.014C944.718 367.014 943.692 367.441 942.838 368.295C941.992 369.142 941.568 370.167 941.568 371.372C941.568 372.356 941.678 372.995 941.898 373.288L947.831 367.343ZM957.303 374.509C957.376 374.883 957.49 375.148 957.645 375.302C957.946 375.595 958.304 375.742 958.719 375.742C959.134 375.742 959.488 375.595 959.781 375.302C960.082 375.009 960.233 374.647 960.233 374.216C960.233 373.801 960.086 373.447 959.793 373.154C959.59 372.95 959.155 372.637 958.487 372.214C957.576 371.717 956.929 371.278 956.546 370.896C955.879 370.228 955.545 369.427 955.545 368.491C955.545 367.547 955.879 366.741 956.546 366.074C957.214 365.398 958.019 365.061 958.963 365.061C959.907 365.061 960.693 365.378 961.319 366.013C961.767 366.46 962.052 366.961 962.174 367.514L959.72 368.222C959.663 368.019 959.606 367.884 959.549 367.819C959.403 367.673 959.208 367.6 958.963 367.6C958.719 367.6 958.508 367.689 958.329 367.868C958.158 368.039 958.072 368.247 958.072 368.491C958.072 368.735 958.158 368.942 958.329 369.113C958.483 369.26 958.833 369.508 959.378 369.858C960.388 370.411 961.12 370.916 961.576 371.372C962.365 372.169 962.76 373.117 962.76 374.216C962.76 375.339 962.365 376.299 961.576 377.097C960.794 377.886 959.842 378.281 958.719 378.281C957.604 378.281 956.652 377.882 955.863 377.084C955.318 376.539 954.959 375.86 954.789 375.046L957.303 374.509ZM968.485 374.606L965.665 380.466H963.26L964.823 374.606H968.485ZM981.852 361.044V375.437C983.862 375.437 985.51 374.79 986.795 373.496C988.244 372.047 988.968 370.293 988.968 368.234C988.968 366.184 988.244 364.43 986.795 362.973C985.51 361.687 983.862 361.044 981.852 361.044ZM981.18 358.469C984.354 358.485 986.828 359.384 988.602 361.167C990.547 363.128 991.52 365.484 991.52 368.234C991.52 370.993 990.547 373.349 988.602 375.302C986.828 377.084 984.354 377.984 981.18 378H979.325V358.469H981.18ZM998.49 375.156C998.913 375.53 999.682 375.717 1000.8 375.717C1002 375.717 1003.03 375.294 1003.89 374.448C1003.99 374.334 1004.21 374.082 1004.53 373.691L1007.06 374.594C1006.44 375.449 1005.99 376.014 1005.72 376.291C1004.36 377.65 1002.72 378.33 1000.8 378.33C998.884 378.33 997.249 377.65 995.89 376.291C994.531 374.932 993.851 373.292 993.851 371.372C993.851 369.451 994.531 367.811 995.89 366.452C997.249 365.093 998.884 364.414 1000.8 364.414C1002.44 364.414 1003.88 364.91 1005.12 365.903C1005.32 366.074 1005.52 366.257 1005.72 366.452C1005.8 366.534 1006.03 366.79 1006.41 367.221L1005.14 368.503L998.49 375.156ZM1002.71 367.343C1002.43 367.124 1001.79 367.014 1000.8 367.014C999.601 367.014 998.575 367.441 997.721 368.295C996.874 369.142 996.451 370.167 996.451 371.372C996.451 372.356 996.561 372.995 996.781 373.288L1002.71 367.343ZM1012.19 374.509C1012.26 374.883 1012.37 375.148 1012.53 375.302C1012.83 375.595 1013.19 375.742 1013.6 375.742C1014.02 375.742 1014.37 375.595 1014.66 375.302C1014.97 375.009 1015.12 374.647 1015.12 374.216C1015.12 373.801 1014.97 373.447 1014.68 373.154C1014.47 372.95 1014.04 372.637 1013.37 372.214C1012.46 371.717 1011.81 371.278 1011.43 370.896C1010.76 370.228 1010.43 369.427 1010.43 368.491C1010.43 367.547 1010.76 366.741 1011.43 366.074C1012.1 365.398 1012.9 365.061 1013.85 365.061C1014.79 365.061 1015.58 365.378 1016.2 366.013C1016.65 366.46 1016.93 366.961 1017.06 367.514L1014.6 368.222C1014.55 368.019 1014.49 367.884 1014.43 367.819C1014.29 367.673 1014.09 367.6 1013.85 367.6C1013.6 367.6 1013.39 367.689 1013.21 367.868C1013.04 368.039 1012.96 368.247 1012.96 368.491C1012.96 368.735 1013.04 368.942 1013.21 369.113C1013.37 369.26 1013.72 369.508 1014.26 369.858C1015.27 370.411 1016 370.916 1016.46 371.372C1017.25 372.169 1017.64 373.117 1017.64 374.216C1017.64 375.339 1017.25 376.299 1016.46 377.097C1015.68 377.886 1014.73 378.281 1013.6 378.281C1012.49 378.281 1011.53 377.882 1010.75 377.084C1010.2 376.539 1009.84 375.86 1009.67 375.046L1012.19 374.509ZM1026.97 364.414C1028.89 364.414 1030.53 365.093 1031.88 366.452C1033.24 367.811 1033.91 369.451 1033.91 371.372C1033.91 373.292 1033.24 374.932 1031.88 376.291C1030.53 377.65 1028.89 378.33 1026.97 378.33C1025.06 378.33 1023.42 377.65 1022.06 376.291C1020.7 374.932 1020.02 373.292 1020.02 371.372C1020.02 369.451 1020.7 367.811 1022.06 366.452C1023.42 365.093 1025.06 364.414 1026.97 364.414ZM1026.97 367.014C1025.76 367.014 1024.73 367.441 1023.88 368.295C1023.03 369.15 1022.61 370.175 1022.61 371.372C1022.61 372.576 1023.03 373.601 1023.88 374.448C1024.73 375.294 1025.76 375.717 1026.97 375.717C1028.17 375.717 1029.2 375.294 1030.04 374.448C1030.9 373.601 1031.33 372.576 1031.33 371.372C1031.33 370.175 1030.9 369.15 1030.04 368.295C1029.2 367.441 1028.17 367.014 1026.97 367.014ZM1047.75 372.312V370.444C1047.6 369.654 1047.2 368.938 1046.56 368.295C1045.71 367.441 1044.69 367.014 1043.48 367.014C1042.28 367.014 1041.25 367.441 1040.4 368.295C1039.55 369.15 1039.13 370.175 1039.13 371.372C1039.13 372.576 1039.55 373.601 1040.4 374.448C1041.25 375.294 1042.28 375.717 1043.48 375.717C1044.69 375.717 1045.71 375.294 1046.56 374.448C1047.2 373.805 1047.6 373.093 1047.75 372.312ZM1047.75 366.306V358.469H1050.28V378H1047.75V376.438C1046.52 377.699 1045.1 378.33 1043.48 378.33C1041.56 378.33 1039.92 377.65 1038.57 376.291C1037.21 374.932 1036.54 373.292 1036.54 371.372C1036.54 369.451 1037.21 367.811 1038.57 366.452C1039.92 365.093 1041.56 364.414 1043.48 364.414C1045.1 364.414 1046.52 365.044 1047.75 366.306ZM1060.17 364.414C1062.09 364.414 1063.73 365.093 1065.08 366.452C1066.44 367.811 1067.12 369.451 1067.12 371.372C1067.12 373.292 1066.44 374.932 1065.08 376.291C1063.73 377.65 1062.09 378.33 1060.17 378.33C1058.26 378.33 1056.62 377.65 1055.26 376.291C1053.91 374.932 1053.23 373.292 1053.23 371.372C1053.23 369.451 1053.91 367.811 1055.26 366.452C1056.62 365.093 1058.26 364.414 1060.17 364.414ZM1060.17 367.014C1058.97 367.014 1057.94 367.441 1057.08 368.295C1056.24 369.15 1055.81 370.175 1055.81 371.372C1055.81 372.576 1056.24 373.601 1057.08 374.448C1057.94 375.294 1058.97 375.717 1060.17 375.717C1061.38 375.717 1062.4 375.294 1063.25 374.448C1064.1 373.601 1064.53 372.576 1064.53 371.372C1064.53 370.175 1064.1 369.15 1063.25 368.295C1062.4 367.441 1061.38 367.014 1060.17 367.014ZM1072.57 367.136C1073.52 365.858 1074.68 365.187 1076.05 365.122V367.746C1075.13 367.795 1074.4 368.092 1073.86 368.637C1073.03 369.451 1072.61 370.419 1072.57 371.542V378H1070.05V365.439H1072.57V367.136ZM1089.41 372.312V370.456C1089.26 369.667 1088.87 368.951 1088.24 368.308C1087.38 367.461 1086.36 367.038 1085.16 367.038C1083.96 367.038 1082.93 367.461 1082.07 368.308C1081.22 369.154 1080.8 370.179 1080.8 371.384C1080.8 372.58 1081.22 373.605 1082.07 374.46C1082.93 375.306 1083.96 375.729 1085.16 375.729C1086.36 375.729 1087.38 375.306 1088.24 374.46C1088.87 373.817 1089.26 373.101 1089.41 372.312ZM1089.41 366.318V365.439H1091.95V378.012H1089.41V376.438C1088.19 377.699 1086.77 378.33 1085.16 378.33C1083.24 378.33 1081.6 377.654 1080.24 376.303C1078.89 374.944 1078.21 373.304 1078.21 371.384C1078.21 369.463 1078.89 367.827 1080.24 366.477C1081.6 365.118 1083.24 364.438 1085.16 364.438C1086.77 364.438 1088.19 365.065 1089.41 366.318ZM1098.17 368.808V378H1095.63V365.439H1098.17V366.904C1098.7 365.472 1099.76 364.755 1101.36 364.755C1102.72 364.755 1103.8 365.24 1104.59 366.208C1105.4 367.168 1105.81 368.377 1105.84 369.833V378H1103.31V369.931C1103.31 369.207 1103.05 368.588 1102.52 368.076C1101.99 367.555 1101.36 367.294 1100.63 367.294C1099.9 367.294 1099.28 367.547 1098.75 368.051C1098.45 368.352 1098.26 368.605 1098.17 368.808ZM1111.08 365.439V360.727H1113.6V365.439H1115.86V367.966H1113.6V378H1111.08V367.966H1108.82V365.439H1111.08ZM1122.71 375.156C1123.13 375.53 1123.9 375.717 1125.02 375.717C1126.22 375.717 1127.25 375.294 1128.1 374.448C1128.21 374.334 1128.43 374.082 1128.75 373.691L1131.28 374.594C1130.66 375.449 1130.21 376.014 1129.94 376.291C1128.58 377.65 1126.94 378.33 1125.02 378.33C1123.1 378.33 1121.47 377.65 1120.11 376.291C1118.75 374.932 1118.07 373.292 1118.07 371.372C1118.07 369.451 1118.75 367.811 1120.11 366.452C1121.47 365.093 1123.1 364.414 1125.02 364.414C1126.66 364.414 1128.1 364.91 1129.34 365.903C1129.54 366.074 1129.74 366.257 1129.94 366.452C1130.02 366.534 1130.25 366.79 1130.63 367.221L1129.36 368.503L1122.71 375.156ZM1126.93 367.343C1126.65 367.124 1126.01 367.014 1125.02 367.014C1123.82 367.014 1122.79 367.441 1121.94 368.295C1121.09 369.142 1120.67 370.167 1120.67 371.372C1120.67 372.356 1120.78 372.995 1121 373.288L1126.93 367.343ZM1136.4 374.509C1136.48 374.883 1136.59 375.148 1136.75 375.302C1137.05 375.595 1137.41 375.742 1137.82 375.742C1138.24 375.742 1138.59 375.595 1138.88 375.302C1139.18 375.009 1139.33 374.647 1139.33 374.216C1139.33 373.801 1139.19 373.447 1138.9 373.154C1138.69 372.95 1138.26 372.637 1137.59 372.214C1136.68 371.717 1136.03 371.278 1135.65 370.896C1134.98 370.228 1134.65 369.427 1134.65 368.491C1134.65 367.547 1134.98 366.741 1135.65 366.074C1136.32 365.398 1137.12 365.061 1138.06 365.061C1139.01 365.061 1139.79 365.378 1140.42 366.013C1140.87 366.46 1141.15 366.961 1141.28 367.514L1138.82 368.222C1138.76 368.019 1138.71 367.884 1138.65 367.819C1138.5 367.673 1138.31 367.6 1138.06 367.6C1137.82 367.6 1137.61 367.689 1137.43 367.868C1137.26 368.039 1137.17 368.247 1137.17 368.491C1137.17 368.735 1137.26 368.942 1137.43 369.113C1137.58 369.26 1137.93 369.508 1138.48 369.858C1139.49 370.411 1140.22 370.916 1140.68 371.372C1141.47 372.169 1141.86 373.117 1141.86 374.216C1141.86 375.339 1141.47 376.299 1140.68 377.097C1139.9 377.886 1138.94 378.281 1137.82 378.281C1136.71 378.281 1135.75 377.882 1134.96 377.084C1134.42 376.539 1134.06 375.86 1133.89 375.046L1136.4 374.509Z" fill="white"/>
<path d="M796.316 404.469V424H793.79V407.765H791.922L794.485 404.469H796.316ZM815.066 411.402C815.066 410.206 814.639 409.185 813.785 408.338C812.938 407.492 811.913 407.069 810.708 407.069C809.512 407.069 808.487 407.492 807.632 408.338C806.786 409.185 806.363 410.206 806.363 411.402V417.372C806.363 418.576 806.786 419.601 807.632 420.448C808.487 421.294 809.512 421.717 810.708 421.717C811.913 421.717 812.938 421.294 813.785 420.448C814.639 419.601 815.066 418.576 815.066 417.372V411.402ZM817.654 417.372C817.654 419.284 816.975 420.92 815.616 422.279C814.265 423.63 812.629 424.305 810.708 424.305C808.796 424.305 807.16 423.63 805.801 422.279C804.45 420.92 803.775 419.284 803.775 417.372V411.402C803.775 409.49 804.45 407.858 805.801 406.507C807.16 405.148 808.796 404.469 810.708 404.469C812.629 404.469 814.265 405.148 815.616 406.507C816.975 407.858 817.654 409.49 817.654 411.402V417.372ZM830.813 411.402C830.813 410.206 830.386 409.185 829.532 408.338C828.685 407.492 827.66 407.069 826.456 407.069C825.259 407.069 824.234 407.492 823.379 408.338C822.533 409.185 822.11 410.206 822.11 411.402V417.372C822.11 418.576 822.533 419.601 823.379 420.448C824.234 421.294 825.259 421.717 826.456 421.717C827.66 421.717 828.685 421.294 829.532 420.448C830.386 419.601 830.813 418.576 830.813 417.372V411.402ZM833.401 417.372C833.401 419.284 832.722 420.92 831.363 422.279C830.012 423.63 828.376 424.305 826.456 424.305C824.543 424.305 822.907 423.63 821.548 422.279C820.197 420.92 819.522 419.284 819.522 417.372V411.402C819.522 409.49 820.197 407.858 821.548 406.507C822.907 405.148 824.543 404.469 826.456 404.469C828.376 404.469 830.012 405.148 831.363 406.507C832.722 407.858 833.401 409.49 833.401 411.402V417.372ZM848.697 408.253L837.491 424.256L835.416 422.816L846.609 406.825L848.697 408.253ZM838.675 408.802C839.603 408.802 840.392 409.132 841.043 409.791C841.702 410.442 842.032 411.231 842.032 412.159C842.032 413.087 841.702 413.88 841.043 414.54C840.392 415.191 839.603 415.516 838.675 415.516C837.747 415.516 836.954 415.191 836.294 414.54C835.643 413.88 835.318 413.087 835.318 412.159C835.318 411.231 835.643 410.442 836.294 409.791C836.954 409.132 837.747 408.802 838.675 408.802ZM838.675 411.305C838.439 411.305 838.235 411.39 838.064 411.561C837.902 411.724 837.82 411.923 837.82 412.159C837.82 412.403 837.902 412.611 838.064 412.782C838.235 412.944 838.439 413.026 838.675 413.026C838.911 413.026 839.114 412.944 839.285 412.782C839.456 412.611 839.542 412.403 839.542 412.159C839.542 411.923 839.456 411.724 839.285 411.561C839.114 411.39 838.911 411.305 838.675 411.305ZM845.425 415.553C846.361 415.553 847.155 415.882 847.806 416.542C848.465 417.193 848.794 417.982 848.794 418.91C848.794 419.846 848.465 420.643 847.806 421.302C847.155 421.953 846.361 422.279 845.425 422.279C844.498 422.279 843.704 421.953 843.045 421.302C842.394 420.643 842.068 419.846 842.068 418.91C842.068 417.982 842.394 417.193 843.045 416.542C843.704 415.882 844.498 415.553 845.425 415.553ZM845.425 418.055C845.189 418.055 844.986 418.141 844.815 418.312C844.652 418.474 844.571 418.674 844.571 418.91C844.571 419.154 844.652 419.361 844.815 419.532C844.986 419.695 845.189 419.776 845.425 419.776C845.661 419.776 845.865 419.695 846.036 419.532C846.207 419.361 846.292 419.154 846.292 418.91C846.292 418.674 846.207 418.474 846.036 418.312C845.865 418.141 845.661 418.055 845.425 418.055ZM860.245 404.469H862.552L870.608 418.409V404.469H873.147V424H870.938L862.771 409.889V424H860.245V404.469ZM887.71 418.312V416.456C887.564 415.667 887.173 414.951 886.539 414.308C885.684 413.461 884.659 413.038 883.462 413.038C882.258 413.038 881.229 413.461 880.374 414.308C879.528 415.154 879.104 416.179 879.104 417.384C879.104 418.58 879.528 419.605 880.374 420.46C881.229 421.306 882.258 421.729 883.462 421.729C884.659 421.729 885.684 421.306 886.539 420.46C887.173 419.817 887.564 419.101 887.71 418.312ZM887.71 412.318V411.439H890.25V424.012H887.71V422.438C886.49 423.699 885.074 424.33 883.462 424.33C881.542 424.33 879.902 423.654 878.543 422.303C877.192 420.944 876.517 419.304 876.517 417.384C876.517 415.463 877.192 413.827 878.543 412.477C879.902 411.118 881.542 410.438 883.462 410.438C885.074 410.438 886.49 411.065 887.71 412.318ZM895.535 411.439V406.727H898.062V411.439H900.32V413.966H898.062V424H895.535V413.966H893.277V411.439H895.535ZM908.584 424.171C906.998 424.171 905.72 423.687 904.751 422.718C903.783 421.75 903.287 420.537 903.262 419.081V411.439H905.801V418.983C905.801 419.707 906.066 420.33 906.595 420.851C907.124 421.371 907.783 421.632 908.572 421.632C909.297 421.632 909.923 421.375 910.452 420.863C910.989 420.342 911.258 419.715 911.258 418.983V411.439H913.785V419.081C913.76 420.537 913.268 421.75 912.308 422.718C911.339 423.687 910.098 424.171 908.584 424.171ZM919.974 413.136C920.918 411.858 922.077 411.187 923.453 411.122V413.746C922.533 413.795 921.801 414.092 921.255 414.637C920.433 415.451 920.006 416.419 919.974 417.542V424H917.447V411.439H919.974V413.136ZM936.807 418.312V416.456C936.661 415.667 936.27 414.951 935.635 414.308C934.781 413.461 933.755 413.038 932.559 413.038C931.355 413.038 930.325 413.461 929.471 414.308C928.624 415.154 928.201 416.179 928.201 417.384C928.201 418.58 928.624 419.605 929.471 420.46C930.325 421.306 931.355 421.729 932.559 421.729C933.755 421.729 934.781 421.306 935.635 420.46C936.27 419.817 936.661 419.101 936.807 418.312ZM936.807 412.318V411.439H939.346V424.012H936.807V422.438C935.586 423.699 934.17 424.33 932.559 424.33C930.639 424.33 928.999 423.654 927.64 422.303C926.289 420.944 925.613 419.304 925.613 417.384C925.613 415.463 926.289 413.827 927.64 412.477C928.999 411.118 930.639 410.438 932.559 410.438C934.17 410.438 935.586 411.065 936.807 412.318ZM945.767 411.439V424H943.24V411.439H945.767ZM944.498 406.275C944.986 406.275 945.405 406.446 945.755 406.788C946.105 407.13 946.28 407.549 946.28 408.045C946.28 408.542 946.105 408.961 945.755 409.303C945.405 409.645 944.986 409.815 944.498 409.815C944.017 409.815 943.602 409.645 943.252 409.303C942.903 408.961 942.728 408.542 942.728 408.045C942.728 407.549 942.903 407.13 943.252 406.788C943.602 406.446 944.017 406.275 944.498 406.275ZM951.846 420.509C951.919 420.883 952.033 421.148 952.188 421.302C952.489 421.595 952.847 421.742 953.262 421.742C953.677 421.742 954.031 421.595 954.324 421.302C954.625 421.009 954.776 420.647 954.776 420.216C954.776 419.801 954.629 419.447 954.336 419.154C954.133 418.95 953.698 418.637 953.03 418.214C952.119 417.717 951.472 417.278 951.089 416.896C950.422 416.228 950.088 415.427 950.088 414.491C950.088 413.547 950.422 412.741 951.089 412.074C951.757 411.398 952.562 411.061 953.506 411.061C954.45 411.061 955.236 411.378 955.862 412.013C956.31 412.46 956.595 412.961 956.717 413.514L954.263 414.222C954.206 414.019 954.149 413.884 954.092 413.819C953.946 413.673 953.75 413.6 953.506 413.6C953.262 413.6 953.051 413.689 952.872 413.868C952.701 414.039 952.615 414.247 952.615 414.491C952.615 414.735 952.701 414.942 952.872 415.113C953.026 415.26 953.376 415.508 953.921 415.858C954.931 416.411 955.663 416.916 956.119 417.372C956.908 418.169 957.303 419.117 957.303 420.216C957.303 421.339 956.908 422.299 956.119 423.097C955.337 423.886 954.385 424.281 953.262 424.281C952.147 424.281 951.195 423.882 950.406 423.084C949.861 422.539 949.502 421.86 949.332 421.046L951.846 420.509Z" fill="white"/>
</svg>
