<svg width="2357" height="1437" viewBox="0 0 2357 1437" fill="none" xmlns="http://www.w3.org/2000/svg">
<path d="M2230.31 11.3036C2230.31 11.3036 2232.04 35.6858 2218.86 47.7351C2208.83 56.2384 2198.93 58.4039 2184.98 56.9333C2184.04 56.834 2183.3 56.0732 2183.27 55.1268C2182.87 40.3992 2193.35 24.5 2194.13 23.3311C2194.17 23.2809 2194.2 23.2381 2194.24 23.1917C2207.91 6.73361 2230.31 11.3036 2230.31 11.3036ZM2230.31 11.3036C2218.63 26.8765 2212.6 32.428 2200.27 40.8643" stroke="#589564" stroke-opacity="0.9" stroke-width="5"/>
<path d="M2334.92 4.3446C2334.92 4.3446 2347.07 25.5521 2340.44 42.1302C2335.1 54.1485 2327.13 60.4013 2313.93 65.137C2313.04 65.4567 2312.04 65.0928 2311.61 64.2518C2304.84 51.1649 2307.37 32.2902 2307.57 30.8963C2307.58 30.8365 2307.59 30.7837 2307.6 30.7251C2312.76 9.96203 2334.92 4.3446 2334.92 4.3446ZM2334.92 4.3446C2331.17 23.4447 2328.16 31.0631 2320.72 44.0191" stroke="#589564" stroke-opacity="0.9" stroke-width="5"/>
<path d="M2228.32 180.815C2228.32 180.815 2228.84 202.738 2216.52 212.979C2207.21 220.143 2198.29 221.683 2185.94 219.814C2185 219.673 2184.3 218.878 2184.32 217.931C2184.66 204.792 2194.61 191.126 2195.39 190.069C2195.43 190.021 2195.46 189.981 2195.5 189.936C2208.45 175.774 2228.32 180.815 2228.32 180.815ZM2228.32 180.815C2217.2 194.277 2211.56 198.997 2200.16 206.036" stroke="#589564" stroke-opacity="0.9" stroke-width="5"/>
<path d="M2141.27 132.008C2141.27 132.008 2141.06 117.875 2149.06 111.348C2154.96 106.895 2160.59 105.893 2168.25 107.034C2169.18 107.174 2169.88 107.978 2169.82 108.923C2169.26 117.118 2163.18 125.4 2162.57 126.214C2162.53 126.263 2162.49 126.303 2162.45 126.347C2154.03 135.369 2141.27 132.008 2141.27 132.008ZM2141.27 132.008C2148.52 123.397 2152.18 120.389 2159.57 115.919" stroke="#589564" stroke-opacity="0.9" stroke-width="5"/>
<path d="M2091.21 175.648C2091.21 175.648 2082.72 164.282 2086.64 153.829C2089.78 146.335 2094.71 141.884 2102.96 137.858C2103.8 137.448 2104.82 137.691 2105.3 138.487C2109.59 145.506 2108.55 156.18 2108.44 157.243C2108.43 157.307 2108.42 157.361 2108.41 157.424C2105.53 170.182 2091.21 175.648 2091.21 175.648ZM2091.21 175.648C2093.18 163.983 2094.96 159.182 2099.5 150.794" stroke="#589564" stroke-opacity="0.5" stroke-width="5"/>
<path d="M2003.39 373.4C2003.39 373.4 2001.04 352.276 2012.07 341.351C2020.45 333.661 2028.92 331.417 2040.98 332.172C2041.92 332.231 2042.69 332.962 2042.75 333.907C2043.5 346.6 2035.08 360.589 2034.41 361.688C2034.38 361.74 2034.35 361.783 2034.31 361.83C2023 376.592 2003.39 373.4 2003.39 373.4ZM2003.39 373.4C2013 359.465 2018.04 354.433 2028.46 346.676" stroke="#589564" stroke-opacity="0.5" stroke-width="5"/>
<path d="M1947.08 338.595C1947.08 338.595 1936.23 303.032 1951.68 280.69C1963.82 264.462 1977.97 257.927 1999.62 255.441C2000.56 255.333 2001.45 255.908 2001.71 256.82C2007.83 278.791 1997.27 306.811 1996.62 308.508C1996.59 308.565 1996.57 308.617 1996.54 308.671C1981.88 337.76 1947.08 338.595 1947.08 338.595ZM1947.08 338.595C1959.11 311.538 1966.15 301.259 1981.57 284.562" stroke="#589564" stroke-opacity="0.9" stroke-width="5"/>
<path d="M2057.63 110.942C2057.63 110.942 2057.15 78.172 2075.7 63.0367C2089.91 52.3068 2103.45 50.2177 2122.29 53.3704C2123.22 53.5267 2123.92 54.3266 2123.9 55.2733C2123.61 75.2716 2107.97 96.2266 2106.94 97.5891C2106.91 97.6372 2106.87 97.6825 2106.83 97.7267C2087.29 118.755 2057.63 110.942 2057.63 110.942ZM2057.63 110.942C2074.43 90.9764 2082.92 83.9995 2100.06 73.6368" stroke="#589564" stroke-opacity="0.9" stroke-width="5"/>
<path d="M2093.1 264.774C2093.1 264.774 2087.02 238.498 2099.31 223.098C2108.81 212.064 2119.27 208.011 2134.82 207.235C2135.76 207.187 2136.61 207.824 2136.79 208.753C2139.86 224.793 2131.08 244.087 2130.45 245.447C2130.43 245.502 2130.4 245.551 2130.37 245.603C2118.31 265.901 2093.1 264.774 2093.1 264.774ZM2093.1 264.774C2103.15 245.792 2108.76 238.705 2120.75 227.388" stroke="#589564" stroke-opacity="0.9" stroke-width="5"/>
<path d="M2032.69 265.775C2032.69 265.775 2028.29 246.775 2037.18 235.64C2043.96 227.769 2051.41 224.81 2062.4 224.194C2063.35 224.14 2064.2 224.777 2064.36 225.71C2066.33 237.15 2060.22 250.67 2059.7 251.782C2059.68 251.836 2059.65 251.882 2059.62 251.934C2050.9 266.588 2032.69 265.775 2032.69 265.775ZM2032.69 265.775C2039.95 252.049 2044.01 246.925 2052.68 238.742" stroke="#589564" stroke-opacity="0.9" stroke-width="5"/>
<path d="M2002.49 207.945C2002.49 207.945 1992.34 182.957 2002.04 165.812C2009.69 153.417 2019.38 147.765 2034.61 144.548C2035.53 144.352 2036.47 144.847 2036.79 145.737C2042.36 161.091 2036.73 181.528 2036.32 182.971C2036.3 183.029 2036.29 183.081 2036.26 183.137C2027.55 205.084 2002.49 207.945 2002.49 207.945ZM2002.49 207.945C2009.41 187.616 2013.84 179.733 2023.89 166.668" stroke="#589564" stroke-opacity="0.9" stroke-width="5"/>
<path d="M2244.86 94.9429C2244.86 94.9429 2244.25 110.031 2235.34 116.524C2228.76 120.947 2222.67 121.673 2214.52 119.977C2213.59 119.784 2212.94 118.944 2213.05 118.003C2214.07 109.239 2221.13 100.677 2221.81 99.869C2221.85 99.8228 2221.89 99.7848 2221.93 99.743C2231.45 90.6085 2244.86 94.9429 2244.86 94.9429ZM2244.86 94.9429C2236.63 103.703 2232.55 106.698 2224.4 111.031" stroke="#589564" stroke-opacity="0.5" stroke-width="5"/>
<path d="M491.004 943.381C491.004 943.381 506.154 969.815 497.889 990.479C491.181 1005.57 481.139 1013.37 464.461 1019.29C463.569 1019.61 462.575 1019.24 462.131 1018.41C453.435 1002.03 456.684 978.071 456.915 976.46C456.923 976.401 456.935 976.344 456.949 976.285C463.37 950.387 491.004 943.381 491.004 943.381ZM491.004 943.381C486.331 967.189 482.574 976.685 473.303 992.834" stroke="#589564" stroke-opacity="0.9" stroke-width="5"/>
<path d="M360.607 952.055C360.607 952.055 362.764 982.447 346.34 997.466C333.739 1008.15 321.306 1010.8 303.713 1008.89C302.771 1008.79 302.035 1008.03 301.998 1007.08C301.283 988.551 314.622 968.383 315.53 967.033C315.563 966.983 315.598 966.937 315.637 966.891C332.674 946.356 360.607 952.055 360.607 952.055ZM360.607 952.055C346.052 971.466 338.542 978.386 323.174 988.901" stroke="#589564" stroke-opacity="0.9" stroke-width="5"/>
<path d="M358.131 1163.34C358.131 1163.34 358.779 1190.67 343.425 1203.44C331.722 1212.44 320.505 1214.32 304.906 1211.89C303.971 1211.75 303.27 1210.95 303.283 1210.01C303.51 1193.45 316.195 1176.08 317.097 1174.87C317.133 1174.82 317.169 1174.77 317.21 1174.73C333.346 1157.06 358.131 1163.34 358.131 1163.34ZM358.131 1163.34C344.267 1180.12 337.244 1186.01 323.027 1194.78" stroke="#589564" stroke-opacity="0.9" stroke-width="5"/>
<path d="M249.628 1102.51C249.628 1102.51 249.371 1084.89 259.342 1076.76C266.793 1071.13 273.902 1069.92 283.646 1071.44C284.582 1071.59 285.279 1072.39 285.232 1073.33C284.718 1083.74 276.853 1094.38 276.159 1095.3C276.122 1095.35 276.088 1095.39 276.047 1095.44C265.542 1106.7 249.628 1102.51 249.628 1102.51ZM249.628 1102.51C258.663 1091.78 263.224 1088.02 272.438 1082.45" stroke="#589564" stroke-opacity="0.9" stroke-width="5"/>
<path d="M187.228 1156.9C187.228 1156.9 176.65 1142.74 181.536 1129.71C185.488 1120.26 191.738 1114.69 202.226 1109.63C203.067 1109.22 204.085 1109.46 204.588 1110.25C210.21 1119.04 208.833 1132.78 208.7 1133.99C208.693 1134.05 208.683 1134.1 208.669 1134.16C205.101 1150.08 187.228 1156.9 187.228 1156.9ZM187.228 1156.9C189.685 1142.36 191.904 1136.38 197.562 1125.92" stroke="#589564" stroke-opacity="0.5" stroke-width="5"/>
<path d="M140.97 1433.32C140.97 1433.32 122.483 1414.35 124.964 1395.15C127.33 1381.05 134.045 1372.33 146.692 1363.77C147.476 1363.24 148.53 1363.34 149.164 1364.04C159.893 1375.95 162.342 1396.6 162.504 1398.07C162.511 1398.13 162.514 1398.18 162.514 1398.24C162.713 1421.44 140.97 1433.32 140.97 1433.32ZM140.97 1433.32C139.745 1412.26 140.85 1403.45 145.157 1387.84" stroke="#589564" stroke-opacity="0.5" stroke-width="5"/>
<path d="M49.9901 1364.77C49.9901 1364.77 20.0053 1329.43 26.6409 1296.24C32.5512 1271.55 45.6176 1257.05 69.3839 1243.46C70.2057 1242.99 71.2515 1243.16 71.8517 1243.9C90.0642 1266.11 91.7412 1304.07 91.8124 1305.91C91.8147 1305.97 91.8132 1306.01 91.8096 1306.07C89.412 1346.62 49.9901 1364.77 49.9901 1364.77ZM49.9901 1364.77C50.3824 1327.87 53.3701 1312.62 62.7618 1285.9" stroke="#589564" stroke-opacity="0.9" stroke-width="5"/>
<path d="M145.37 1076.25C145.37 1076.25 144.776 1035.4 167.895 1016.54C185.706 1003.09 202.674 1000.53 226.363 1004.56C227.296 1004.71 227.992 1005.51 227.986 1006.46C227.826 1031.64 207.929 1058.17 206.821 1059.63C206.785 1059.68 206.752 1059.72 206.711 1059.76C182.355 1085.99 145.37 1076.25 145.37 1076.25ZM145.37 1076.25C166.319 1051.36 176.895 1042.67 198.261 1029.75" stroke="#589564" stroke-opacity="0.9" stroke-width="5"/>
<path d="M189.589 1268C189.589 1268 182.008 1235.24 197.323 1216.05C209.253 1202.2 222.387 1197.17 241.983 1196.26C242.929 1196.21 243.776 1196.85 243.963 1197.77C248.03 1217.9 236.872 1242.34 236.138 1243.92C236.112 1243.97 236.084 1244.03 236.053 1244.08C221.02 1269.4 189.589 1268 189.589 1268ZM189.589 1268C202.112 1244.33 209.106 1235.5 224.046 1221.4" stroke="#589564" stroke-opacity="0.9" stroke-width="5"/>
<path d="M114.287 1269.24C114.287 1269.24 108.805 1245.56 119.879 1231.68C128.413 1221.77 137.8 1218.11 151.722 1217.39C152.667 1217.34 153.516 1217.98 153.689 1218.91C156.369 1233.31 148.543 1250.54 147.952 1251.82C147.927 1251.87 147.901 1251.92 147.871 1251.97C136.996 1270.26 114.287 1269.24 114.287 1269.24ZM114.287 1269.24C123.342 1252.13 128.399 1245.75 139.202 1235.55" stroke="#589564" stroke-opacity="0.9" stroke-width="5"/>
<path d="M76.6392 1197.16C76.6392 1197.16 63.9888 1166.01 76.0861 1144.64C85.683 1129.09 97.8601 1122.05 117.066 1118.06C117.993 1117.86 118.93 1118.36 119.262 1119.24C126.451 1138.48 119.286 1164.37 118.81 1166.05C118.793 1166.1 118.773 1166.16 118.751 1166.22C107.899 1193.59 76.6392 1197.16 76.6392 1197.16ZM76.6392 1197.16C85.2747 1171.82 90.7888 1161.99 103.318 1145.71" stroke="#589564" stroke-opacity="0.9" stroke-width="5"/>
<path d="M378.754 1056.31C378.754 1056.31 377.993 1075.11 366.88 1083.21C358.573 1088.79 350.894 1089.65 340.534 1087.43C339.609 1087.23 338.956 1086.39 339.051 1085.45C340.163 1074.33 349.26 1063.35 350.034 1062.43C350.073 1062.39 350.109 1062.35 350.152 1062.31C362.019 1050.9 378.754 1056.31 378.754 1056.31ZM378.754 1056.31C368.486 1067.23 363.401 1070.96 353.244 1076.36" stroke="#589564" stroke-opacity="0.5" stroke-width="5"/>
</svg>
