<svg width="425" height="378" viewBox="0 0 425 378" fill="none" xmlns="http://www.w3.org/2000/svg">
<path d="M298.306 11.3036C298.306 11.3036 300.036 35.6858 286.86 47.7351C276.827 56.2384 266.927 58.4039 252.981 56.9333C252.04 56.834 251.301 56.0732 251.275 55.1268C250.867 40.3992 261.349 24.5 262.134 23.3311C262.167 23.2809 262.2 23.2381 262.239 23.1917C275.908 6.73361 298.306 11.3036 298.306 11.3036ZM298.306 11.3036C286.628 26.8765 280.603 32.428 268.274 40.8643" stroke="#589564" stroke-opacity="0.9" stroke-width="5"/>
<path d="M402.92 4.3446C402.92 4.3446 415.075 25.5521 408.444 42.1302C403.103 54.1485 395.128 60.4013 381.929 65.137C381.038 65.4567 380.042 65.0928 379.607 64.2518C372.839 51.1649 375.37 32.2902 375.569 30.8963C375.578 30.8365 375.589 30.7837 375.603 30.7251C380.762 9.96203 402.92 4.3446 402.92 4.3446ZM402.92 4.3446C399.171 23.4447 396.157 31.0631 388.719 44.0191" stroke="#589564" stroke-opacity="0.9" stroke-width="5"/>
<path d="M296.319 180.815C296.319 180.815 296.839 202.738 284.521 212.979C275.212 220.143 266.286 221.683 253.938 219.814C253.002 219.673 252.298 218.878 252.322 217.931C252.66 204.792 262.607 191.126 263.39 190.069C263.426 190.021 263.46 189.981 263.501 189.936C276.447 175.774 296.319 180.815 296.319 180.815ZM296.319 180.815C285.196 194.277 279.562 198.997 268.156 206.036" stroke="#589564" stroke-opacity="0.9" stroke-width="5"/>
<path d="M209.27 132.008C209.27 132.008 209.064 117.875 217.064 111.348C222.961 106.895 228.59 105.893 236.246 107.034C237.182 107.174 237.88 107.978 237.816 108.923C237.265 117.118 231.178 125.4 230.565 126.214C230.529 126.263 230.494 126.303 230.453 126.347C222.025 135.369 209.27 132.008 209.27 132.008ZM209.27 132.008C216.519 123.397 220.178 120.389 227.571 115.919" stroke="#589564" stroke-opacity="0.9" stroke-width="5"/>
<path d="M159.208 175.648C159.208 175.648 150.722 164.282 154.642 153.829C157.776 146.335 162.714 141.884 170.957 137.858C171.796 137.448 172.816 137.691 173.303 138.487C177.593 145.506 176.553 156.18 176.437 157.243C176.43 157.307 176.42 157.361 176.406 157.424C173.533 170.182 159.208 175.648 159.208 175.648ZM159.208 175.648C161.179 163.983 162.959 159.182 167.499 150.794" stroke="#589564" stroke-opacity="0.5" stroke-width="5"/>
<path d="M71.3927 373.4C71.3927 373.4 69.0439 352.276 80.0739 341.351C88.4465 333.661 96.9225 331.417 108.976 332.172C109.921 332.231 110.691 332.962 110.748 333.907C111.503 346.6 103.083 360.589 102.407 361.688C102.376 361.74 102.345 361.783 102.308 361.83C91.0018 376.592 71.3927 373.4 71.3927 373.4ZM71.3927 373.4C80.998 359.465 86.0404 354.433 96.4597 346.676" stroke="#589564" stroke-opacity="0.5" stroke-width="5"/>
<path d="M15.0845 338.595C15.0845 338.595 4.2341 303.032 19.6766 280.69C31.8208 264.462 45.9738 257.927 67.6227 255.441C68.5633 255.333 69.453 255.908 69.7072 256.82C75.833 278.791 65.2694 306.811 64.6158 308.508C64.5941 308.565 64.5703 308.617 64.5431 308.671C49.8801 337.76 15.0845 338.595 15.0845 338.595ZM15.0845 338.595C27.1069 311.538 34.1543 301.259 49.5685 284.562" stroke="#589564" stroke-opacity="0.9" stroke-width="5"/>
<path d="M125.627 110.942C125.627 110.942 125.15 78.172 143.698 63.0367C157.908 52.3068 171.449 50.2177 190.29 53.3704C191.224 53.5267 191.918 54.3266 191.904 55.2733C191.611 75.2716 175.975 96.2266 174.942 97.5891C174.906 97.6372 174.867 97.6825 174.826 97.7267C155.286 118.755 125.627 110.942 125.627 110.942ZM125.627 110.942C142.433 90.9764 150.918 83.9995 168.06 73.6368" stroke="#589564" stroke-opacity="0.9" stroke-width="5"/>
<path d="M161.102 264.774C161.102 264.774 155.02 238.498 167.307 223.098C176.813 212.064 187.272 208.011 202.817 207.235C203.762 207.187 204.609 207.824 204.787 208.753C207.862 224.793 199.084 244.087 198.452 245.447C198.427 245.502 198.4 245.551 198.37 245.603C186.306 265.901 161.102 264.774 161.102 264.774ZM161.102 264.774C171.149 245.792 176.76 238.705 188.746 227.388" stroke="#589564" stroke-opacity="0.9" stroke-width="5"/>
<path d="M100.689 265.775C100.689 265.775 96.2912 246.775 105.176 235.64C111.957 227.769 119.408 224.81 130.4 224.194C131.345 224.14 132.196 224.777 132.357 225.71C134.328 237.15 128.219 250.67 127.704 251.782C127.679 251.836 127.654 251.882 127.623 251.934C118.895 266.588 100.689 265.775 100.689 265.775ZM100.689 265.775C107.954 252.049 112.011 246.925 120.678 238.742" stroke="#589564" stroke-opacity="0.9" stroke-width="5"/>
<path d="M70.4855 207.945C70.4855 207.945 60.3365 182.957 70.0418 165.812C77.6888 153.417 87.3778 147.765 102.606 144.548C103.532 144.352 104.469 144.847 104.792 145.737C110.357 161.091 104.731 181.528 104.321 182.971C104.305 183.029 104.287 183.081 104.264 183.137C95.5518 205.084 70.4855 207.945 70.4855 207.945ZM70.4855 207.945C77.4136 187.616 81.8374 179.733 91.889 166.668" stroke="#589564" stroke-opacity="0.9" stroke-width="5"/>
<path d="M312.864 94.9429C312.864 94.9429 312.254 110.031 303.338 116.524C296.758 120.947 290.669 121.673 282.515 119.977C281.588 119.784 280.936 118.944 281.046 118.003C282.072 109.239 289.132 100.677 289.813 99.869C289.851 99.8228 289.888 99.7848 289.932 99.743C299.451 90.6085 312.864 94.9429 312.864 94.9429ZM312.864 94.9429C304.627 103.703 300.547 106.698 292.399 111.031" stroke="#589564" stroke-opacity="0.5" stroke-width="5"/>
</svg>
