<svg width="127" height="52" viewBox="0 0 127 52" fill="none" xmlns="http://www.w3.org/2000/svg">
<path d="M2.86349 28.094V50.9064H0V0H2.86349V25.2305H24.1806V0H27.044V50.9064H24.1806V28.094H2.86349Z" fill="white"/>
<path d="M42.5387 45.0522C45.2325 47.5127 48.4354 48.7429 52.1473 48.7429C56.135 48.7429 59.5393 47.3324 62.3604 44.5113C62.721 44.1507 63.0604 43.7795 63.3785 43.3977L66.4011 44.4795C65.8496 45.2431 65.2239 45.9749 64.5239 46.6748C61.1089 50.0898 56.9834 51.7973 52.1473 51.7973C47.3324 51.7973 43.2174 50.0898 39.8025 46.6748C36.3875 43.2599 34.68 39.1343 34.68 34.2982C34.68 29.4833 36.3875 25.3684 39.8025 21.9534C43.2174 18.5384 47.3324 16.8309 52.1473 16.8309C56.2834 16.8309 59.8999 18.0718 62.9967 20.5535C63.5058 20.9777 64.0149 21.4443 64.5239 21.9534C64.7148 22.1443 64.8951 22.3352 65.0648 22.5261L62.9013 24.6896L42.5387 45.0522ZM60.8014 22.7488C58.3197 20.8398 55.435 19.8853 52.1473 19.8853C48.1808 19.8853 44.7871 21.2959 41.966 24.1169C39.1449 26.9168 37.7344 30.3105 37.7344 34.2982C37.7344 37.5859 38.6889 40.4706 40.5979 42.9523L60.8014 22.7488Z" fill="white"/>
<path d="M74.0689 19.6626H76.9324V25.3578C77.5263 24.5093 78.2156 23.6927 79.0004 22.9079C81.5245 20.3838 84.1123 19.0581 86.7637 18.9308V22.0489C84.9607 22.1337 83.0942 23.1412 81.164 25.0714C78.4489 27.7652 77.0384 30.9999 76.9324 34.7755V50.9064H74.0689V19.6626Z" fill="white"/>
<path d="M126.884 50.9064H124.021V44.5431C123.469 45.2855 122.865 45.9961 122.207 46.6748C118.792 50.0898 114.667 51.7973 109.831 51.7973C105.016 51.7973 100.901 50.0898 97.4858 46.6748C94.0709 43.2599 92.3634 39.1449 92.3634 34.33C92.3634 29.4939 94.0709 25.3684 97.4858 21.9534C100.901 18.5384 105.016 16.8309 109.831 16.8309C114.667 16.8309 118.792 18.5384 122.207 21.9534C122.865 22.6322 123.469 23.3427 124.021 24.0851V19.6626H126.884V50.9064ZM124.021 37.1617V31.4984C123.491 28.6985 122.165 26.238 120.044 24.1169C117.223 21.2959 113.818 19.8853 109.831 19.8853C105.843 19.8853 102.439 21.2959 99.6175 24.1169C96.7965 26.938 95.3859 30.3424 95.3859 34.33C95.3859 38.3177 96.7965 41.7221 99.6175 44.5431C102.439 47.343 105.843 48.7429 109.831 48.7429C113.818 48.7429 117.223 47.3324 120.044 44.5113C122.165 42.3902 123.491 39.9403 124.021 37.1617Z" fill="white"/>
<path d="M34.7833 8.53008C34.1988 8.32837 33.7374 8.05234 33.399 7.702C33.0606 7.35166 32.8914 6.927 32.8914 6.42803C32.8914 5.93967 33.0606 5.52032 33.399 5.16998C33.7374 4.8161 34.1475 4.63916 34.6295 4.63916C35.108 4.63916 35.5182 4.81433 35.86 5.16467C36.048 5.35223 36.1779 5.56279 36.2497 5.79635L35.8344 5.96621C35.7728 5.79281 35.672 5.63357 35.5319 5.48847C35.2823 5.23368 34.9815 5.10628 34.6295 5.10628C34.2774 5.10628 33.9766 5.23545 33.7271 5.49378C33.4776 5.74858 33.3528 6.05999 33.3528 6.42803C33.3528 6.79253 33.4776 7.10394 33.7271 7.36227C33.9595 7.59937 34.2808 7.81701 34.691 8.01518C35.3473 8.23459 35.8993 8.57609 36.3471 9.03967C36.8222 9.52803 37.0597 10.119 37.0597 10.8126C37.0597 11.5098 36.8222 12.1043 36.3471 12.5962C35.872 13.0881 35.2994 13.334 34.6295 13.334C33.9595 13.334 33.387 13.0863 32.9119 12.5909C32.5325 12.1981 32.3052 11.7416 32.23 11.2213L32.6658 11.0568C32.7136 11.5168 32.9033 11.9185 33.2349 12.2618C33.6211 12.6616 34.086 12.8616 34.6295 12.8616C35.1764 12.8616 35.6429 12.6616 36.0292 12.2618C36.4154 11.8619 36.6086 11.3788 36.6086 10.8126C36.6086 10.2499 36.4154 9.76866 36.0292 9.36878C35.6908 9.01844 35.2755 8.73887 34.7833 8.53008Z" fill="white"/>
<path d="M43.5199 13.2332H43.0585V12.1715C42.9696 12.2954 42.8722 12.4139 42.7663 12.5272C42.2159 13.0969 41.5511 13.3818 40.7718 13.3818C39.9959 13.3818 39.3328 13.0969 38.7825 12.5272C38.2322 11.9574 37.957 11.2709 37.957 10.4676C37.957 9.66073 38.2322 8.97243 38.7825 8.40268C39.3328 7.83294 39.9959 7.54806 40.7718 7.54806C41.5511 7.54806 42.2159 7.83294 42.7663 8.40268C42.8722 8.51593 42.9696 8.63448 43.0585 8.75833V8.02049H43.5199V13.2332ZM43.0585 10.94V9.99515C42.9731 9.52803 42.7594 9.11752 42.4176 8.76364C41.963 8.29298 41.4144 8.05765 40.7718 8.05765C40.1292 8.05765 39.5806 8.29298 39.126 8.76364C38.6714 9.2343 38.4441 9.80228 38.4441 10.4676C38.4441 11.1329 38.6714 11.7009 39.126 12.1715C39.5806 12.6386 40.1292 12.8722 40.7718 12.8722C41.4144 12.8722 41.963 12.6369 42.4176 12.1662C42.7594 11.8123 42.9731 11.4036 43.0585 10.94Z" fill="white"/>
<path d="M45.0889 4.74002H45.5503V8.75303C45.6357 8.63271 45.7332 8.51593 45.8425 8.40268C46.3929 7.83294 47.056 7.54806 47.8319 7.54806C48.6112 7.54806 49.2743 7.83294 49.8212 8.40268C50.3715 8.97243 50.6467 9.66073 50.6467 10.4676C50.6467 11.2709 50.3715 11.9574 49.8212 12.5272C49.2743 13.0969 48.6112 13.3818 47.8319 13.3818C47.056 13.3818 46.3929 13.0969 45.8425 12.5272C45.7332 12.4139 45.6357 12.2971 45.5503 12.1768V13.2332H45.0889V4.74002ZM45.5503 9.96861V10.9666C45.6392 11.4195 45.8511 11.8194 46.1861 12.1662C46.6407 12.6369 47.1893 12.8722 47.8319 12.8722C48.4745 12.8722 49.0231 12.6386 49.4777 12.1715C49.9323 11.7009 50.1596 11.1329 50.1596 10.4676C50.1596 9.80228 49.9323 9.2343 49.4777 8.76364C49.0231 8.29298 48.4745 8.05765 47.8319 8.05765C47.1893 8.05765 46.6407 8.29298 46.1861 8.76364C45.8511 9.11045 45.6392 9.5121 45.5503 9.96861Z" fill="white"/>
<path d="M54.5689 7.54806C55.3483 7.54806 56.0114 7.83294 56.5583 8.40268C57.1086 8.97243 57.3837 9.66073 57.3837 10.4676C57.3837 11.2709 57.1086 11.9574 56.5583 12.5272C56.0114 13.0969 55.3483 13.3818 54.5689 13.3818C53.793 13.3818 53.1299 13.0969 52.5796 12.5272C52.0293 11.9574 51.7541 11.2709 51.7541 10.4676C51.7541 9.66073 52.0293 8.97243 52.5796 8.40268C53.1299 7.83294 53.793 7.54806 54.5689 7.54806ZM54.5689 8.05765C53.9263 8.05765 53.3777 8.29298 52.9231 8.76364C52.4685 9.2343 52.2412 9.80228 52.2412 10.4676C52.2412 11.1329 52.4685 11.7009 52.9231 12.1715C53.3777 12.6386 53.9263 12.8722 54.5689 12.8722C55.2115 12.8722 55.7601 12.6386 56.2148 12.1715C56.6694 11.7009 56.8967 11.1329 56.8967 10.4676C56.8967 9.80228 56.6694 9.2343 56.2148 8.76364C55.7601 8.29298 55.2115 8.05765 54.5689 8.05765Z" fill="white"/>
<path d="M59.0757 9.18299V13.2332H58.6143V8.02049H59.0757V8.35491C59.4961 7.92318 59.9849 7.70731 60.5421 7.70731C61.1368 7.70731 61.6205 7.90017 61.993 8.2859C62.3656 8.67163 62.557 9.15822 62.5673 9.74566V13.2332H62.1058V9.78813C62.1058 9.34578 61.9503 8.96889 61.6393 8.65748C61.3316 8.34252 60.9659 8.18505 60.5421 8.18505C60.1182 8.18505 59.7525 8.33899 59.4449 8.64686C59.2774 8.82026 59.1543 8.99897 59.0757 9.18299Z" fill="white"/>
<path d="M65.0693 12.2564C65.5034 12.6669 66.0196 12.8722 66.6177 12.8722C67.2603 12.8722 67.8089 12.6369 68.2635 12.1662C68.3216 12.106 68.3763 12.0441 68.4276 11.9804L68.9147 12.1609C68.8258 12.2883 68.725 12.4104 68.6122 12.5272C68.0619 13.0969 67.397 13.3818 66.6177 13.3818C65.8418 13.3818 65.1787 13.0969 64.6284 12.5272C64.0781 11.9574 63.8029 11.2691 63.8029 10.4623C63.8029 9.65896 64.0781 8.97243 64.6284 8.40268C65.1787 7.83294 65.8418 7.54806 66.6177 7.54806C67.2843 7.54806 67.867 7.75508 68.3661 8.16912C68.4481 8.2399 68.5301 8.31775 68.6122 8.40268C68.6429 8.43453 68.672 8.46638 68.6993 8.49823L68.3507 8.85919L65.0693 12.2564ZM68.0123 8.53539C67.6124 8.2169 67.1475 8.05765 66.6177 8.05765C65.9785 8.05765 65.4316 8.29298 64.977 8.76364C64.5224 9.23077 64.2951 9.79697 64.2951 10.4623C64.2951 11.0108 64.4489 11.4921 64.7566 11.9061L68.0123 8.53539Z" fill="white"/>
<path d="M70.8681 8.02049V5.80166H71.3296V8.02049H72.355V8.49823H71.3296V13.2332H70.8681V8.49823H69.8427V8.02049H70.8681Z" fill="white"/>
<path d="M74.5443 12.2564C74.9784 12.6669 75.4945 12.8722 76.0927 12.8722C76.7353 12.8722 77.2839 12.6369 77.7385 12.1662C77.7966 12.106 77.8513 12.0441 77.9026 11.9804L78.3896 12.1609C78.3008 12.2883 78.1999 12.4104 78.0871 12.5272C77.5368 13.0969 76.872 13.3818 76.0927 13.3818C75.3168 13.3818 74.6537 13.0969 74.1033 12.5272C73.553 11.9574 73.2779 11.2691 73.2779 10.4623C73.2779 9.65896 73.553 8.97243 74.1033 8.40268C74.6537 7.83294 75.3168 7.54806 76.0927 7.54806C76.7592 7.54806 77.342 7.75508 77.841 8.16912C77.9231 8.2399 78.0051 8.31775 78.0871 8.40268C78.1179 8.43453 78.147 8.46638 78.1743 8.49823L77.8257 8.85919L74.5443 12.2564ZM77.4873 8.53539C77.0873 8.2169 76.6225 8.05765 76.0927 8.05765C75.4535 8.05765 74.9066 8.29298 74.452 8.76364C73.9974 9.23077 73.7701 9.79697 73.7701 10.4623C73.7701 11.0108 73.9239 11.4921 74.2315 11.9061L77.4873 8.53539Z" fill="white"/>
<path d="M88.6901 13.2332H88.2286V12.1715C88.1398 12.2954 88.0423 12.4139 87.9364 12.5272C87.3861 13.0969 86.7212 13.3818 85.9419 13.3818C85.166 13.3818 84.5029 13.0969 83.9526 12.5272C83.4023 11.9574 83.1271 11.2709 83.1271 10.4676C83.1271 9.66073 83.4023 8.97243 83.9526 8.40268C84.5029 7.83294 85.166 7.54806 85.9419 7.54806C86.7212 7.54806 87.3861 7.83294 87.9364 8.40268C88.0423 8.51593 88.1398 8.63448 88.2286 8.75833V8.02049H88.6901V13.2332ZM88.2286 10.94V9.99515C88.1432 9.52803 87.9295 9.11752 87.5877 8.76364C87.1331 8.29298 86.5845 8.05765 85.9419 8.05765C85.2993 8.05765 84.7507 8.29298 84.2961 8.76364C83.8415 9.2343 83.6142 9.80228 83.6142 10.4676C83.6142 11.1329 83.8415 11.7009 84.2961 12.1715C84.7507 12.6386 85.2993 12.8722 85.9419 12.8722C86.5845 12.8722 87.1331 12.6369 87.5877 12.1662C87.9295 11.8123 88.1432 11.4036 88.2286 10.94Z" fill="white"/>
<path d="M90.2282 8.02049H90.6897V8.97066C90.7854 8.82911 90.8964 8.69287 91.0229 8.56193C91.4297 8.14081 91.8467 7.91964 92.2739 7.8984V8.41861C91.9834 8.43276 91.6826 8.60086 91.3716 8.92289C90.934 9.37232 90.7067 9.91199 90.6897 10.5419V13.2332H90.2282V8.02049Z" fill="white"/>
<path d="M94.2274 8.02049V5.80166H94.6888V8.02049H95.7143V8.49823H94.6888V13.2332H94.2274V8.49823H93.202V8.02049H94.2274Z" fill="white"/>
<path d="M97.9035 12.2564C98.3376 12.6669 98.8538 12.8722 99.4519 12.8722C100.095 12.8722 100.643 12.6369 101.098 12.1662C101.156 12.106 101.211 12.0441 101.262 11.9804L101.749 12.1609C101.66 12.2883 101.559 12.4104 101.446 12.5272C100.896 13.0969 100.231 13.3818 99.4519 13.3818C98.676 13.3818 98.0129 13.0969 97.4626 12.5272C96.9123 11.9574 96.6371 11.2691 96.6371 10.4623C96.6371 9.65896 96.9123 8.97243 97.4626 8.40268C98.0129 7.83294 98.676 7.54806 99.4519 7.54806C100.118 7.54806 100.701 7.75508 101.2 8.16912C101.282 8.2399 101.364 8.31775 101.446 8.40268C101.477 8.43453 101.506 8.46638 101.534 8.49823L101.185 8.85919L97.9035 12.2564ZM100.847 8.53539C100.447 8.2169 99.9817 8.05765 99.4519 8.05765C98.8128 8.05765 98.2659 8.29298 97.8113 8.76364C97.3566 9.23077 97.1293 9.79697 97.1293 10.4623C97.1293 11.0108 97.2832 11.4921 97.5908 11.9061L100.847 8.53539Z" fill="white"/>
<path d="M104.369 10.5525C103.976 10.3331 103.704 10.1455 103.554 9.98984C103.318 9.74566 103.2 9.45194 103.2 9.10868C103.2 8.76187 103.318 8.46638 103.554 8.2222C103.79 7.97449 104.073 7.85063 104.405 7.85063C104.74 7.85063 105.017 7.96387 105.235 8.19036C105.447 8.4133 105.553 8.66633 105.553 8.94943V8.97597L105.153 9.14053C105.119 8.87158 105.037 8.66986 104.907 8.53539C104.781 8.40091 104.613 8.33368 104.405 8.33368C104.2 8.33368 104.024 8.40976 103.877 8.56193C103.73 8.71056 103.656 8.89281 103.656 9.10868C103.656 9.321 103.73 9.50325 103.877 9.65542C103.962 9.74389 104.143 9.87837 104.42 10.0588C104.858 10.3066 105.169 10.526 105.353 10.7171C105.644 11.0214 105.789 11.3841 105.789 11.8052C105.789 12.237 105.644 12.605 105.353 12.9094C105.063 13.2102 104.711 13.3606 104.297 13.3606C103.883 13.3606 103.531 13.2102 103.241 12.9094C102.95 12.605 102.805 12.2724 102.805 11.9114L103.261 11.7893C103.261 12.1007 103.362 12.3608 103.564 12.5696C103.769 12.7784 104.013 12.8828 104.297 12.8828C104.581 12.8828 104.823 12.7784 105.025 12.5696C105.23 12.3608 105.333 12.106 105.333 11.8052C105.333 11.5115 105.232 11.2603 105.03 11.0515C104.921 10.9382 104.7 10.7719 104.369 10.5525Z" fill="white"/>
<path d="M112.531 13.2332H112.07V12.1715C111.981 12.2954 111.884 12.4139 111.778 12.5272C111.227 13.0969 110.562 13.3818 109.783 13.3818C109.007 13.3818 108.344 13.0969 107.794 12.5272C107.243 11.9574 106.968 11.2709 106.968 10.4676C106.968 9.66073 107.243 8.97243 107.794 8.40268C108.344 7.83294 109.007 7.54806 109.783 7.54806C110.562 7.54806 111.227 7.83294 111.778 8.40268C111.884 8.51593 111.981 8.63448 112.07 8.75833V8.02049H112.531V13.2332ZM112.07 10.94V9.99515C111.984 9.52803 111.771 9.11752 111.429 8.76364C110.974 8.29298 110.426 8.05765 109.783 8.05765C109.141 8.05765 108.592 8.29298 108.137 8.76364C107.683 9.2343 107.455 9.80228 107.455 10.4676C107.455 11.1329 107.683 11.7009 108.137 12.1715C108.592 12.6386 109.141 12.8722 109.783 12.8722C110.426 12.8722 110.974 12.6369 111.429 12.1662C111.771 11.8123 111.984 11.4036 112.07 10.94Z" fill="white"/>
<path d="M114.531 9.18299V13.2332H114.069V8.02049H114.531V8.35491C114.951 7.92318 115.44 7.70731 115.997 7.70731C116.592 7.70731 117.076 7.90017 117.448 8.2859C117.821 8.67163 118.012 9.15822 118.022 9.74566V13.2332H117.561V9.78813C117.561 9.34578 117.405 8.96889 117.094 8.65748C116.787 8.34252 116.421 8.18505 115.997 8.18505C115.573 8.18505 115.208 8.33899 114.9 8.64686C114.733 8.82026 114.609 8.99897 114.531 9.18299Z" fill="white"/>
<path d="M125 13.2332H124.539V12.1715C124.45 12.2954 124.353 12.4139 124.247 12.5272C123.696 13.0969 123.032 13.3818 122.252 13.3818C121.476 13.3818 120.813 13.0969 120.263 12.5272C119.713 11.9574 119.438 11.2709 119.438 10.4676C119.438 9.66073 119.713 8.97243 120.263 8.40268C120.813 7.83294 121.476 7.54806 122.252 7.54806C123.032 7.54806 123.696 7.83294 124.247 8.40268C124.353 8.51593 124.45 8.63448 124.539 8.75833V8.02049H125V13.2332ZM124.539 10.94V9.99515C124.454 9.52803 124.24 9.11752 123.898 8.76364C123.444 8.29298 122.895 8.05765 122.252 8.05765C121.61 8.05765 121.061 8.29298 120.607 8.76364C120.152 9.2343 119.925 9.80228 119.925 10.4676C119.925 11.1329 120.152 11.7009 120.607 12.1715C121.061 12.6386 121.61 12.8722 122.252 12.8722C122.895 12.8722 123.444 12.6369 123.898 12.1662C124.24 11.8123 124.454 11.4036 124.539 10.94Z" fill="white"/>
<path d="M127 4.74002V13.2332H126.539V4.74002H127Z" fill="white"/>
</svg>
