<svg width="540" height="221" viewBox="0 0 540 221" fill="none" xmlns="http://www.w3.org/2000/svg">
<path d="M12.1755 119.867V217.199H0V0H12.1755V107.649H102.815V0H114.99V217.199H102.815V119.867H12.1755Z" fill="white"/>
<path d="M180.873 192.221C192.327 202.719 205.946 207.968 221.729 207.968C238.684 207.968 253.159 201.95 265.154 189.913C266.688 188.375 268.131 186.791 269.483 185.162L282.335 189.778C279.99 193.036 277.33 196.158 274.354 199.144C259.833 213.715 242.292 221 221.729 221C201.256 221 183.759 213.715 169.239 199.144C154.719 184.574 147.458 166.972 147.458 146.338C147.458 125.794 154.719 108.238 169.239 93.6671C183.759 79.0966 201.256 71.8114 221.729 71.8114C239.315 71.8114 254.693 77.1056 267.86 87.6941C270.025 89.5041 272.189 91.4951 274.354 93.6671C275.165 94.4816 275.932 95.2961 276.653 96.1106L267.454 105.342L180.873 192.221ZM258.526 97.0608C247.974 88.9158 235.708 84.8434 221.729 84.8434C204.863 84.8434 190.433 90.8616 178.438 102.898C166.443 114.844 160.445 129.324 160.445 146.338C160.445 160.365 164.504 172.673 172.621 183.262L258.526 97.0608Z" fill="white"/>
<path d="M314.939 83.8931H327.114V108.192C329.639 104.572 332.57 101.088 335.907 97.7396C346.64 86.9701 357.643 81.3139 368.916 80.7709V94.0743C361.25 94.4363 353.314 98.7351 345.107 106.971C333.562 118.464 327.565 132.265 327.114 148.374V217.199H314.939V83.8931Z" fill="white"/>
<path d="M539.508 217.199H527.333V190.049C524.988 193.217 522.417 196.248 519.622 199.144C505.101 213.715 487.559 221 466.996 221C446.524 221 429.027 213.715 414.507 199.144C399.986 184.574 392.726 167.017 392.726 146.474C392.726 125.84 399.986 108.238 414.507 93.6671C429.027 79.0966 446.524 71.8114 466.996 71.8114C487.559 71.8114 505.101 79.0966 519.622 93.6671C522.417 96.5631 524.988 99.5948 527.333 102.762V83.8931H539.508V217.199ZM527.333 158.555V134.392C525.078 122.446 519.441 111.948 510.422 102.898C498.427 90.8616 483.952 84.8434 466.996 84.8434C450.041 84.8434 435.566 90.8616 423.571 102.898C411.576 114.934 405.578 129.46 405.578 146.474C405.578 163.488 411.576 178.013 423.571 190.049C435.566 201.995 450.041 207.968 466.996 207.968C483.952 207.968 498.427 201.95 510.422 189.913C519.441 180.863 525.078 170.411 527.333 158.555Z" fill="white"/>
<path d="M147.897 36.3947C145.412 35.5341 143.45 34.3564 142.011 32.8616C140.572 31.3668 139.853 29.5549 139.853 27.426C139.853 25.3424 140.572 23.5532 142.011 22.0584C143.45 20.5485 145.194 19.7936 147.243 19.7936C149.278 19.7936 151.022 20.541 152.475 22.0357C153.275 22.836 153.827 23.7344 154.132 24.7309L152.366 25.4556C152.105 24.7158 151.676 24.0363 151.08 23.4173C150.019 22.3302 148.74 21.7866 147.243 21.7866C145.746 21.7866 144.467 22.3377 143.406 23.4399C142.345 24.5271 141.815 25.8557 141.815 27.426C141.815 28.9812 142.345 30.3099 143.406 31.4121C144.395 32.4237 145.761 33.3523 147.505 34.1978C150.295 35.134 152.642 36.591 154.546 38.5689C156.566 40.6526 157.577 43.1741 157.577 46.1334C157.577 49.1079 156.566 51.6445 154.546 53.7432C152.526 55.8419 150.092 56.8913 147.243 56.8913C144.395 56.8913 141.96 55.8344 139.94 53.7206C138.327 52.0446 137.36 50.0969 137.041 47.8773L138.894 47.1752C139.097 49.1381 139.904 50.8518 141.313 52.3164C142.956 54.0225 144.932 54.8756 147.243 54.8756C149.569 54.8756 151.552 54.0225 153.195 52.3164C154.837 50.6102 155.658 48.5492 155.658 46.1334C155.658 43.7327 154.837 41.6793 153.195 39.9731C151.756 38.4783 149.99 37.2855 147.897 36.3947Z" fill="white"/>
<path d="M185.045 56.461H183.083V51.9314C182.705 52.4598 182.291 52.9656 181.84 53.4488C179.501 55.8797 176.674 57.0951 173.36 57.0951C170.061 57.0951 167.241 55.8797 164.902 53.4488C162.562 51.0179 161.392 48.0887 161.392 44.6613C161.392 41.2188 162.562 38.282 164.902 35.8511C167.241 33.4202 170.061 32.2048 173.36 32.2048C176.674 32.2048 179.501 33.4202 181.84 35.8511C182.291 36.3343 182.705 36.8401 183.083 37.3686V34.2205H185.045V56.461ZM183.083 46.677V42.6456C182.72 40.6526 181.811 38.9011 180.358 37.3912C178.425 35.3831 176.092 34.379 173.36 34.379C170.628 34.379 168.295 35.3831 166.362 37.3912C164.429 39.3994 163.463 41.8227 163.463 44.6613C163.463 47.4999 164.429 49.9232 166.362 51.9314C168.295 53.9244 170.628 54.9209 173.36 54.9209C176.092 54.9209 178.425 53.9168 180.358 51.9087C181.811 50.3988 182.72 48.6549 183.083 46.677Z" fill="white"/>
<path d="M191.716 20.2239H193.678V37.3459C194.041 36.8326 194.456 36.3343 194.921 35.8511C197.261 33.4202 200.08 32.2048 203.379 32.2048C206.693 32.2048 209.512 33.4202 211.838 35.8511C214.178 38.282 215.348 41.2188 215.348 44.6613C215.348 48.0887 214.178 51.0179 211.838 53.4488C209.512 55.8797 206.693 57.0951 203.379 57.0951C200.08 57.0951 197.261 55.8797 194.921 53.4488C194.456 52.9656 194.041 52.4674 193.678 51.954V56.461H191.716V20.2239ZM193.678 42.5324V46.7902C194.056 48.7229 194.957 50.429 196.381 51.9087C198.314 53.9168 200.647 54.9209 203.379 54.9209C206.112 54.9209 208.444 53.9244 210.377 51.9314C212.31 49.9232 213.277 47.4999 213.277 44.6613C213.277 41.8227 212.31 39.3994 210.377 37.3912C208.444 35.3831 206.112 34.379 203.379 34.379C200.647 34.379 198.314 35.3831 196.381 37.3912C194.957 38.8709 194.056 40.5846 193.678 42.5324Z" fill="white"/>
<path d="M232.025 32.2048C235.339 32.2048 238.158 33.4202 240.484 35.8511C242.824 38.282 243.994 41.2188 243.994 44.6613C243.994 48.0887 242.824 51.0179 240.484 53.4488C238.158 55.8797 235.339 57.0951 232.025 57.0951C228.726 57.0951 225.906 55.8797 223.567 53.4488C221.227 51.0179 220.057 48.0887 220.057 44.6613C220.057 41.2188 221.227 38.282 223.567 35.8511C225.906 33.4202 228.726 32.2048 232.025 32.2048ZM232.025 34.379C229.293 34.379 226.96 35.3831 225.027 37.3912C223.094 39.3994 222.128 41.8227 222.128 44.6613C222.128 47.4999 223.094 49.9232 225.027 51.9314C226.96 53.9244 229.293 54.9209 232.025 54.9209C234.757 54.9209 237.09 53.9244 239.023 51.9314C240.956 49.9232 241.922 47.4999 241.922 44.6613C241.922 41.8227 240.956 39.3994 239.023 37.3912C237.09 35.3831 234.757 34.379 232.025 34.379Z" fill="white"/>
<path d="M251.188 39.1804V56.461H249.226V34.2205H251.188V35.6473C252.975 33.8053 255.054 32.8842 257.423 32.8842C259.951 32.8842 262.008 33.7071 263.592 35.3529C265.176 36.9987 265.99 39.0747 266.034 41.5811V56.461H264.072V41.7623C264.072 39.875 263.41 38.2669 262.088 36.9383C260.78 35.5945 259.225 34.9226 257.423 34.9226C255.62 34.9226 254.065 35.5794 252.757 36.893C252.045 37.6328 251.522 38.3953 251.188 39.1804Z" fill="white"/>
<path d="M276.672 52.2937C278.518 54.0452 280.713 54.9209 283.256 54.9209C285.988 54.9209 288.321 53.9168 290.254 51.9087C290.501 51.652 290.734 51.3878 290.952 51.116L293.023 51.8861C292.645 52.4296 292.216 52.9505 291.737 53.4488C289.397 55.8797 286.57 57.0951 283.256 57.0951C279.957 57.0951 277.137 55.8797 274.798 53.4488C272.458 51.0179 271.288 48.0812 271.288 44.6386C271.288 41.2112 272.458 38.282 274.798 35.8511C277.137 33.4202 279.957 32.2048 283.256 32.2048C286.09 32.2048 288.568 33.0881 290.69 34.8546C291.039 35.1566 291.388 35.4888 291.737 35.8511C291.867 35.987 291.991 36.1229 292.107 36.2588L290.625 37.7989L276.672 52.2937ZM289.186 36.4173C287.485 35.0585 285.509 34.379 283.256 34.379C280.538 34.379 278.213 35.3831 276.28 37.3912C274.347 39.3843 273.381 41.8001 273.381 44.6386C273.381 46.979 274.035 49.0324 275.343 50.7989L289.186 36.4173Z" fill="white"/>
<path d="M301.329 34.2205V24.7535H303.291V34.2205H307.651V36.2588H303.291V56.461H301.329V36.2588H296.969V34.2205H301.329Z" fill="white"/>
<path d="M316.96 52.2937C318.805 54.0452 321 54.9209 323.543 54.9209C326.276 54.9209 328.608 53.9168 330.541 51.9087C330.788 51.652 331.021 51.3878 331.239 51.116L333.31 51.8861C332.932 52.4296 332.503 52.9505 332.024 53.4488C329.684 55.8797 326.857 57.0951 323.543 57.0951C320.244 57.0951 317.425 55.8797 315.085 53.4488C312.745 51.0179 311.575 48.0812 311.575 44.6386C311.575 41.2112 312.745 38.282 315.085 35.8511C317.425 33.4202 320.244 32.2048 323.543 32.2048C326.377 32.2048 328.855 33.0881 330.977 34.8546C331.326 35.1566 331.675 35.4888 332.024 35.8511C332.155 35.987 332.278 36.1229 332.394 36.2588L330.912 37.7989L316.96 52.2937ZM329.473 36.4173C327.773 35.0585 325.796 34.379 323.543 34.379C320.826 34.379 318.5 35.3831 316.567 37.3912C314.634 39.3843 313.668 41.8001 313.668 44.6386C313.668 46.979 314.322 49.0324 315.63 50.7989L329.473 36.4173Z" fill="white"/>
<path d="M377.107 56.461H375.145V51.9314C374.767 52.4598 374.353 52.9656 373.902 53.4488C371.563 55.8797 368.736 57.0951 365.422 57.0951C362.123 57.0951 359.303 55.8797 356.963 53.4488C354.624 51.0179 353.454 48.0887 353.454 44.6613C353.454 41.2188 354.624 38.282 356.963 35.8511C359.303 33.4202 362.123 32.2048 365.422 32.2048C368.736 32.2048 371.563 33.4202 373.902 35.8511C374.353 36.3343 374.767 36.8401 375.145 37.3686V34.2205H377.107V56.461ZM375.145 46.677V42.6456C374.782 40.6526 373.873 38.9011 372.42 37.3912C370.487 35.3831 368.154 34.379 365.422 34.379C362.69 34.379 360.357 35.3831 358.424 37.3912C356.491 39.3994 355.525 41.8227 355.525 44.6613C355.525 47.4999 356.491 49.9232 358.424 51.9314C360.357 53.9244 362.69 54.9209 365.422 54.9209C368.154 54.9209 370.487 53.9168 372.42 51.9087C373.873 50.3988 374.782 48.6549 375.145 46.677Z" fill="white"/>
<path d="M383.647 34.2205H385.609V38.2745C386.016 37.6705 386.489 37.0892 387.026 36.5306C388.756 34.7338 390.529 33.7902 392.346 33.6996V35.9191C391.11 35.9795 389.831 36.6967 388.509 38.0707C386.648 39.9882 385.682 42.2908 385.609 44.9784V56.461H383.647V34.2205Z" fill="white"/>
<path d="M400.652 34.2205V24.7535H402.614V34.2205H406.974V36.2588H402.614V56.461H400.652V36.2588H396.291V34.2205H400.652Z" fill="white"/>
<path d="M416.282 52.2937C418.128 54.0452 420.323 54.9209 422.866 54.9209C425.599 54.9209 427.931 53.9168 429.864 51.9087C430.111 51.652 430.344 51.3878 430.562 51.116L432.633 51.8861C432.255 52.4296 431.826 52.9505 431.347 53.4488C429.007 55.8797 426.18 57.0951 422.866 57.0951C419.567 57.0951 416.748 55.8797 414.408 53.4488C412.068 51.0179 410.898 48.0812 410.898 44.6386C410.898 41.2112 412.068 38.282 414.408 35.8511C416.748 33.4202 419.567 32.2048 422.866 32.2048C425.7 32.2048 428.178 33.0881 430.3 34.8546C430.649 35.1566 430.998 35.4888 431.347 35.8511C431.477 35.987 431.601 36.1229 431.717 36.2588L430.235 37.7989L416.282 52.2937ZM428.796 36.4173C427.096 35.0585 425.119 34.379 422.866 34.379C420.148 34.379 417.823 35.3831 415.89 37.3912C413.957 39.3843 412.991 41.8001 412.991 44.6386C412.991 46.979 413.645 49.0324 414.953 50.7989L428.796 36.4173Z" fill="white"/>
<path d="M443.773 45.0237C442.101 44.0875 440.946 43.2873 440.307 42.623C439.304 41.5811 438.802 40.3279 438.802 38.8634C438.802 37.3837 439.304 36.1229 440.307 35.0811C441.309 34.0242 442.516 33.4957 443.925 33.4957C445.35 33.4957 446.527 33.9789 447.457 34.9452C448.358 35.8964 448.809 36.976 448.809 38.1839V38.2971L447.108 38.9992C446.963 37.8517 446.614 36.9911 446.062 36.4173C445.524 35.8436 444.812 35.5567 443.925 35.5567C443.053 35.5567 442.305 35.8813 441.68 36.5306C441.055 37.1647 440.743 37.9423 440.743 38.8634C440.743 39.7693 441.055 40.5469 441.68 41.1961C442.043 41.5736 442.814 42.1473 443.991 42.9174C445.851 43.9743 447.174 44.9104 447.959 45.7258C449.194 47.0242 449.812 48.5719 449.812 50.3686C449.812 52.2107 449.194 53.781 447.959 55.0795C446.723 56.3629 445.226 57.0045 443.468 57.0045C441.709 57.0045 440.212 56.3629 438.977 55.0795C437.741 53.781 437.124 52.3617 437.124 50.8216L439.064 50.3007C439.064 51.6294 439.493 52.7391 440.35 53.63C441.222 54.5208 442.261 54.9662 443.468 54.9662C444.674 54.9662 445.706 54.5208 446.563 53.63C447.435 52.7391 447.871 51.652 447.871 50.3686C447.871 49.1154 447.443 48.0434 446.585 47.1526C446.12 46.6694 445.183 45.9598 443.773 45.0237Z" fill="white"/>
<path d="M478.479 56.461H476.517V51.9314C476.139 52.4598 475.725 52.9656 475.275 53.4488C472.935 55.8797 470.108 57.0951 466.794 57.0951C463.495 57.0951 460.675 55.8797 458.336 53.4488C455.996 51.0179 454.826 48.0887 454.826 44.6613C454.826 41.2188 455.996 38.282 458.336 35.8511C460.675 33.4202 463.495 32.2048 466.794 32.2048C470.108 32.2048 472.935 33.4202 475.275 35.8511C475.725 36.3343 476.139 36.8401 476.517 37.3686V34.2205H478.479V56.461ZM476.517 46.677V42.6456C476.154 40.6526 475.245 38.9011 473.792 37.3912C471.859 35.3831 469.526 34.379 466.794 34.379C464.062 34.379 461.729 35.3831 459.796 37.3912C457.863 39.3994 456.897 41.8227 456.897 44.6613C456.897 47.4999 457.863 49.9232 459.796 51.9314C461.729 53.9244 464.062 54.9209 466.794 54.9209C469.526 54.9209 471.859 53.9168 473.792 51.9087C475.245 50.3988 476.154 48.6549 476.517 46.677Z" fill="white"/>
<path d="M486.981 39.1804V56.461H485.019V34.2205H486.981V35.6473C488.769 33.8053 490.847 32.8842 493.216 32.8842C495.745 32.8842 497.802 33.7071 499.386 35.3529C500.97 36.9987 501.784 39.0747 501.827 41.5811V56.461H499.865V41.7623C499.865 39.875 499.204 38.2669 497.882 36.9383C496.574 35.5945 495.018 34.9226 493.216 34.9226C491.414 34.9226 489.859 35.5794 488.551 36.893C487.839 37.6328 487.316 38.3953 486.981 39.1804Z" fill="white"/>
<path d="M531.498 56.461H529.536V51.9314C529.158 52.4598 528.744 52.9656 528.293 53.4488C525.953 55.8797 523.126 57.0951 519.813 57.0951C516.514 57.0951 513.694 55.8797 511.354 53.4488C509.014 51.0179 507.844 48.0887 507.844 44.6613C507.844 41.2188 509.014 38.282 511.354 35.8511C513.694 33.4202 516.514 32.2048 519.813 32.2048C523.126 32.2048 525.953 33.4202 528.293 35.8511C528.744 36.3343 529.158 36.8401 529.536 37.3686V34.2205H531.498V56.461ZM529.536 46.677V42.6456C529.172 40.6526 528.264 38.9011 526.811 37.3912C524.878 35.3831 522.545 34.379 519.813 34.379C517.081 34.379 514.748 35.3831 512.815 37.3912C510.882 39.3994 509.915 41.8227 509.915 44.6613C509.915 47.4999 510.882 49.9232 512.815 51.9314C514.748 53.9244 517.081 54.9209 519.813 54.9209C522.545 54.9209 524.878 53.9168 526.811 51.9087C528.264 50.3988 529.172 48.6549 529.536 46.677Z" fill="white"/>
<path d="M540 20.2239V56.461H538.038V20.2239H540Z" fill="white"/>
</svg>
