<svg width="195" height="80" viewBox="0 0 195 80" fill="none" xmlns="http://www.w3.org/2000/svg">
<path d="M4.39669 43.2852V78.433H0V0H4.39669V38.8733H37.1276V0H41.5243V78.433H37.1276V43.2852H4.39669Z" fill="white"/>
<path d="M65.3153 69.4132C69.4515 73.2041 74.3693 75.0996 80.0687 75.0996C86.1915 75.0996 91.4187 72.9263 95.7502 68.5798C96.3039 68.0243 96.825 67.4524 97.3135 66.8641L101.954 68.5308C101.108 69.7073 100.147 70.8348 99.0722 71.9132C93.8287 77.1748 87.4942 79.8056 80.0687 79.8056C72.6757 79.8056 66.3575 77.1748 61.114 71.9132C55.8706 66.6517 53.2488 60.2954 53.2488 52.8442C53.2488 45.4258 55.8706 39.0858 61.114 33.8242C66.3575 28.5627 72.6757 25.9319 80.0687 25.9319C86.4195 25.9319 91.9723 27.8437 96.7273 31.6673C97.5089 32.3209 98.2905 33.0399 99.0722 33.8242C99.3653 34.1183 99.6421 34.4125 99.9026 34.7066L96.5807 38.04L65.3153 69.4132ZM93.3565 35.0497C89.546 32.1085 85.1167 30.6379 80.0687 30.6379C73.9784 30.6379 68.7675 32.8111 64.436 37.1576C60.1044 41.4714 57.9386 46.7003 57.9386 52.8442C57.9386 57.9097 59.4042 62.3542 62.3353 66.1778L93.3565 35.0497Z" fill="white"/>
<path d="M113.728 30.2947H118.124V39.0694C119.036 37.7622 120.095 36.504 121.3 35.2948C125.175 31.4059 129.149 29.3633 133.22 29.1673V33.9713C130.452 34.102 127.586 35.6543 124.622 38.6282C120.453 42.7787 118.287 47.7624 118.124 53.5795V78.433H113.728V30.2947Z" fill="white"/>
<path d="M194.822 78.433H190.426V68.6289C189.579 69.7727 188.651 70.8675 187.641 71.9132C182.398 77.1748 176.063 79.8056 168.638 79.8056C161.245 79.8056 154.926 77.1748 149.683 71.9132C144.44 66.6517 141.818 60.3117 141.818 52.8932C141.818 45.4421 144.44 39.0858 149.683 33.8242C154.926 28.5627 161.245 25.9319 168.638 25.9319C176.063 25.9319 182.398 28.5627 187.641 33.8242C188.651 34.87 189.579 35.9648 190.426 37.1086V30.2947H194.822V78.433ZM190.426 57.2561V48.5304C189.611 44.2166 187.576 40.4257 184.319 37.1576C179.988 32.8111 174.76 30.6379 168.638 30.6379C162.515 30.6379 157.288 32.8111 152.956 37.1576C148.625 41.5041 146.459 46.7493 146.459 52.8932C146.459 59.0372 148.625 64.2824 152.956 68.6289C157.288 72.9427 162.515 75.0996 168.638 75.0996C174.76 75.0996 179.988 72.9263 184.319 68.5798C187.576 65.3118 189.611 61.5372 190.426 57.2561Z" fill="white"/>
<path d="M53.4078 13.1426C52.5103 12.8318 51.8018 12.4065 51.2822 11.8667C50.7626 11.3269 50.5028 10.6726 50.5028 9.90386C50.5028 9.15144 50.7626 8.50534 51.2822 7.96556C51.8018 7.42032 52.4316 7.14771 53.1716 7.14771C53.9063 7.14771 54.5361 7.4176 55.061 7.95738C55.3496 8.24635 55.549 8.57077 55.6593 8.93062L55.0216 9.19233C54.9271 8.92517 54.7723 8.67981 54.5571 8.45627C54.174 8.0637 53.7122 7.86741 53.1716 7.86741C52.631 7.86741 52.1692 8.06642 51.786 8.46445C51.4029 8.85701 51.2114 9.33682 51.2114 9.90386C51.2114 10.4655 51.4029 10.9453 51.786 11.3433C52.1429 11.7086 52.6363 12.0439 53.266 12.3492C54.2737 12.6873 55.1213 13.2134 55.8088 13.9277C56.5383 14.6801 56.9031 15.5907 56.9031 16.6593C56.9031 17.7334 56.5383 18.6494 55.8088 19.4073C55.0793 20.1652 54.2002 20.5441 53.1716 20.5441C52.1429 20.5441 51.2638 20.1624 50.5343 19.3991C49.9518 18.7939 49.6028 18.0906 49.4873 17.2891L50.1565 17.0355C50.2299 17.7443 50.5212 18.3632 51.0303 18.892C51.6233 19.5082 52.3371 19.8162 53.1716 19.8162C54.0113 19.8162 54.7277 19.5082 55.3207 18.892C55.9138 18.2759 56.2103 17.5317 56.2103 16.6593C56.2103 15.7924 55.9138 15.0509 55.3207 14.4348C54.8012 13.895 54.1635 13.4642 53.4078 13.1426Z" fill="white"/>
<path d="M66.8223 20.3887H66.1138V18.753C65.9773 18.9438 65.8278 19.1265 65.6651 19.301C64.8201 20.1788 63.7993 20.6177 62.6027 20.6177C61.4113 20.6177 60.3932 20.1788 59.5482 19.301C58.7032 18.4231 58.2808 17.3654 58.2808 16.1277C58.2808 14.8846 58.7032 13.8241 59.5482 12.9463C60.3932 12.0684 61.4113 11.6295 62.6027 11.6295C63.7993 11.6295 64.8201 12.0684 65.6651 12.9463C65.8278 13.1207 65.9773 13.3034 66.1138 13.4942V12.3574H66.8223V20.3887ZM66.1138 16.8556V15.3998C65.9826 14.6801 65.6546 14.0476 65.1297 13.5024C64.4317 12.7772 63.5894 12.4147 62.6027 12.4147C61.616 12.4147 60.7737 12.7772 60.0757 13.5024C59.3776 14.2276 59.0286 15.1027 59.0286 16.1277C59.0286 17.1528 59.3776 18.0279 60.0757 18.753C60.7737 19.4727 61.616 19.8326 62.6027 19.8326C63.5894 19.8326 64.4317 19.47 65.1297 18.7448C65.6546 18.1996 65.9826 17.5699 66.1138 16.8556Z" fill="white"/>
<path d="M69.2312 7.3031H69.9398V13.4861C70.071 13.3007 70.2205 13.1207 70.3885 12.9463C71.2335 12.0684 72.2516 11.6295 73.443 11.6295C74.6396 11.6295 75.6577 12.0684 76.4975 12.9463C77.3424 13.8241 77.7649 14.8846 77.7649 16.1277C77.7649 17.3654 77.3424 18.4231 76.4975 19.301C75.6577 20.1788 74.6396 20.6177 73.443 20.6177C72.2516 20.6177 71.2335 20.1788 70.3885 19.301C70.2205 19.1265 70.071 18.9466 69.9398 18.7612V20.3887H69.2312V7.3031ZM69.9398 15.3589V16.8965C70.0762 17.5944 70.4016 18.2105 70.9159 18.7448C71.614 19.47 72.4563 19.8326 73.443 19.8326C74.4296 19.8326 75.272 19.4727 75.97 18.753C76.668 18.0279 77.017 17.1528 77.017 16.1277C77.017 15.1027 76.668 14.2276 75.97 13.5024C75.272 12.7772 74.4296 12.4147 73.443 12.4147C72.4563 12.4147 71.614 12.7772 70.9159 13.5024C70.4016 14.0367 70.0762 14.6556 69.9398 15.3589Z" fill="white"/>
<path d="M83.7873 11.6295C84.9839 11.6295 86.0021 12.0684 86.8418 12.9463C87.6867 13.8241 88.1092 14.8846 88.1092 16.1277C88.1092 17.3654 87.6867 18.4231 86.8418 19.301C86.0021 20.1788 84.9839 20.6177 83.7873 20.6177C82.5959 20.6177 81.5778 20.1788 80.7328 19.301C79.8878 18.4231 79.4653 17.3654 79.4653 16.1277C79.4653 14.8846 79.8878 13.8241 80.7328 12.9463C81.5778 12.0684 82.5959 11.6295 83.7873 11.6295ZM83.7873 12.4147C82.8006 12.4147 81.9583 12.7772 81.2603 13.5024C80.5622 14.2276 80.2132 15.1027 80.2132 16.1277C80.2132 17.1528 80.5622 18.0279 81.2603 18.753C81.9583 19.4727 82.8006 19.8326 83.7873 19.8326C84.774 19.8326 85.6163 19.4727 86.3143 18.753C87.0123 18.0279 87.3614 17.1528 87.3614 16.1277C87.3614 15.1027 87.0123 14.2276 86.3143 13.5024C85.6163 12.7772 84.774 12.4147 83.7873 12.4147Z" fill="white"/>
<path d="M90.7071 14.1485V20.3887H89.9986V12.3574H90.7071V12.8727C91.3526 12.2075 92.1032 11.8749 92.9586 11.8749C93.8718 11.8749 94.6144 12.172 95.1865 12.7663C95.7586 13.3606 96.0525 14.1103 96.0682 15.0154V20.3887H95.3597V15.0809C95.3597 14.3993 95.1209 13.8186 94.6433 13.3388C94.171 12.8536 93.6094 12.611 92.9586 12.611C92.3078 12.611 91.7463 12.8481 91.2739 13.3225C91.0168 13.5896 90.8278 13.865 90.7071 14.1485Z" fill="white"/>
<path d="M99.9099 18.8839C100.576 19.5163 101.369 19.8326 102.287 19.8326C103.274 19.8326 104.116 19.47 104.814 18.7448C104.904 18.6521 104.988 18.5567 105.066 18.4586L105.814 18.7367C105.678 18.9329 105.523 19.121 105.35 19.301C104.505 20.1788 103.484 20.6177 102.287 20.6177C101.096 20.6177 100.078 20.1788 99.2329 19.301C98.3879 18.4231 97.9655 17.3627 97.9655 16.1195C97.9655 14.8819 98.3879 13.8241 99.2329 12.9463C100.078 12.0684 101.096 11.6295 102.287 11.6295C103.311 11.6295 104.206 11.9485 104.972 12.5864C105.098 12.6955 105.224 12.8154 105.35 12.9463C105.397 12.9953 105.442 13.0444 105.484 13.0935L104.948 13.6496L99.9099 18.8839ZM104.429 13.1507C103.815 12.66 103.101 12.4147 102.287 12.4147C101.306 12.4147 100.466 12.7772 99.7682 13.5024C99.0702 14.2221 98.7212 15.0945 98.7212 16.1195C98.7212 16.9646 98.9574 17.7062 99.4297 18.3441L104.429 13.1507Z" fill="white"/>
<path d="M108.814 12.3574V8.9388H109.522V12.3574H111.097V13.0935H109.522V20.3887H108.814V13.0935H107.239V12.3574H108.814Z" fill="white"/>
<path d="M114.458 18.8839C115.125 19.5163 115.917 19.8326 116.836 19.8326C117.822 19.8326 118.665 19.47 119.363 18.7448C119.452 18.6521 119.536 18.5567 119.615 18.4586L120.362 18.7367C120.226 18.9329 120.071 19.121 119.898 19.301C119.053 20.1788 118.032 20.6177 116.836 20.6177C115.644 20.6177 114.626 20.1788 113.781 19.301C112.936 18.4231 112.514 17.3627 112.514 16.1195C112.514 14.8819 112.936 13.8241 113.781 12.9463C114.626 12.0684 115.644 11.6295 116.836 11.6295C117.859 11.6295 118.754 11.9485 119.52 12.5864C119.646 12.6955 119.772 12.8154 119.898 12.9463C119.945 12.9953 119.99 13.0444 120.032 13.0935L119.496 13.6496L114.458 18.8839ZM118.977 13.1507C118.363 12.66 117.649 12.4147 116.836 12.4147C115.854 12.4147 115.014 12.7772 114.316 13.5024C113.618 14.2221 113.269 15.0945 113.269 16.1195C113.269 16.9646 113.506 17.7062 113.978 18.3441L118.977 13.1507Z" fill="white"/>
<path d="M136.178 20.3887H135.469V18.753C135.333 18.9438 135.183 19.1265 135.021 19.301C134.176 20.1788 133.155 20.6177 131.958 20.6177C130.767 20.6177 129.749 20.1788 128.904 19.301C128.059 18.4231 127.636 17.3654 127.636 16.1277C127.636 14.8846 128.059 13.8241 128.904 12.9463C129.749 12.0684 130.767 11.6295 131.958 11.6295C133.155 11.6295 134.176 12.0684 135.021 12.9463C135.183 13.1207 135.333 13.3034 135.469 13.4942V12.3574H136.178V20.3887ZM135.469 16.8556V15.3998C135.338 14.6801 135.01 14.0476 134.485 13.5024C133.787 12.7772 132.945 12.4147 131.958 12.4147C130.972 12.4147 130.129 12.7772 129.431 13.5024C128.733 14.2276 128.384 15.1027 128.384 16.1277C128.384 17.1528 128.733 18.0279 129.431 18.753C130.129 19.4727 130.972 19.8326 131.958 19.8326C132.945 19.8326 133.787 19.47 134.485 18.7448C135.01 18.1996 135.338 17.5699 135.469 16.8556Z" fill="white"/>
<path d="M138.54 12.3574H139.248V13.8214C139.395 13.6033 139.566 13.3934 139.76 13.1916C140.384 12.5428 141.025 12.202 141.681 12.1693V12.9708C141.235 12.9926 140.773 13.2516 140.295 13.7478C139.623 14.4402 139.274 15.2717 139.248 16.2422V20.3887H138.54V12.3574Z" fill="white"/>
<path d="M144.68 12.3574V8.9388H145.389V12.3574H146.963V13.0935H145.389V20.3887H144.68V13.0935H143.106V12.3574H144.68Z" fill="white"/>
<path d="M150.325 18.8839C150.991 19.5163 151.784 19.8326 152.702 19.8326C153.689 19.8326 154.531 19.47 155.229 18.7448C155.318 18.6521 155.402 18.5567 155.481 18.4586L156.229 18.7367C156.093 18.9329 155.938 19.121 155.765 19.301C154.92 20.1788 153.899 20.6177 152.702 20.6177C151.511 20.6177 150.493 20.1788 149.648 19.301C148.803 18.4231 148.38 17.3627 148.38 16.1195C148.38 14.8819 148.803 13.8241 149.648 12.9463C150.493 12.0684 151.511 11.6295 152.702 11.6295C153.726 11.6295 154.62 11.9485 155.387 12.5864C155.513 12.6955 155.639 12.8154 155.765 12.9463C155.812 12.9953 155.856 13.0444 155.898 13.0935L155.363 13.6496L150.325 18.8839ZM154.843 13.1507C154.229 12.66 153.516 12.4147 152.702 12.4147C151.721 12.4147 150.881 12.7772 150.183 13.5024C149.485 14.2221 149.136 15.0945 149.136 16.1195C149.136 16.9646 149.372 17.7062 149.844 18.3441L154.843 13.1507Z" fill="white"/>
<path d="M160.252 16.2586C159.648 15.9205 159.231 15.6315 159 15.3916C158.638 15.0154 158.457 14.5629 158.457 14.034C158.457 13.4997 158.638 13.0444 159 12.6682C159.362 12.2865 159.798 12.0957 160.307 12.0957C160.821 12.0957 161.246 12.2702 161.582 12.6191C161.908 12.9626 162.07 13.3525 162.07 13.7887V13.8295L161.456 14.0831C161.404 13.6687 161.278 13.3579 161.078 13.1507C160.884 12.9435 160.627 12.8399 160.307 12.8399C159.992 12.8399 159.722 12.9572 159.496 13.1916C159.27 13.4206 159.158 13.7014 159.158 14.034C159.158 14.3612 159.27 14.6419 159.496 14.8764C159.627 15.0127 159.905 15.2199 160.33 15.498C161.002 15.8796 161.48 16.2177 161.763 16.5121C162.209 16.981 162.432 17.5399 162.432 18.1887C162.432 18.8539 162.209 19.4209 161.763 19.8898C161.317 20.3533 160.777 20.585 160.142 20.585C159.507 20.585 158.966 20.3533 158.52 19.8898C158.074 19.4209 157.851 18.9084 157.851 18.3523L158.551 18.1642C158.551 18.644 158.706 19.0447 159.016 19.3664C159.331 19.6881 159.706 19.8489 160.142 19.8489C160.577 19.8489 160.95 19.6881 161.259 19.3664C161.574 19.0447 161.732 18.6521 161.732 18.1887C161.732 17.7362 161.577 17.349 161.267 17.0273C161.099 16.8529 160.761 16.5966 160.252 16.2586Z" fill="white"/>
<path d="M172.785 20.3887H172.076V18.753C171.94 18.9438 171.79 19.1265 171.627 19.301C170.782 20.1788 169.762 20.6177 168.565 20.6177C167.374 20.6177 166.355 20.1788 165.511 19.301C164.666 18.4231 164.243 17.3654 164.243 16.1277C164.243 14.8846 164.666 13.8241 165.511 12.9463C166.355 12.0684 167.374 11.6295 168.565 11.6295C169.762 11.6295 170.782 12.0684 171.627 12.9463C171.79 13.1207 171.94 13.3034 172.076 13.4942V12.3574H172.785V20.3887ZM172.076 16.8556V15.3998C171.945 14.6801 171.617 14.0476 171.092 13.5024C170.394 12.7772 169.552 12.4147 168.565 12.4147C167.578 12.4147 166.736 12.7772 166.038 13.5024C165.34 14.2276 164.991 15.1027 164.991 16.1277C164.991 17.1528 165.34 18.0279 166.038 18.753C166.736 19.4727 167.578 19.8326 168.565 19.8326C169.552 19.8326 170.394 19.47 171.092 18.7448C171.617 18.1996 171.945 17.5699 172.076 16.8556Z" fill="white"/>
<path d="M175.855 14.1485V20.3887H175.146V12.3574H175.855V12.8727C176.5 12.2075 177.251 11.8749 178.106 11.8749C179.02 11.8749 179.762 12.172 180.334 12.7663C180.906 13.3606 181.2 14.1103 181.216 15.0154V20.3887H180.507V15.0809C180.507 14.3993 180.269 13.8186 179.791 13.3388C179.319 12.8536 178.757 12.611 178.106 12.611C177.456 12.611 176.894 12.8481 176.422 13.3225C176.164 13.5896 175.976 13.865 175.855 14.1485Z" fill="white"/>
<path d="M191.93 20.3887H191.222V18.753C191.085 18.9438 190.936 19.1265 190.773 19.301C189.928 20.1788 188.907 20.6177 187.711 20.6177C186.519 20.6177 185.501 20.1788 184.656 19.301C183.811 18.4231 183.389 17.3654 183.389 16.1277C183.389 14.8846 183.811 13.8241 184.656 12.9463C185.501 12.0684 186.519 11.6295 187.711 11.6295C188.907 11.6295 189.928 12.0684 190.773 12.9463C190.936 13.1207 191.085 13.3034 191.222 13.4942V12.3574H191.93V20.3887ZM191.222 16.8556V15.3998C191.091 14.6801 190.763 14.0476 190.238 13.5024C189.54 12.7772 188.697 12.4147 187.711 12.4147C186.724 12.4147 185.882 12.7772 185.184 13.5024C184.486 14.2276 184.137 15.1027 184.137 16.1277C184.137 17.1528 184.486 18.0279 185.184 18.753C185.882 19.4727 186.724 19.8326 187.711 19.8326C188.697 19.8326 189.54 19.47 190.238 18.7448C190.763 18.1996 191.091 17.5699 191.222 16.8556Z" fill="white"/>
<path d="M195 7.3031V20.3887H194.292V7.3031H195Z" fill="white"/>
</svg>
