<svg width="278" height="113" viewBox="0 0 278 113" fill="none" xmlns="http://www.w3.org/2000/svg">
<path d="M6.24693 61.2893V111.057H0V0H6.24693V55.0424H52.7518V0H58.9988V111.057H52.7518V61.2893H6.24693Z" fill="black"/>
<path d="M92.8016 98.285C98.6783 103.653 105.666 106.337 113.764 106.337C122.463 106.337 129.89 103.259 136.044 97.105C136.831 96.3184 137.571 95.5086 138.265 94.6757L144.859 97.0356C143.656 98.7015 142.291 100.298 140.764 101.825C133.314 109.275 124.314 113 113.764 113C103.259 113 94.2823 109.275 86.8323 101.825C79.3823 94.3749 75.6572 85.3747 75.6572 74.8243C75.6572 64.3202 79.3823 55.3432 86.8323 47.8931C94.2823 40.4431 103.259 36.7181 113.764 36.7181C122.787 36.7181 130.676 39.4251 137.432 44.8391C138.543 45.7645 139.654 46.7826 140.764 47.8931C141.181 48.3096 141.574 48.726 141.944 49.1425L137.224 53.8624L92.8016 98.285ZM132.643 49.6284C127.229 45.4638 120.936 43.3815 113.764 43.3815C105.11 43.3815 97.7066 46.4586 91.5522 52.613C85.3978 58.7211 82.3206 66.1249 82.3206 74.8243C82.3206 81.9967 84.4029 88.2899 88.5676 93.7039L132.643 49.6284Z" fill="black"/>
<path d="M161.587 42.8956H167.834V55.32C169.13 53.4691 170.634 51.6876 172.346 49.9754C177.852 44.4689 183.498 41.5768 189.282 41.2991V48.1014C185.349 48.2864 181.277 50.4844 177.066 54.6953C171.143 60.5721 168.066 67.6288 167.834 75.8655V111.057H161.587V42.8956Z" fill="black"/>
<path d="M276.808 111.057H270.561V97.1744C269.358 98.794 268.039 100.344 266.605 101.825C259.155 109.275 250.155 113 239.604 113C229.1 113 220.123 109.275 212.673 101.825C205.223 94.3749 201.498 85.3978 201.498 74.8937C201.498 64.3434 205.223 55.3432 212.673 47.8931C220.123 40.4431 229.1 36.7181 239.604 36.7181C250.155 36.7181 259.155 40.4431 266.605 47.8931C268.039 49.3739 269.358 50.924 270.561 52.5436V42.8956H276.808V111.057ZM270.561 81.0713V68.7162C269.405 62.6081 266.512 57.2404 261.885 52.613C255.731 46.4586 248.304 43.3815 239.604 43.3815C230.905 43.3815 223.478 46.4586 217.324 52.613C211.169 58.7674 208.092 66.1943 208.092 74.8937C208.092 83.5932 211.169 91.0201 217.324 97.1744C223.478 103.283 230.905 106.337 239.604 106.337C248.304 106.337 255.731 103.259 261.885 97.105C266.512 92.4777 269.405 87.1331 270.561 81.0713Z" fill="black"/>
<path d="M75.8823 18.6092C74.6072 18.1692 73.6005 17.567 72.8623 16.8027C72.124 16.0384 71.7549 15.112 71.7549 14.0234C71.7549 12.958 72.124 12.0432 72.8623 11.2789C73.6005 10.5069 74.4953 10.1208 75.5467 10.1208C76.5907 10.1208 77.4855 10.503 78.2312 11.2673C78.6413 11.6765 78.9247 12.1358 79.0813 12.6454L78.1753 13.0159C78.041 12.6376 77.8211 12.2902 77.5153 11.9737C76.971 11.4178 76.3148 11.1399 75.5467 11.1399C74.7787 11.1399 74.1225 11.4217 73.5781 11.9853C73.0338 12.5411 72.7616 13.2205 72.7616 14.0234C72.7616 14.8186 73.0338 15.498 73.5781 16.0615C74.0852 16.5788 74.7861 17.0536 75.6809 17.4859C77.1127 17.9646 78.3169 18.7096 79.2938 19.7209C80.3303 20.7863 80.8485 22.0756 80.8485 23.5887C80.8485 25.1096 80.3303 26.4066 79.2938 27.4797C78.2573 28.5528 77.0083 29.0894 75.5467 29.0894C74.0852 29.0894 72.8362 28.549 71.7997 27.4681C70.9719 26.6112 70.4761 25.6153 70.312 24.4804L71.2628 24.1214C71.3672 25.1251 71.781 26.0013 72.5043 26.7502C73.3469 27.6225 74.3611 28.0587 75.5467 28.0587C76.7398 28.0587 77.7577 27.6225 78.6003 26.7502C79.4429 25.8778 79.8642 24.824 79.8642 23.5887C79.8642 22.3612 79.4429 21.3113 78.6003 20.4389C77.8621 19.6746 76.9561 19.0647 75.8823 18.6092Z" fill="black"/>
<path d="M94.942 28.8693H93.9353V26.5533C93.7414 26.8235 93.5289 27.0821 93.2977 27.3292C92.0972 28.5721 90.6468 29.1936 88.9467 29.1936C87.254 29.1936 85.8073 28.5721 84.6068 27.3292C83.4062 26.0862 82.806 24.5885 82.806 22.836C82.806 21.0758 83.4062 19.5742 84.6068 18.3313C85.8073 17.0883 87.254 16.4669 88.9467 16.4669C90.6468 16.4669 92.0972 17.0883 93.2977 18.3313C93.5289 18.5783 93.7414 18.837 93.9353 19.1072V17.4975H94.942V28.8693ZM93.9353 23.8667V21.8054C93.7489 20.7863 93.2828 19.8908 92.5372 19.1187C91.5454 18.092 90.3486 17.5786 88.9467 17.5786C87.5448 17.5786 86.348 18.092 85.3562 19.1187C84.3644 20.1455 83.8686 21.3846 83.8686 22.836C83.8686 24.2874 84.3644 25.5265 85.3562 26.5533C86.348 27.5724 87.5448 28.0819 88.9467 28.0819C90.3486 28.0819 91.5454 27.5685 92.5372 26.5417C93.2828 25.7697 93.7489 24.878 93.9353 23.8667Z" fill="black"/>
<path d="M98.3647 10.3409H99.3714V19.0956C99.5578 18.8331 99.7703 18.5783 100.009 18.3313C101.209 17.0883 102.656 16.4669 104.349 16.4669C106.049 16.4669 107.496 17.0883 108.689 18.3313C109.889 19.5742 110.49 21.0758 110.49 22.836C110.49 24.5885 109.889 26.0862 108.689 27.3292C107.496 28.5721 106.049 29.1936 104.349 29.1936C102.656 29.1936 101.209 28.5721 100.009 27.3292C99.7703 27.0821 99.5578 26.8274 99.3714 26.5649V28.8693H98.3647V10.3409ZM99.3714 21.7475V23.9246C99.5652 24.9127 100.028 25.7851 100.758 26.5417C101.75 27.5685 102.947 28.0819 104.349 28.0819C105.751 28.0819 106.948 27.5724 107.939 26.5533C108.931 25.5265 109.427 24.2874 109.427 22.836C109.427 21.3846 108.931 20.1455 107.939 19.1187C106.948 18.092 105.751 17.5786 104.349 17.5786C102.947 17.5786 101.75 18.092 100.758 19.1187C100.028 19.8753 99.5652 20.7516 99.3714 21.7475Z" fill="black"/>
<path d="M119.046 16.4669C120.746 16.4669 122.193 17.0883 123.386 18.3313C124.587 19.5742 125.187 21.0758 125.187 22.836C125.187 24.5885 124.587 26.0862 123.386 27.3292C122.193 28.5721 120.746 29.1936 119.046 29.1936C117.354 29.1936 115.907 28.5721 114.706 27.3292C113.506 26.0862 112.906 24.5885 112.906 22.836C112.906 21.0758 113.506 19.5742 114.706 18.3313C115.907 17.0883 117.354 16.4669 119.046 16.4669ZM119.046 17.5786C117.644 17.5786 116.448 18.092 115.456 19.1187C114.464 20.1455 113.968 21.3846 113.968 22.836C113.968 24.2874 114.464 25.5265 115.456 26.5533C116.448 27.5724 117.644 28.0819 119.046 28.0819C120.448 28.0819 121.645 27.5724 122.637 26.5533C123.628 25.5265 124.124 24.2874 124.124 22.836C124.124 21.3846 123.628 20.1455 122.637 19.1187C121.645 18.092 120.448 17.5786 119.046 17.5786Z" fill="black"/>
<path d="M128.878 20.0336V28.8693H127.871V17.4975H128.878V18.2271C129.795 17.2852 130.862 16.8143 132.077 16.8143C133.375 16.8143 134.43 17.235 135.243 18.0765C136.055 18.918 136.473 19.9795 136.495 21.2611V28.8693H135.489V21.3537C135.489 20.3887 135.149 19.5665 134.471 18.8871C133.8 18.2 133.002 17.8565 132.077 17.8565C131.152 17.8565 130.355 18.1923 129.683 18.864C129.318 19.2423 129.05 19.6321 128.878 20.0336Z" fill="black"/>
<path d="M141.954 26.7386C142.901 27.6341 144.027 28.0819 145.332 28.0819C146.734 28.0819 147.93 27.5685 148.922 26.5417C149.049 26.4105 149.168 26.2754 149.28 26.1364L150.343 26.5301C150.149 26.8081 149.929 27.0744 149.683 27.3292C148.482 28.5721 147.032 29.1936 145.332 29.1936C143.639 29.1936 142.192 28.5721 140.992 27.3292C139.791 26.0862 139.191 24.5846 139.191 22.8244C139.191 21.0719 139.791 19.5742 140.992 18.3313C142.192 17.0883 143.639 16.4669 145.332 16.4669C146.786 16.4669 148.057 16.9185 149.146 17.8217C149.325 17.9761 149.504 18.146 149.683 18.3313C149.75 18.4008 149.813 18.4702 149.873 18.5397L149.112 19.3272L141.954 26.7386ZM148.374 18.6208C147.502 17.926 146.487 17.5786 145.332 17.5786C143.937 17.5786 142.744 18.092 141.752 19.1187C140.761 20.1378 140.265 21.373 140.265 22.8244C140.265 24.0211 140.6 25.071 141.271 25.9743L148.374 18.6208Z" fill="black"/>
<path d="M154.604 17.4975V12.6569H155.611V17.4975H157.848V18.5397H155.611V28.8693H154.604V18.5397H152.367V17.4975H154.604Z" fill="black"/>
<path d="M162.624 26.7386C163.571 27.6341 164.697 28.0819 166.002 28.0819C167.404 28.0819 168.601 27.5685 169.593 26.5417C169.719 26.4105 169.839 26.2754 169.95 26.1364L171.013 26.5301C170.819 26.8081 170.599 27.0744 170.353 27.3292C169.153 28.5721 167.702 29.1936 166.002 29.1936C164.309 29.1936 162.863 28.5721 161.662 27.3292C160.462 26.0862 159.861 24.5846 159.861 22.8244C159.861 21.0719 160.462 19.5742 161.662 18.3313C162.863 17.0883 164.309 16.4669 166.002 16.4669C167.456 16.4669 168.728 16.9185 169.816 17.8217C169.995 17.9761 170.174 18.146 170.353 18.3313C170.42 18.4008 170.484 18.4702 170.543 18.5397L169.783 19.3272L162.624 26.7386ZM169.044 18.6208C168.172 17.926 167.158 17.5786 166.002 17.5786C164.608 17.5786 163.415 18.092 162.423 19.1187C161.431 20.1378 160.935 21.373 160.935 22.8244C160.935 24.0211 161.271 25.071 161.942 25.9743L169.044 18.6208Z" fill="black"/>
<path d="M193.484 28.8693H192.478V26.5533C192.284 26.8235 192.071 27.0821 191.84 27.3292C190.639 28.5721 189.189 29.1936 187.489 29.1936C185.796 29.1936 184.35 28.5721 183.149 27.3292C181.949 26.0862 181.348 24.5885 181.348 22.836C181.348 21.0758 181.949 19.5742 183.149 18.3313C184.35 17.0883 185.796 16.4669 187.489 16.4669C189.189 16.4669 190.639 17.0883 191.84 18.3313C192.071 18.5783 192.284 18.837 192.478 19.1072V17.4975H193.484V28.8693ZM192.478 23.8667V21.8054C192.291 20.7863 191.825 19.8908 191.079 19.1187C190.088 18.092 188.891 17.5786 187.489 17.5786C186.087 17.5786 184.89 18.092 183.898 19.1187C182.907 20.1455 182.411 21.3846 182.411 22.836C182.411 24.2874 182.907 25.5265 183.898 26.5533C184.89 27.5724 186.087 28.0819 187.489 28.0819C188.891 28.0819 190.088 27.5685 191.079 26.5417C191.825 25.7697 192.291 24.878 192.478 23.8667Z" fill="black"/>
<path d="M196.84 17.4975H197.847V19.5704C198.055 19.2616 198.298 18.9643 198.574 18.6787C199.461 17.76 200.371 17.2775 201.303 17.2312V18.366C200.669 18.3969 200.013 18.7636 199.334 19.4661C198.38 20.4466 197.884 21.6239 197.847 22.9981V28.8693H196.84V17.4975Z" fill="black"/>
<path d="M205.564 17.4975V12.6569H206.571V17.4975H208.808V18.5397H206.571V28.8693H205.564V18.5397H203.327V17.4975H205.564Z" fill="black"/>
<path d="M213.584 26.7386C214.531 27.6341 215.657 28.0819 216.962 28.0819C218.364 28.0819 219.561 27.5685 220.553 26.5417C220.679 26.4105 220.799 26.2754 220.911 26.1364L221.973 26.5301C221.779 26.8081 221.559 27.0744 221.313 27.3292C220.113 28.5721 218.662 29.1936 216.962 29.1936C215.269 29.1936 213.823 28.5721 212.622 27.3292C211.422 26.0862 210.821 24.5846 210.821 22.8244C210.821 21.0719 211.422 19.5742 212.622 18.3313C213.823 17.0883 215.269 16.4669 216.962 16.4669C218.416 16.4669 219.688 16.9185 220.776 17.8217C220.955 17.9761 221.134 18.146 221.313 18.3313C221.38 18.4008 221.444 18.4702 221.503 18.5397L220.743 19.3272L213.584 26.7386ZM220.005 18.6208C219.132 17.926 218.118 17.5786 216.962 17.5786C215.568 17.5786 214.375 18.092 213.383 19.1187C212.391 20.1378 211.895 21.373 211.895 22.8244C211.895 24.0211 212.231 25.071 212.902 25.9743L220.005 18.6208Z" fill="black"/>
<path d="M227.689 23.0213C226.831 22.5426 226.238 22.1335 225.91 21.7938C225.396 21.2611 225.139 20.6203 225.139 19.8715C225.139 19.1149 225.396 18.4702 225.91 17.9375C226.425 17.3971 227.044 17.1269 227.767 17.1269C228.498 17.1269 229.102 17.374 229.579 17.8681C230.041 18.3544 230.273 18.9064 230.273 19.524V19.582L229.4 19.9409C229.326 19.3542 229.147 18.9142 228.863 18.6208C228.587 18.3274 228.222 18.1807 227.767 18.1807C227.32 18.1807 226.936 18.3467 226.615 18.6787C226.294 19.0029 226.134 19.4005 226.134 19.8715C226.134 20.3347 226.294 20.7323 226.615 21.0642C226.801 21.2572 227.197 21.5506 227.801 21.9443C228.755 22.4847 229.434 22.9634 229.836 23.3803C230.47 24.0442 230.787 24.8355 230.787 25.7542C230.787 26.6961 230.47 27.499 229.836 28.1629C229.203 28.8192 228.434 29.1473 227.532 29.1473C226.63 29.1473 225.862 28.8192 225.228 28.1629C224.594 27.499 224.277 26.7733 224.277 25.9859L225.273 25.7195C225.273 26.3989 225.493 26.9663 225.933 27.4218C226.38 27.8773 226.913 28.105 227.532 28.105C228.151 28.105 228.681 27.8773 229.121 27.4218C229.568 26.9663 229.792 26.4105 229.792 25.7542C229.792 25.1135 229.572 24.5653 229.132 24.1098C228.893 23.8628 228.412 23.5 227.689 23.0213Z" fill="black"/>
<path d="M245.496 28.8693H244.489V26.5533C244.295 26.8235 244.083 27.0821 243.852 27.3292C242.651 28.5721 241.201 29.1936 239.5 29.1936C237.808 29.1936 236.361 28.5721 235.161 27.3292C233.96 26.0862 233.36 24.5885 233.36 22.836C233.36 21.0758 233.96 19.5742 235.161 18.3313C236.361 17.0883 237.808 16.4669 239.5 16.4669C241.201 16.4669 242.651 17.0883 243.852 18.3313C244.083 18.5783 244.295 18.837 244.489 19.1072V17.4975H245.496V28.8693ZM244.489 23.8667V21.8054C244.303 20.7863 243.837 19.8908 243.091 19.1187C242.099 18.092 240.902 17.5786 239.5 17.5786C238.099 17.5786 236.902 18.092 235.91 19.1187C234.918 20.1455 234.422 21.3846 234.422 22.836C234.422 24.2874 234.918 25.5265 235.91 26.5533C236.902 27.5724 238.099 28.0819 239.5 28.0819C240.902 28.0819 242.099 27.5685 243.091 26.5417C243.837 25.7697 244.303 24.878 244.489 23.8667Z" fill="black"/>
<path d="M249.858 20.0336V28.8693H248.851V17.4975H249.858V18.2271C250.775 17.2852 251.842 16.8143 253.057 16.8143C254.355 16.8143 255.41 17.235 256.222 18.0765C257.035 18.918 257.453 19.9795 257.475 21.2611V28.8693H256.469V21.3537C256.469 20.3887 256.129 19.5665 255.451 18.8871C254.78 18.2 253.982 17.8565 253.057 17.8565C252.132 17.8565 251.334 18.1923 250.663 18.864C250.298 19.2423 250.03 19.6321 249.858 20.0336Z" fill="black"/>
<path d="M272.698 28.8693H271.692V26.5533C271.498 26.8235 271.285 27.0821 271.054 27.3292C269.854 28.5721 268.403 29.1936 266.703 29.1936C265.01 29.1936 263.564 28.5721 262.363 27.3292C261.163 26.0862 260.562 24.5885 260.562 22.836C260.562 21.0758 261.163 19.5742 262.363 18.3313C263.564 17.0883 265.01 16.4669 266.703 16.4669C268.403 16.4669 269.854 17.0883 271.054 18.3313C271.285 18.5783 271.498 18.837 271.692 19.1072V17.4975H272.698V28.8693ZM271.692 23.8667V21.8054C271.505 20.7863 271.039 19.8908 270.294 19.1187C269.302 18.092 268.105 17.5786 266.703 17.5786C265.301 17.5786 264.104 18.092 263.113 19.1187C262.121 20.1455 261.625 21.3846 261.625 22.836C261.625 24.2874 262.121 25.5265 263.113 26.5533C264.104 27.5724 265.301 28.0819 266.703 28.0819C268.105 28.0819 269.302 27.5685 270.294 26.5417C271.039 25.7697 271.505 24.878 271.692 23.8667Z" fill="black"/>
<path d="M277.061 10.3409V28.8693H276.054V10.3409H277.061Z" fill="black"/>
</svg>
